<?xml version="1.0" encoding="UTF-8"?>
<svg id="Warstwa_2" data-name="Warstwa 2" xmlns="http://www.w3.org/2000/svg" viewBox="0 0 378.7 236.3">
  <defs>
    <style>
      .cls-1 {
        fill: #020202;
      }

      .cls-2 {
        fill: #2986ff;
      }
    </style>
  </defs>
  <g id="Warstwa_1-2" data-name="Warstwa 1">
    <path class="cls-1" d="m32.3,129.6c-3,0-5.6-.1-7.9-.4-2.3-.3-4.2-.6-5.9-1v-20.6c1.4.3,3,.6,4.6.9s3.4.5,5.2.5c3.2,0,5.7-.7,7.4-1.9,1.8-1.3,3-3.2,3.7-5.8s1.1-5.8,1.1-9.8V.5h26.7v88.7c0,9.9-1.5,17.8-4.4,23.7s-7.1,10.2-12.3,12.8c-5.3,2.5-11.3,3.9-18.2,3.9h0Z"/>
    <path class="cls-1" d="m148.8,98.7l-4.9-18.4h-31.9l-5,18.4h-29.1L109.9,0h35.4l32.5,98.7h-29Zm-10.4-40.2l-4.2-16.1c-.4-1.8-1.1-4.2-1.9-7.5-.9-3.2-1.7-6.6-2.5-10.1s-1.5-6.3-1.9-8.6c-.4,2.2-1,5-1.7,8.3s-1.5,6.6-2.3,9.8c-.8,3.2-1.5,5.9-2.1,8.1l-4.2,16.1h20.8Z"/>
    <path class="cls-1" d="m47.3,157c-3.1,0-5.9.7-8.4,2s-4.6,3.2-6.3,5.8-3.1,5.6-4,9.2c-.9,3.6-1.4,7.7-1.4,12.3,0,6.2.8,11.4,2.3,15.6s4,7.4,7.2,9.6c3.2,2.1,7.2,3.2,12.1,3.2,4.4,0,8.6-.6,12.7-1.8s8.2-2.7,12.3-4.4v22.3c-4.3,1.9-8.8,3.3-13.3,4.2-4.6.9-9.4,1.3-14.5,1.3-10.7,0-19.4-2.1-26.2-6.4-6.8-4.2-11.8-10.1-15-17.6s-4.8-16.3-4.8-26.2c0-7.4,1-14.2,3.1-20.4s5.1-11.6,9.2-16.1c4.1-4.5,9-8.1,15-10.6,5.9-2.5,12.7-3.7,20.4-3.7,4.8,0,9.8.6,15,1.6,5.3,1.1,10.4,2.9,15.4,5.3l-8.2,20.9c-3.6-1.7-7.2-3.1-10.9-4.3s-7.6-1.8-11.7-1.8h0Z"/>
    <path class="cls-1" d="m184.8,185.7c0,7.6-.9,14.5-2.7,20.7s-4.6,11.6-8.5,16-8.8,7.9-14.9,10.3-13.3,3.6-21.7,3.6-15.4-1.2-21.4-3.6c-6-2.4-11-5.8-14.9-10.3s-6.8-9.8-8.7-16c-1.9-6.2-2.8-13.2-2.8-20.8,0-10.2,1.7-19.1,5.1-26.6,3.4-7.6,8.6-13.4,15.7-17.6,7.1-4.1,16.1-6.2,27.2-6.2s20.3,2.1,27.3,6.2c7,4.2,12.2,10,15.4,17.6,3.3,7.5,5,16.4,4.9,26.7h0Zm-67.6,0c0,5.9.7,11,2,15.3s3.5,7.5,6.4,9.8,6.7,3.4,11.4,3.4,8.8-1.1,11.7-3.4,5-5.6,6.2-9.8c1.3-4.3,1.9-9.3,1.9-15.3,0-8.9-1.5-15.9-4.4-21s-8.1-7.7-15.3-7.7c-4.8,0-8.7,1.2-11.6,3.5s-5.1,5.6-6.4,9.9c-1.2,4.2-1.9,9.3-1.9,15.3h0Z"/>
    <path class="cls-2" d="m196.9,0h82.3c34.1,0,58.4,5.1,73,15.2,14.6,10.1,21.8,24.7,21.8,43.6,0,10.3-1.9,19.1-5.6,26.3s-8.4,12.9-14,17.1c-5.7,4.2-11.4,7.1-17.4,8.6v1.6c6.5,1.6,12.9,4.3,19.3,8s11.7,9.3,16,16.6c4.2,7.4,6.4,17.4,6.4,30,0,14.3-3.6,26.6-10.9,37-7.3,10.3-17.6,18.3-31.1,23.8s-29.4,8.3-48,8.3h-91.8V0h0Zm63.7,90.6h19.2c10.5,0,18-2.2,22.3-6.5,4.3-4.4,6.5-9.6,6.5-15.9s-2.5-11.4-7.3-14.8c-4.9-3.4-12.5-5.1-22.7-5.1h-17.9l-.1,42.3h0Zm0,46.7v49.5h22.4c11.1,0,18.8-2.4,23.2-7.2,4.4-4.8,6.6-10.8,6.6-18,0-4.2-.9-8.2-2.8-11.9s-5.1-6.7-9.6-9-10.8-3.5-18.7-3.5l-21.1.1h0Z"/>
  </g>
</svg>