<?xml version="1.0" encoding="utf-8"?>
<!-- Generator: Adobe Illustrator 27.2.0, SVG Export Plug-In . SVG Version: 6.00 Build 0)  -->
<svg version="1.1" id="Warstwa_2_00000080202431200642906730000001697322882062363267_"
	 xmlns="http://www.w3.org/2000/svg" xmlns:xlink="http://www.w3.org/1999/xlink" x="0px" y="0px" viewBox="0 0 378.7 236.3"
	 style="enable-background:new 0 0 378.7 236.3;" xml:space="preserve">
<style type="text/css">
	.st0{fill:#FFFFFF;}
	.st1{fill:#2986FF;}
</style>
<g id="Warstwa_1-2">
	<path class="st0" d="M32.3,129.6c-3,0-5.6-0.1-7.9-0.4c-2.3-0.3-4.2-0.6-5.9-1v-20.6c1.4,0.3,3,0.6,4.6,0.9s3.4,0.5,5.2,0.5
		c3.2,0,5.7-0.7,7.4-1.9c1.8-1.3,3-3.2,3.7-5.8s1.1-5.8,1.1-9.8v-91h26.7v88.7c0,9.9-1.5,17.8-4.4,23.7s-7.1,10.2-12.3,12.8
		C45.2,128.2,39.2,129.6,32.3,129.6L32.3,129.6L32.3,129.6z"/>
	<path class="st0" d="M148.8,98.7l-4.9-18.4H112l-5,18.4H77.9l32-98.7h35.4l32.5,98.7H148.8z M138.4,58.5l-4.2-16.1
		c-0.4-1.8-1.1-4.2-1.9-7.5c-0.9-3.2-1.7-6.6-2.5-10.1s-1.5-6.3-1.9-8.6c-0.4,2.2-1,5-1.7,8.3s-1.5,6.6-2.3,9.8s-1.5,5.9-2.1,8.1
		l-4.2,16.1L138.4,58.5L138.4,58.5z"/>
	<path class="st0" d="M47.3,157c-3.1,0-5.9,0.7-8.4,2s-4.6,3.2-6.3,5.8s-3.1,5.6-4,9.2c-0.9,3.6-1.4,7.7-1.4,12.3
		c0,6.2,0.8,11.4,2.3,15.6s4,7.4,7.2,9.6c3.2,2.1,7.2,3.2,12.1,3.2c4.4,0,8.6-0.6,12.7-1.8s8.2-2.7,12.3-4.4v22.3
		c-4.3,1.9-8.8,3.3-13.3,4.2c-4.6,0.9-9.4,1.3-14.5,1.3c-10.7,0-19.4-2.1-26.2-6.4c-6.8-4.2-11.8-10.1-15-17.6S0,196,0,186.1
		c0-7.4,1-14.2,3.1-20.4s5.1-11.6,9.2-16.1s9-8.1,15-10.6c5.9-2.5,12.7-3.7,20.4-3.7c4.8,0,9.8,0.6,15,1.6
		c5.3,1.1,10.4,2.9,15.4,5.3l-8.2,20.9c-3.6-1.7-7.2-3.1-10.9-4.3S51.4,157,47.3,157L47.3,157L47.3,157z"/>
	<path class="st0" d="M184.8,185.7c0,7.6-0.9,14.5-2.7,20.7s-4.6,11.6-8.5,16s-8.8,7.9-14.9,10.3s-13.3,3.6-21.7,3.6
		s-15.4-1.2-21.4-3.6c-6-2.4-11-5.8-14.9-10.3s-6.8-9.8-8.7-16c-1.9-6.2-2.8-13.2-2.8-20.8c0-10.2,1.7-19.1,5.1-26.6
		c3.4-7.6,8.6-13.4,15.7-17.6c7.1-4.1,16.1-6.2,27.2-6.2s20.3,2.1,27.3,6.2c7,4.2,12.2,10,15.4,17.6
		C183.2,166.5,184.9,175.4,184.8,185.7L184.8,185.7L184.8,185.7z M117.2,185.7c0,5.9,0.7,11,2,15.3s3.5,7.5,6.4,9.8
		c2.9,2.3,6.7,3.4,11.4,3.4s8.8-1.1,11.7-3.4s5-5.6,6.2-9.8c1.3-4.3,1.9-9.3,1.9-15.3c0-8.9-1.5-15.9-4.4-21s-8.1-7.7-15.3-7.7
		c-4.8,0-8.7,1.2-11.6,3.5s-5.1,5.6-6.4,9.9C117.9,174.6,117.2,179.7,117.2,185.7L117.2,185.7L117.2,185.7z"/>
	<path class="st1" d="M196.9,0h82.3c34.1,0,58.4,5.1,73,15.2S374,39.9,374,58.8c0,10.3-1.9,19.1-5.6,26.3s-8.4,12.9-14,17.1
		c-5.7,4.2-11.4,7.1-17.4,8.6v1.6c6.5,1.6,12.9,4.3,19.3,8s11.7,9.3,16,16.6c4.2,7.4,6.4,17.4,6.4,30c0,14.3-3.6,26.6-10.9,37
		c-7.3,10.3-17.6,18.3-31.1,23.8s-29.4,8.3-48,8.3h-91.8L196.9,0L196.9,0L196.9,0z M260.6,90.6h19.2c10.5,0,18-2.2,22.3-6.5
		c4.3-4.4,6.5-9.6,6.5-15.9s-2.5-11.4-7.3-14.8c-4.9-3.4-12.5-5.1-22.7-5.1h-17.9L260.6,90.6L260.6,90.6z M260.6,137.3v49.5H283
		c11.1,0,18.8-2.4,23.2-7.2c4.4-4.8,6.6-10.8,6.6-18c0-4.2-0.9-8.2-2.8-11.9s-5.1-6.7-9.6-9s-10.8-3.5-18.7-3.5L260.6,137.3
		L260.6,137.3L260.6,137.3z"/>
</g>
</svg>
