<?xml version="1.0" encoding="utf-8"?>
<!-- Generator: Adobe Illustrator 27.2.0, SVG Export Plug-In . SVG Version: 6.00 Build 0)  -->
<svg version="1.1" id="Warstwa_2_00000084509582386889585950000015308001120841105852_"
	 xmlns="http://www.w3.org/2000/svg" xmlns:xlink="http://www.w3.org/1999/xlink" x="0px" y="0px" viewBox="0 0 110 106.2"
	 style="enable-background:new 0 0 110 106.2;" xml:space="preserve">
<style type="text/css">
	.st0{opacity:0.22;fill:#2986FF;enable-background:new    ;}
	.st1{fill:url(#SVGID_1_);}
	.st2{fill:url(#SVGID_00000005959999044334331400000002453155038447404987_);}
</style>
<circle class="st0" cx="56.1" cy="53.1" r="53.1"/>
<linearGradient id="SVGID_1_" gradientUnits="userSpaceOnUse" x1="53.8389" y1="0.9348" x2="53.8389" y2="104.657">
	<stop  offset="5.412371e-02" style="stop-color:#1F2C5E"/>
	<stop  offset="0.5258" style="stop-color:#2986FF"/>
	<stop  offset="1" style="stop-color:#2BD1E2"/>
</linearGradient>
<path class="st1" d="M96.1,25.4l0.1-0.3l-0.1,0v-0.2h-0.8l-20-4.7v-0.3H11.7v2.3l-0.2,0.5l0.2,0.1v60L11.5,83l0.2,0.2v0.2H12
	L25.7,95v0.2H26l0.3,0.2l0.2-0.2h69.6V25.4z M28.7,83.4h46l15.5,8.8H28.7V83.4z M14.7,23.8l11,3.9v52.7h-11V23.8z M93.1,90.4
	L75.3,80.3V27.8h17.8V90.4z M72.3,24.8H26.6l-5.7-2h51.3V24.8z M72.3,27.8v52.6H28.7V27.8H72.3z M25.7,83.4v7.7l-9.1-7.7H25.7z
	 M75.3,24.8v-1.7l7,1.7H75.3z"/>
<linearGradient id="SVGID_00000145761625385311867230000007438757801959286206_" gradientUnits="userSpaceOnUse" x1="55.1001" y1="0.9348" x2="55.1001" y2="104.657">
	<stop  offset="5.412371e-02" style="stop-color:#1F2C5E"/>
	<stop  offset="1" style="stop-color:#2986FF"/>
</linearGradient>
<polygon style="fill:url(#SVGID_00000145761625385311867230000007438757801959286206_);" points="53.6,62.7 56.6,62.7 56.6,58.4 
	60.9,58.4 60.9,55.4 56.6,55.4 56.6,51.1 53.6,51.1 53.6,55.4 49.3,55.4 49.3,58.4 53.6,58.4 "/>
</svg>
