<?xml version="1.0" encoding="UTF-8"?>
<svg id="Warstwa_2" data-name="Warstwa 2" xmlns="http://www.w3.org/2000/svg" viewBox="0 0 113.69 106.25">
  <defs>
    <style>
      .cls-1 {
        fill: #2986ff;
      }

      .cls-2 {
        fill: #e8f0fb;
        opacity: .45;
      }
    </style>
  </defs>
  <g id="Warstwa_1-2" data-name="Warstwa 1">
    <g>
      <circle class="cls-2" cx="60.56" cy="53.13" r="53.13"/>
      <path class="cls-1" d="m62.56,82.91H0V20.34h62.56v62.56Zm-60.56-2h58.56V22.34H2v58.56Z"/>
      <path class="cls-1" d="m83.43,94.72H14.01V25.29h69.43v69.43Zm-67.43-2h65.43V27.29H16.01v65.43Z"/>
      <rect class="cls-1" x="71.25" y="75.27" width="2" height="23.98" transform="translate(-39.28 107.16) rotate(-60.49)"/>
      <rect class="cls-1" x="71.74" y="13.09" width="2" height="21.45" transform="translate(32.78 89.1) rotate(-76.66)"/>
      <rect class="cls-1" x="6.34" y="16.45" width="2" height="14.85" transform="translate(-17.62 22.84) rotate(-70.54)"/>
      <rect class="cls-1" x="6.65" y="78.89" width="2" height="18.32" transform="translate(-64.59 37.13) rotate(-49.86)"/>
      <g>
        <rect class="cls-1" x="41.9" y="51.63" width="2" height="10.57"/>
        <rect class="cls-1" x="37.62" y="55.91" width="10.57" height="2"/>
      </g>
    </g>
  </g>
</svg>