<?xml version="1.0" encoding="utf-8"?>
<!-- Generator: Adobe Illustrator 27.2.0, SVG Export Plug-In . SVG Version: 6.00 Build 0)  -->
<svg version="1.1" id="Warstwa_2_00000053506897778870954440000004075197889906728334_"
	 xmlns="http://www.w3.org/2000/svg" xmlns:xlink="http://www.w3.org/1999/xlink" x="0px" y="0px" viewBox="0 0 110 110"
	 style="enable-background:new 0 0 110 110;" xml:space="preserve">
<style type="text/css">
	.st0{opacity:0.22;fill:#2986FF;enable-background:new    ;}
	.st1{fill:#1F2C5E;stroke:#1F2C5E;stroke-miterlimit:10;}
	.st2{fill:#1F2C5E;stroke:#1F2C5E;stroke-width:0.75;stroke-miterlimit:10;}
</style>
<circle class="st0" cx="54" cy="55" r="53.1"/>
<path class="st1" d="M105.2,48c-0.1-4.5-0.8-14-6.8-22.4c-1.7-2.4-4.8-6.8-10.5-8.4c-2.3-0.6-4.7-0.8-7.2-0.4L27.5,33.1h-5.6
	c-6.6,0-11.1,4.1-13.4,12.3H7.2c-2.4,0-4.1,1.7-4.3,4.4c-0.1,1.6,0.3,3,1.2,4C4.8,54.6,5.8,55,7,55h1.5c1.2,4.7,2.8,8.7,8,10.5v24.3
	c0,3.9,2.8,7.3,6.6,7.9c0.4,0.1,0.8,0.1,1.2,0.1c1.9,0,3.7-0.7,5.1-1.9c1.7-1.5,2.7-3.6,2.7-5.9V67.8l5.6,1.6c0.1,0.8,0,2.3-1,3.5
	c-0.2,0.3-0.8,1-1.8,1.4c-0.5,0.2-0.9,0.2-1.2,0.2c-0.3,0-1.1,0.1-1.2,0.9l0,0.5l0.3,0.3c0.6,0.6,2.5,1,3.6,1c0.8,0,2.3-0.1,3.9-0.8
	c2.5-1.2,3.7-3.3,4.3-4.7l36.2,11.7l0.1,0c1.4,0.3,2.8,0.3,4.2,0.2c1.6-0.1,3.1-0.5,4.6-1.1l0.1-0.1c0.4-0.3,0.9-0.5,1.3-0.8
	c2-1.1,3.9-2.7,5.6-4.7c7.5-8.1,8.5-18.5,8.6-24.7c0-0.7,0-1.4,0-2C105.3,49.4,105.2,48.7,105.2,48z M43.3,69.3l-0.3,0.9
	c-0.2,0.8-1.2,3.3-3.7,4.5c-1,0.5-1.9,0.6-2.6,0.6c0.7-0.5,1.1-1,1.3-1.3c1.7-2.1,1.4-4.7,1.3-5.5L39.3,68l-9-2.6V90
	c0,1.7-0.8,3.4-2.1,4.5c-1.3,1.1-3.1,1.6-4.8,1.4c-2.9-0.4-5-3.1-5-6.1V64.2L17.6,64c-4.6-1.4-6.1-4.5-7.6-10.1l-0.2-0.7H7
	c-0.7,0-1.2-0.2-1.6-0.7C4.8,52,4.6,51,4.6,50c0.1-0.8,0.5-2.7,2.5-2.7h2.7l0.2-0.7c2-7.7,6-11.6,11.8-11.6h5.9l32.6-10
	c-3.2,4.5-7.7,13-7.9,24.4c-0.2,11.8,4.4,20.7,7.6,25.4L43.3,69.3z M62.9,75.6c-2.9-3.9-8.8-13.2-8.6-26.2c0.2-12.6,6-21.4,8.9-25.3
	l9.6-2.9C66.3,26.9,62,37.7,62,50c0,12.2,4.2,22.8,10.6,28.7L62.9,75.6z M103.4,52.1c-0.4,9.2-3.2,17.4-7.5,22.8
	c-0.4,0.4-0.8,0.9-1.2,1.3c-1.5,1.5-3.1,2.8-4.9,3.9c-1.9,1-4,1.6-6.2,1.6c-10.9,0-19.8-14.2-19.8-31.6s8.9-31.6,19.8-31.6
	c10.5,0,19.1,13.1,19.8,29.6c0,0.6,0,1.1,0,1.5C103.4,50.2,103.4,51.1,103.4,52.1z"/>
<path class="st2" d="M83.6,61.9c-2.7,0-5.3-1.1-7.2-3.1c-0.3-0.4-0.3-0.9,0-1.3c0.2-0.3,0.7-0.5,1.1-0.4c0.6,0.2,1.3,0.4,2,0.4
	c3.1,0,5.7-2.5,5.7-5.7c0-3.1-2.5-5.7-5.7-5.7c-0.7,0-1.3,0.1-2,0.4c-0.4,0.2-0.9,0.1-1.1-0.2c-0.3-0.4-0.3-1,0.1-1.4
	c1.9-2,4.5-3.1,7.2-3.1c5.5,0,10,4.5,10,10C93.6,57.4,89.1,61.9,83.6,61.9z M80.9,59.4c0.9,0.3,1.8,0.5,2.7,0.5c4.4,0,8-3.6,8-8
	s-3.6-8-8-8c-1,0-1.9,0.2-2.7,0.5c3.5,0.7,6.2,3.8,6.2,7.5S84.4,58.8,80.9,59.4z"/>
</svg>
