<?xml version="1.0" encoding="UTF-8"?>
<svg id="Warstwa_2" data-name="Warstwa 2" xmlns="http://www.w3.org/2000/svg" viewBox="0 0 120.36 106.25">
  <defs>
    <style>
      .cls-1 {
        fill: #2986ff;
      }

      .cls-2 {
        fill: #e8f0fb;
        opacity: .45;
      }
    </style>
  </defs>
  <g id="Warstwa_1-2" data-name="Warstwa 1">
    <g>
      <circle class="cls-2" cx="67.24" cy="53.13" r="53.13"/>
      <path class="cls-1" d="m24.76,58.31c-1.17-2.29-2.53-5.99-2.38-10.62.11-3.16.93-6.33,2.38-9.16l1.78.91c-1.32,2.57-2.06,5.45-2.16,8.32-.14,4.2,1.1,7.56,2.16,9.64l-1.78.91Z"/>
      <path class="cls-1" d="m89.56,60.65c-.2,0-.37-.03-.51-.09-.59-.04-2-.1-5.31-.15-1.4-.02-2.55-.03-3.33-.04h-.22s-.2-.09-.2-.09c-4.86-2.27-7.81-7.37-7.17-12.42.81-6.35,6.76-9.16,7.02-9.28l.2-.09h9.92l.23.13c.26.15,6.5,3.69,6.71,10.52.18,5.8-4.22,9.77-6.19,10.99v.45s-1.03.07-1.03.07c-.04,0-.07,0-.11,0Zm-.06-2l.03.15-.03-.15Zm-.01-.06v-.03s0,.03,0,.03Zm-8.85-.21c.77,0,1.85.02,3.12.04,2.96.04,4.65.07,5.62.17h.02c.87-.43,5.66-3.9,5.49-9.38-.16-5.13-4.44-8.07-5.47-8.71h-8.93c-.95.49-5.08,2.87-5.68,7.62-.53,4.13,1.87,8.32,5.83,10.26Z"/>
      <path class="cls-1" d="m113.41,46.64c-.1-5.04-.89-15.52-7.5-24.82-1.87-2.62-5.34-7.51-11.6-9.28-2.53-.72-5.21-.86-7.96-.42L27.31,30.19h-6.18c-7.33,0-12.32,4.59-14.84,13.64h-1.48c-2.65,0-4.52,1.9-4.78,4.83-.15,1.77.3,3.33,1.29,4.4.83.9,1.96,1.38,3.27,1.38h1.7c1.38,5.18,3.15,9.58,8.83,11.6v26.93c0,4.35,3.12,8.11,7.27,8.76.45.07.9.1,1.34.1,2.05,0,4.04-.73,5.62-2.07,1.92-1.65,3.03-4.04,3.03-6.55v-24.66l6.2,1.77c.06.94-.02,2.55-1.07,3.88-.24.31-.89,1.12-1.95,1.51-.53.2-1.01.23-1.36.26-.35.03-1.27.09-1.37.99l-.02.51.29.33c.62.7,2.72,1.06,3.95,1.09.86.02,2.55-.08,4.29-.92,2.73-1.31,4.12-3.68,4.77-5.23l40.08,12.91.13.03c1.54.28,3.11.35,4.67.21,1.75-.16,3.46-.58,5.08-1.25l.12-.06c.49-.28.97-.59,1.44-.89,2.24-1.25,4.33-3,6.2-5.17,8.33-8.97,9.44-20.52,9.57-27.36.03-.75.05-1.5.05-2.26s-.02-1.52-.05-2.28Zm-68.55,23.61l-.3.96c-.26.83-1.32,3.66-4.08,4.97-1.09.52-2.16.68-2.89.71.78-.55,1.26-1.16,1.49-1.44,1.86-2.35,1.54-5.24,1.4-6.07l-.11-.62-10-2.86v27.31c0,1.93-.85,3.77-2.33,5.03-1.47,1.26-3.43,1.81-5.35,1.51-3.18-.5-5.58-3.41-5.58-6.78v-28.4l-.71-.22c-5.06-1.54-6.79-4.97-8.38-11.17l-.19-.75h-3.25c-.75,0-1.35-.25-1.79-.73-.59-.65-.87-1.69-.77-2.88.08-.9.51-3.01,2.79-3.01h3.03l.19-.75c2.19-8.55,6.6-12.89,13.1-12.89h6.48l36.15-11.07c-3.5,5.02-8.57,14.42-8.78,26.99-.22,13.05,4.88,22.88,8.44,28.12l-18.57-5.98Zm21.63,6.97c-3.26-4.34-9.75-14.66-9.5-29.07.24-13.91,6.63-23.75,9.9-27.98l10.61-3.25c-7.14,6.41-11.95,18.35-11.95,32s4.7,25.3,11.69,31.77l-10.75-3.46Zm44.92-26.05c-.41,10.21-3.58,19.25-8.33,25.22-.43.5-.87.99-1.34,1.46-1.61,1.63-3.43,3.07-5.41,4.32-2.15,1.12-4.44,1.74-6.83,1.74-12.11,0-21.96-15.7-21.96-35s9.85-35,21.96-35,21.18,14.51,21.91,32.77c.01.64.02,1.2.02,1.64,0,.81,0,1.76-.02,2.84Z"/>
    </g>
  </g>
</svg>