<?xml version="1.0" encoding="utf-8"?>
<!-- Generator: Adobe Illustrator 27.2.0, SVG Export Plug-In . SVG Version: 6.00 Build 0)  -->
<svg version="1.1" id="Warstwa_2_00000109012862318885686980000007691134024430442647_"
	 xmlns="http://www.w3.org/2000/svg" xmlns:xlink="http://www.w3.org/1999/xlink" x="0px" y="0px" viewBox="0 0 120.4 106.2"
	 style="enable-background:new 0 0 120.4 106.2;" xml:space="preserve">
<style type="text/css">
	.st0{opacity:0.45;fill:#E8F0FB;}
	.st1{fill:#2986FF;}
</style>
<g>
	<circle class="st0" cx="67.1" cy="53.5" r="53.1"/>
	<path class="st1" d="M24.6,58.7c-1.2-2.3-2.5-6-2.4-10.6c0.1-3.2,0.9-6.3,2.4-9.2l1.8,0.9c-1.3,2.6-2.1,5.5-2.2,8.3
		c-0.1,4.2,1.1,7.6,2.2,9.6L24.6,58.7z"/>
	<path class="st1" d="M113.3,47c-0.1-5-0.9-15.5-7.5-24.8c-1.9-2.6-5.3-7.5-11.6-9.3c-2.5-0.7-5.2-0.9-8-0.4l-59,18.1H21
		c-7.3,0-12.3,4.6-14.8,13.6H4.7c-2.6,0-4.5,1.9-4.8,4.8c-0.2,1.8,0.3,3.3,1.3,4.4c0.8,0.9,2,1.4,3.3,1.4h1.7
		C7.5,60,9.3,64.4,15,66.4v26.9c0,4.3,3.1,8.1,7.3,8.8c0.4,0.1,0.9,0.1,1.3,0.1c2.1,0,4-0.7,5.6-2.1c1.9-1.6,3-4,3-6.6V68.9l6.2,1.8
		c0.1,0.9,0,2.6-1.1,3.9c-0.2,0.3-0.9,1.1-1.9,1.5c-0.5,0.2-1,0.2-1.4,0.3c-0.3,0-1.3,0.1-1.4,1l0,0.5l0.3,0.3
		c0.6,0.7,2.7,1.1,4,1.1c0.9,0,2.5-0.1,4.3-0.9c2.7-1.3,4.1-3.7,4.8-5.2L86.1,86l0.1,0c1.5,0.3,3.1,0.3,4.7,0.2
		c1.7-0.2,3.5-0.6,5.1-1.2l0.1-0.1c0.5-0.3,1-0.6,1.4-0.9c2.2-1.3,4.3-3,6.2-5.2c8.3-9,9.4-20.5,9.6-27.4c0-0.7,0-1.5,0-2.3
		C113.3,48.5,113.3,47.8,113.3,47z M44.7,70.6l-0.3,1c-0.3,0.8-1.3,3.7-4.1,5c-1.1,0.5-2.2,0.7-2.9,0.7c0.8-0.5,1.3-1.2,1.5-1.4
		c1.9-2.3,1.5-5.2,1.4-6.1l-0.1-0.6l-10-2.9v27.3c0,1.9-0.8,3.8-2.3,5c-1.5,1.3-3.4,1.8-5.4,1.5c-3.2-0.5-5.6-3.4-5.6-6.8V65
		l-0.7-0.2c-5.1-1.5-6.8-5-8.4-11.2l-0.2-0.8H4.5c-0.7,0-1.4-0.2-1.8-0.7c-0.6-0.6-0.9-1.7-0.8-2.9c0.1-0.9,0.5-3,2.8-3h3l0.2-0.8
		c2.2-8.6,6.6-12.9,13.1-12.9h6.5l36.1-11.1c-3.5,5-8.6,14.4-8.8,27c-0.2,13.1,4.9,22.9,8.4,28.1L44.7,70.6z M66.4,77.6
		c-3.3-4.3-9.8-14.7-9.5-29.1c0.2-13.9,6.6-23.8,9.9-28l10.6-3.3c-7.1,6.4-12,18.4-12,32c0,13.5,4.7,25.3,11.7,31.8L66.4,77.6z
		 M111.3,51.5c-0.4,10.2-3.6,19.2-8.3,25.2c-0.4,0.5-0.9,1-1.3,1.5c-1.6,1.6-3.4,3.1-5.4,4.3c-2.2,1.1-4.4,1.7-6.8,1.7
		c-12.1,0-22-15.7-22-35s9.8-35,22-35c11.6,0,21.2,14.5,21.9,32.8c0,0.6,0,1.2,0,1.6C111.3,49.5,111.3,50.5,111.3,51.5z"/>
</g>
</svg>
