<?xml version="1.0" encoding="utf-8"?>
<!-- Generator: Adobe Illustrator 27.2.0, SVG Export Plug-In . SVG Version: 6.00 Build 0)  -->
<svg version="1.1" id="Warstwa_2_00000053506897778870954440000004075197889906728334_"
	 xmlns="http://www.w3.org/2000/svg" xmlns:xlink="http://www.w3.org/1999/xlink" x="0px" y="0px" viewBox="0 0 110 110"
	 style="enable-background:new 0 0 110 110;" xml:space="preserve">
<style type="text/css">
	.st0{opacity:0.22;fill:#2986FF;enable-background:new    ;}
	.st1{fill:url(#SVGID_1_);}
	.st2{fill:url(#SVGID_00000012430423944838070290000001659489793105494715_);}
</style>
<circle class="st0" cx="54" cy="55" r="53.1"/>
<g>
	<linearGradient id="SVGID_1_" gradientUnits="userSpaceOnUse" x1="54.0925" y1="2.1522" x2="54.0925" y2="103.1241">
		<stop  offset="5.412371e-02" style="stop-color:#1F2C5E"/>
		<stop  offset="0.5258" style="stop-color:#2986FF"/>
		<stop  offset="1" style="stop-color:#2BD1E2"/>
	</linearGradient>
	<path class="st1" d="M105.7,49c0-0.3,0-0.7,0-1l0,0c-0.2-8.9-2.5-16.6-6.9-22.7c-1.7-2.4-4.9-6.9-10.8-8.6c-2.5-0.7-5-0.8-7.5-0.4
		L27.4,32.6h-5.5c-6.8,0-11.4,4.1-13.8,12.3H7.2c-2.7,0-4.6,1.9-4.8,4.9c-0.1,1.8,0.3,3.3,1.3,4.4C4.5,55,5.6,55.5,7,55.5h1.1
		c1.1,4.2,2.7,8.4,7.9,10.4v23.9c0,4.2,3,7.8,7,8.4c0.5,0.1,0.9,0.1,1.3,0.1c2,0,3.9-0.7,5.4-2c1.9-1.6,2.9-3.9,2.9-6.3V76.7
		c0.8,0.7,2.7,1,3.8,1c1,0,2.5-0.1,4.1-0.8c1.9-0.9,3.4-2.4,4.4-4.5L80.7,84h0.2c1.2,0.3,2.6,0.3,4.3,0.2c1.5-0.1,3.1-0.5,4.8-1.1
		l0.2-0.2c0.2-0.1,0.4-0.2,0.6-0.4c0.2-0.1,0.5-0.3,0.6-0.4c2.1-1.1,4-2.7,5.7-4.8c5.7-6.2,8.6-14.3,8.7-25v-2
		C105.8,49.8,105.8,49.4,105.7,49z M70.8,77.6l-7.6-2.4c-3.3-4.4-8.6-13.6-8.4-25.8c0.1-8.9,3.1-17.2,8.7-24.9l7.5-2.3
		c-5.9,6.2-9.5,16.6-9.5,27.7C61.5,61.1,64.9,71.2,70.8,77.6z M102.9,48.1v4c-0.4,8.9-3.1,17.1-7.4,22.5c-0.2,0.2-0.4,0.4-0.6,0.7
		c-0.2,0.2-0.4,0.4-0.6,0.6c-1.5,1.5-3.1,2.8-4.8,3.8c-1.9,1-4,1.5-6,1.5c-10.6,0-19.3-14-19.3-31.1C64.3,33,73,19,83.6,19
		C93.7,19,102.2,31.8,102.9,48.1z M38.4,74.3c1.2-1.5,1.7-3.5,1.4-5.8v-0.9l-10-2.9V90c0,1.5-0.7,3.1-1.9,4.1
		c-1.2,1-2.8,1.5-4.4,1.3c-2.6-0.4-4.6-2.8-4.6-5.6v-26l-1.2-0.3c-4.3-1.3-5.8-4.2-7.3-9.8l-0.3-1.1H7c-0.6,0-0.9-0.1-1.2-0.5
		L5.7,52c-0.4-0.3-0.6-1.1-0.6-2.1c0.2-1.5,0.9-2.3,2-2.3h3.1l0.3-1.1c1.9-7.4,5.7-11.2,11.3-11.2h5.9l31.4-9.6
		c-2.9,4.4-7,12.6-7.2,23.5c-0.2,11.2,3.9,19.8,6.9,24.5l-15.8-5l-0.5,1.4c0,0-0.7,2.9-3.4,4.2c-0.3,0.1-0.6,0.3-0.9,0.4
		C38.3,74.5,38.3,74.4,38.4,74.3z M36.3,72.6c-0.1,0.1-0.6,0.8-1.6,1.2C34.3,74,34,74,33.7,74c-0.4,0-0.8,0.1-1.1,0.3v-5.9l4.6,1.3
		C37.2,70.4,37.2,71.6,36.3,72.6z"/>
	
		<linearGradient id="SVGID_00000083056912956596557700000014340496403514953148_" gradientUnits="userSpaceOnUse" x1="84.9856" y1="2.1522" x2="84.9856" y2="103.1241">
		<stop  offset="5.412371e-02" style="stop-color:#1F2C5E"/>
		<stop  offset="0.5258" style="stop-color:#2986FF"/>
		<stop  offset="1" style="stop-color:#2BD1E2"/>
	</linearGradient>
	<path style="fill:url(#SVGID_00000083056912956596557700000014340496403514953148_);" d="M83.7,41.4c-2.8,0-5.5,1.2-7.5,3.2
		c-0.5,0.5-0.6,1.3-0.1,1.9c0.3,0.5,1,0.6,1.6,0.3s1.2-0.4,1.9-0.4c2.9,0,5.3,2.4,5.3,5.3c0,2.9-2.4,5.3-5.3,5.3
		c-0.7,0-1.3-0.2-1.9-0.4c-0.5-0.1-1.2,0.1-1.5,0.5c-0.4,0.5-0.4,1.2,0,1.8c1.9,2,4.7,3.2,7.5,3.2c5.7,0,10.4-4.7,10.5-10.5
		C94.1,46.1,89.4,41.4,83.7,41.4z M87.5,51.9c0-3.4-2.1-6.3-5.2-7.5c0.4-0.1,0.9-0.1,1.3-0.1c4.2,0,7.6,3.4,7.6,7.6
		s-3.4,7.6-7.6,7.6c-0.4,0-0.8,0-1.3-0.1C85.3,58.3,87.5,55.3,87.5,51.9z"/>
</g>
</svg>
