<svg id="Group_22" data-name="Group 22" xmlns="http://www.w3.org/2000/svg" width="66.972" height="36.951" viewBox="0 0 66.972 36.951">
  <path id="Path_153" data-name="Path 153" d="M22.442,13H10.125v6.159H22.442Z" transform="translate(17.588 8.555)" fill="#2986ff"/>
  <path id="Path_154" data-name="Path 154" d="M12.284,21.317a6.159,6.159,0,1,0-6.159-6.159A6.159,6.159,0,0,0,12.284,21.317Zm0-4.619a1.54,1.54,0,1,0-1.54-1.54A1.54,1.54,0,0,0,12.284,16.7Z" transform="translate(9.271 0.238)" fill="#2986ff" fill-rule="evenodd"/>
  <path id="Path_155" data-name="Path 155" d="M26.442,15.159A6.159,6.159,0,1,1,20.284,9,6.159,6.159,0,0,1,26.442,15.159Zm-4.619,0a1.54,1.54,0,1,1-1.54-1.54A1.54,1.54,0,0,1,21.824,15.159Z" transform="translate(25.905 0.238)" fill="#2986ff" fill-rule="evenodd"/>
  <path id="Path_156" data-name="Path 156" d="M6.124,32.686A18.476,18.476,0,0,0,22.68,42.951H47.314A18.479,18.479,0,0,0,64.181,32.027a9.24,9.24,0,0,0,0-15.1A18.479,18.479,0,0,0,47.314,6H22.68A18.476,18.476,0,0,0,6.124,16.265a9.241,9.241,0,0,0,0,16.42ZM22.68,12.159H47.314a12.305,12.305,0,0,1,10.227,5.45,18.545,18.545,0,0,1,0,13.734,12.3,12.3,0,0,1-10.227,5.45H22.68a12.317,12.317,0,1,1,0-24.634Z" transform="translate(-1.125 -6)" fill="#2986ff" fill-rule="evenodd"/>
</svg>
