<?xml version="1.0" encoding="utf-8"?>
<!-- Generator: Adobe Illustrator 27.2.0, SVG Export Plug-In . SVG Version: 6.00 Build 0)  -->
<svg version="1.1" id="Warstwa_2_00000053506897778870954440000004075197889906728334_"
	 xmlns="http://www.w3.org/2000/svg" xmlns:xlink="http://www.w3.org/1999/xlink" x="0px" y="0px" viewBox="0 0 110 110"
	 style="enable-background:new 0 0 110 110;" xml:space="preserve">
<style type="text/css">
	.st0{opacity:0.22;fill:#2986FF;enable-background:new    ;}
	.st1{fill:#1F2C5E;stroke:#1F2C5E;stroke-miterlimit:10;}
	.st2{fill:#1F2C5E;stroke:#1F2C5E;stroke-width:1;stroke-miterlimit:10.0004;}
</style>
<g>
	<circle class="st0" cx="54" cy="55" r="53.1"/>
	<rect x="28.8" y="72.9" class="st1" width="50.6" height="2"/>
	<rect x="54" y="32.6" class="st1" width="25.5" height="2"/>
	<rect x="28.8" y="90.2" class="st1" width="50.6" height="2"/>
	<rect x="35.7" y="81.6" class="st1" width="43.7" height="2"/>
	<rect x="55.2" y="24.2" class="st1" width="24.1" height="2"/>
	<path class="st1" d="M86.2,101.4H20c-3.1,0-5.6-2.5-5.6-5.6v-34c0-30.1,24.5-54.6,54.6-54.6h17.3c3.1,0,5.6,2.5,5.6,5.6v83
		C91.8,98.9,89.2,101.4,86.2,101.4L86.2,101.4z M68.9,9.2c-29,0-52.5,23.6-52.5,52.5v34.1c0,2,1.6,3.6,3.6,3.6h66.3
		c2,0,3.6-1.6,3.6-3.6v-83c0-2-1.6-3.6-3.6-3.6L68.9,9.2L68.9,9.2z"/>
	<rect x="44.9" y="52.4" transform="matrix(0.187 -0.9824 0.9824 0.187 -6.6463 98.794)" class="st2" width="23" height="2"/>
	<polygon class="st1" points="47.5,60.4 40.7,53.5 47.5,46.6 49,48.1 43.5,53.5 49,58.9 	"/>
	<polygon class="st1" points="64.7,60.4 63.2,58.9 68.8,53.5 63.2,48.1 64.7,46.6 71.6,53.5 	"/>
	<path class="st1" d="M14.4,60.4c0-0.7,0.1-1.9,0.2-3.2c1.2-14.6,8.3-24.8,10.4-27.7c3.4-4.6,6.7-7.6,8.1-8.8
		C45,10.5,58.7,8.2,65.9,7.7l2.8-0.2l-2.1,1.9c-5.2,4.7-8.6,10-10.3,15.9c-0.9,3.1-1.1,5.8-1.3,8.3c-0.3,3.7-0.6,6.6-3.1,8
		c-2.4,1.3-4.8,0.1-7.4-1.2c-2-1-4.3-2.2-6.9-2.3c-6.5-0.3-13.5,5.8-21,18.3C15.9,57.7,15.2,59,14.4,60.4z M63.2,9.9
		c-7.5,0.9-21.4,4.2-32.7,16.2C22.5,34.7,19,44.2,17.6,51c7-10.4,13.6-15.3,20.2-15c3,0.2,5.5,1.4,7.7,2.5c2.5,1.3,4.1,2,5.5,1.2
		c1.5-0.8,1.7-2.8,2-6.4c0.2-2.4,0.5-5.4,1.4-8.6C55.9,19.3,58.9,14.4,63.2,9.9L63.2,9.9z"/>
</g>
</svg>
