<?xml version="1.0" encoding="utf-8"?>
<!-- Generator: Adobe Illustrator 27.2.0, SVG Export Plug-In . SVG Version: 6.00 Build 0)  -->
<svg version="1.1" id="Warstwa_2_00000053506897778870954440000004075197889906728334_"
	 xmlns="http://www.w3.org/2000/svg" xmlns:xlink="http://www.w3.org/1999/xlink" x="0px" y="0px" viewBox="0 0 106.2 106.2"
	 style="enable-background:new 0 0 106.2 106.2;" xml:space="preserve">
<style type="text/css">
	.st0{opacity:0.45;fill:#E8F0FB;enable-background:new    ;}
	.st1{fill:#2986FF;stroke:#2986FF;stroke-miterlimit:10;}
</style>
<circle class="st0" cx="53.1" cy="53.1" r="53.1"/>
<rect x="27.8" y="71" class="st1" width="50.6" height="2"/>
<rect x="53" y="30.7" class="st1" width="25.5" height="2"/>
<rect x="27.8" y="88.3" class="st1" width="50.6" height="2"/>
<rect x="34.7" y="79.7" class="st1" width="43.7" height="2"/>
<rect x="54.3" y="22.3" class="st1" width="24.1" height="2"/>
<path class="st1" d="M85.3,99.5H19c-3.1,0-5.6-2.5-5.6-5.6v-34C13.4,29.8,37.9,5.3,68,5.3h17.3c3.1,0,5.6,2.5,5.6,5.6v83
	C90.8,97,88.3,99.5,85.3,99.5L85.3,99.5z M68,7.3c-29,0-52.5,23.6-52.5,52.5v34.1c0,2,1.6,3.6,3.6,3.6h66.3c2,0,3.6-1.6,3.6-3.6v-83
	c0-2-1.6-3.6-3.6-3.6L68,7.3L68,7.3z"/>
<rect x="43.9" y="50.5" transform="matrix(0.187 -0.9824 0.9824 0.187 -5.5399 96.3068)" class="st1" width="23" height="2"/>
<polygon class="st1" points="46.6,58.5 39.7,51.6 46.5,44.7 48,46.2 42.5,51.6 48,57 "/>
<polygon class="st1" points="63.7,58.5 62.3,57 67.8,51.6 62.3,46.2 63.7,44.7 70.6,51.6 "/>
<path class="st1" d="M13.4,58.5c0-0.7,0.1-1.9,0.2-3.2c1.2-14.6,8.3-24.8,10.4-27.7c3.4-4.6,6.7-7.6,8.1-8.8
	C44,8.6,57.7,6.3,64.9,5.8l2.8-0.2l-2.1,1.9c-5.2,4.7-8.6,10-10.3,15.9c-0.9,3.1-1.1,5.8-1.3,8.3c-0.3,3.7-0.6,6.6-3.1,8
	c-2.4,1.3-4.8,0.1-7.4-1.2c-2-1-4.3-2.2-6.9-2.3c-6.5-0.3-13.5,5.8-21,18.3C14.9,55.8,14.2,57.1,13.4,58.5z M62.2,8
	c-7.5,0.9-21.4,4.2-32.7,16.2c-8,8.6-11.5,18.1-12.9,24.9c7-10.4,13.6-15.3,20.2-15c3,0.2,5.5,1.4,7.7,2.5c2.5,1.3,4.1,2,5.5,1.2
	c1.5-0.8,1.7-2.8,2-6.4c0.2-2.4,0.5-5.4,1.4-8.6C54.9,17.4,57.9,12.5,62.2,8L62.2,8z"/>
</svg>
