<?xml version="1.0" encoding="UTF-8"?>
<svg id="Warstwa_2" data-name="Warstwa 2" xmlns="http://www.w3.org/2000/svg" viewBox="0 0 106.25 106.25">
  <defs>
    <style>
      .cls-1 {
        fill: #2986ff;
      }

      .cls-2 {
        fill: #e8f0fb;
        opacity: .45;
      }
    </style>
  </defs>
  <g id="Warstwa_1-2" data-name="Warstwa 1">
    <g>
      <circle class="cls-2" cx="53.13" cy="53.13" r="53.13"/>
      <rect class="cls-1" x="27.8" y="71.02" width="50.65" height="2"/>
      <rect class="cls-1" x="52.98" y="30.7" width="25.47" height="2"/>
      <rect class="cls-1" x="27.8" y="88.31" width="50.65" height="2"/>
      <rect class="cls-1" x="34.71" y="79.66" width="43.74" height="2"/>
      <rect class="cls-1" x="54.35" y="22.34" width="24.1" height="2"/>
      <path class="cls-1" d="m85.27,99.48H19c-3.07,0-5.57-2.5-5.57-5.56v-34.05c0-30.08,24.47-54.54,54.54-54.54h17.28c3.07,0,5.57,2.5,5.57,5.57v83.02c0,3.07-2.5,5.56-5.57,5.56ZM67.98,7.32c-28.97,0-52.54,23.57-52.54,52.54v34.05c0,1.97,1.6,3.56,3.57,3.56h66.26c1.97,0,3.57-1.6,3.57-3.56V10.89c0-1.97-1.6-3.57-3.57-3.57h-17.28Z"/>
      <rect class="cls-1" x="43.92" y="50.5" width="23" height="2" transform="translate(-5.54 96.31) rotate(-79.22)"/>
      <polygon class="cls-1" points="46.56 58.45 39.66 51.64 46.55 44.74 47.97 46.16 42.49 51.63 47.96 57.03 46.56 58.45"/>
      <polygon class="cls-1" points="63.74 58.45 62.33 57.03 67.8 51.63 62.33 46.16 63.74 44.74 70.64 51.64 63.74 58.45"/>
      <path class="cls-1" d="m13.23,58.4l.55-4.64c.8-6.7,3.72-19.62,14.28-30.9,13.34-14.24,30.18-16.71,36.8-17.11l2.84-.17-2.11,1.91c-5.17,4.69-8.63,10.03-10.28,15.87-.87,3.08-1.11,5.83-1.33,8.26-.33,3.69-.58,6.6-3.06,7.99-2.39,1.35-4.82.12-7.4-1.18-2.01-1.02-4.29-2.17-6.88-2.3-6.46-.31-13.55,5.82-21.02,18.27l-2.4,4.01ZM62.19,8c-7.55.9-21.41,4.21-32.67,16.23-8.02,8.56-11.46,18.1-12.94,24.92,6.99-10.43,13.65-15.35,20.17-15.02,3.02.15,5.5,1.41,7.69,2.51,2.51,1.27,4.12,2.01,5.51,1.23,1.49-.84,1.72-2.78,2.05-6.43.21-2.39.47-5.36,1.39-8.62,1.52-5.39,4.48-10.36,8.8-14.81Z"/>
    </g>
  </g>
</svg>