<?xml version="1.0" encoding="utf-8"?>
<!-- Generator: Adobe Illustrator 27.2.0, SVG Export Plug-In . SVG Version: 6.00 Build 0)  -->
<svg version="1.1" id="Warstwa_2_00000140703562626139703930000012399762319823947672_"
	 xmlns="http://www.w3.org/2000/svg" xmlns:xlink="http://www.w3.org/1999/xlink" x="0px" y="0px" viewBox="0 0 115 112"
	 style="enable-background:new 0 0 115 112;" xml:space="preserve">
<style type="text/css">
	.st0{opacity:0.45;fill:#E8F0FB;enable-background:new    ;}
	.st1{fill:#2986FF;stroke:#2986FF;stroke-miterlimit:10;}
</style>
<circle class="st0" cx="61.9" cy="53.1" r="53.1"/>
<path class="st1" d="M46.7,80.6c-1.5,0-2.9-0.3-4.2-1c-1.8-0.9-3-2.3-3.3-4c-0.2-1.4,0.3-2.9,1.4-4c2.4-2.4,6.9-3,10.3-1.3
	c1.8,0.9,3,2.3,3.3,4c0.2,1.4-0.3,2.9-1.4,4C51.3,79.8,49,80.6,46.7,80.6L46.7,80.6z M46.7,71.4c-1.8,0-3.6,0.6-4.7,1.7
	c-0.7,0.7-1,1.5-0.9,2.3c0.2,1,1,1.9,2.2,2.5c2.6,1.3,6.2,0.8,8-0.9l0,0c0.7-0.7,1-1.5,0.9-2.3c-0.2-1-1-1.9-2.2-2.5
	C49,71.7,47.9,71.4,46.7,71.4z"/>
<path class="st1" d="M63.9,75.3c-1.1,0-2.2-0.2-3.2-0.7c-1.4-0.6-2.3-1.6-2.5-2.8c-0.2-1,0.2-2,1.1-2.8c1.8-1.7,5.3-2,7.8-0.9
	c1.4,0.6,2.3,1.6,2.5,2.8c0.2,1-0.2,2-1.1,2.8C67.4,74.8,65.6,75.3,63.9,75.3L63.9,75.3z M63.9,68.9c-1.4,0-2.7,0.4-3.6,1.1
	c-0.5,0.5-0.8,1-0.7,1.6c0.1,0.7,0.7,1.3,1.7,1.7c1.9,0.9,4.7,0.6,6.1-0.6l0,0c0.5-0.5,0.8-1,0.7-1.6c-0.1-0.7-0.7-1.3-1.7-1.7
	C65.7,69.1,64.8,68.9,63.9,68.9z"/>
<path class="st1" d="M27.9,95.9c-1,0-1.9-0.2-2.8-0.6c-1.2-0.6-2-1.6-2.2-2.7c-0.2-1,0.2-2,1-2.8c1.6-1.6,4.6-2,6.8-0.9
	c1.2,0.6,2,1.6,2.2,2.7c0.2,1-0.2,2-1,2.8l0,0C30.9,95.4,29.4,95.9,27.9,95.9L27.9,95.9z M27.9,90.2c-1,0-2,0.3-2.6,0.9
	c-0.2,0.2-0.5,0.6-0.4,1.1c0.1,0.5,0.5,0.9,1.1,1.3c1.5,0.7,3.5,0.5,4.5-0.5l0,0c0.2-0.2,0.5-0.6,0.4-1.1c-0.1-0.5-0.5-0.9-1.1-1.3
	C29.2,90.3,28.5,90.2,27.9,90.2z"/>
<path class="st1" d="M31.6,85.5c-1.2,0-2.5-0.3-3.5-0.8c-1.5-0.8-2.5-2-2.8-3.4c-0.2-1.2,0.2-2.5,1.2-3.5c2-2,5.8-2.5,8.6-1.1
	c1.5,0.8,2.5,2,2.8,3.4c0.2,1.2-0.2,2.5-1.2,3.5C35.4,84.8,33.5,85.4,31.6,85.5L31.6,85.5z M31.6,77.9c-1.4,0-2.8,0.4-3.7,1.3
	c-0.5,0.5-0.8,1.1-0.7,1.7c0.1,0.7,0.7,1.4,1.7,1.9c2,1,4.9,0.7,6.3-0.7l0,0c0.5-0.5,0.8-1.1,0.7-1.7c-0.1-0.7-0.7-1.4-1.7-1.9
	C33.5,78.1,32.5,77.9,31.6,77.9L31.6,77.9z"/>
<g>
	<path class="st1" d="M66.5,24.5c-0.4,0-0.7-0.1-1.1-0.2c-0.8-0.3-1.4-0.9-1.8-1.6s-0.4-1.6-0.1-2.4c0.3-0.8,0.9-1.4,1.6-1.8
		s1.6-0.4,2.4-0.1c0.8,0.3,1.4,0.9,1.8,1.6c0.7,1.6,0,3.4-1.5,4.2C67.4,24.4,67,24.5,66.5,24.5L66.5,24.5z M66.5,20.2
		c-0.2,0-0.3,0-0.5,0.1c-0.3,0.1-0.5,0.4-0.6,0.6c-0.1,0.3-0.1,0.6,0,0.9c0.1,0.3,0.4,0.5,0.6,0.6c0.3,0.1,0.6,0.1,0.9,0
		c0.6-0.3,0.8-1,0.5-1.5c-0.1-0.3-0.4-0.5-0.6-0.6C66.8,20.2,66.6,20.2,66.5,20.2L66.5,20.2z"/>
	<g>
		<path class="st1" d="M10.4,66.7c-1.3,0-2.1-0.4-2.5-1.1c-0.6-1.2,0.6-2.7,1-3.2l0,0c13.6-15.8,32.8-28,33-28.1
			c5.4-3.4,11-6.9,16.7-10.6l1.9-1.2l-0.4,2.2c-0.3,1.5-0.4,4.5,1.4,7.1c0.5,0.8,1.2,1.5,2,2.1l1.3,1l-1.4,0.7
			c-5.8,3-11.7,6.2-17.4,9.4c-11.7,6.6-23.3,13.9-34.4,21.5l-0.2,0.2l-0.3,0C11,66.7,10.7,66.7,10.4,66.7L10.4,66.7z M9.8,64.7
			c0.2,0,0.5,0.1,1,0c11.1-7.6,22.6-14.8,34.3-21.4c5.3-3,10.7-5.9,16.1-8.8c-0.5-0.5-0.9-1-1.3-1.5c-1.5-2.2-1.9-4.6-1.9-6.4
			c-5.1,3.3-10.1,6.5-15,9.5c-0.2,0.1-19.2,12.1-32.5,27.7C10.1,64.2,9.9,64.5,9.8,64.7L9.8,64.7z"/>
		<path class="st1" d="M69.4,37.8c-3.8,0-7.5-1.8-9.5-4.8l0,0c-1.6-2.3-2.1-5.2-1.7-8.5c0.7-4.9,4-10,8.8-13.6
			C71.7,7.4,77,6,82.1,6.8c5.7,0.9,9.7,4.6,12.1,7.5l2,2.4l-3-0.8c-4.9-1.4-8.3-1.2-9.9,0.4c-1.2,1.2-1.1,2.8-1,5.1
			c0.1,2.5,0.3,5.6-1.5,9c-0.4,0.7-3.8,6.9-10.4,7.4C70,37.8,69.7,37.9,69.4,37.8L69.4,37.8z M61.5,31.9c2.1,3,5.8,4.2,8.6,3.9
			c5.5-0.4,8.5-5.8,8.8-6.4c1.5-2.9,1.4-5.6,1.3-8c-0.1-2.5-0.2-4.8,1.6-6.6c1.8-1.8,4.6-2.3,8.6-1.6c-2.1-2-5-3.8-8.7-4.5
			c-4.5-0.8-9.3,0.6-13.6,3.7c-4.3,3.2-7.4,7.9-8,12.2C60,25.8,59.6,29,61.5,31.9L61.5,31.9L61.5,31.9z"/>
	</g>
</g>
<path class="st1" d="M83.1,78.6c-1,0-3.7-0.2-5.8-2.4c-2.5-2.6-2.1-6-2-7.5c0.3-2.9,1.5-4.8,2.5-6c1.7-1.9,4.1-3.3,5.4-3.3
	c0,0,0,0,0,0c0.5,0,0.8,0.3,1,0.5c0.6,0.8,0,1.5-0.4,1.9c-0.4,0.5-1,1.2-1.2,2.3c-0.3,1.3,0,2.8,0.6,3.2c0.2,0.1,0.5,0,1.1-0.3
	c0.7-0.3,1.7-0.8,2.9-0.4c2.3,0.7,3.6,3.7,3.3,6.1l0,0c-0.4,3.4-3.8,5.7-7,6C83.4,78.6,83.3,78.6,83.1,78.6L83.1,78.6z M81,62.5
	c-0.6,0.4-1.2,0.9-1.7,1.5c-0.8,0.9-1.8,2.5-2,4.9c-0.1,1.4-0.4,4,1.4,5.9c1.9,1.9,4.5,1.8,4.6,1.8c2.3-0.2,4.9-1.8,5.1-4.2
	c0.2-1.7-0.7-3.6-1.9-3.9c-0.4-0.1-0.9,0-1.5,0.3c-0.7,0.3-1.7,0.8-2.8,0.2c-1.7-0.8-2.1-3.4-1.7-5.3C80.7,63.3,80.9,62.9,81,62.5
	L81,62.5z"/>
<path class="st1" d="M51.6,110c-3.3,0-6.5-0.2-9.7-0.7c-5.9-0.8-14-1.9-20.4-6.9c-1.6-1.2-5.5-4.8-7-10.1c-0.1-0.3-2-7.5,2.8-14.4
	c9.4-13.6,36.2-14.8,41.5-15c4.1-0.1,10.4,0.1,17.6,1.6c0.3-0.7,0.8-1.3,1.2-1.8c1.7-1.9,4.1-3.3,5.4-3.3c0,0,0,0,0,0
	c0.5,0,0.8,0.3,1,0.5c0.6,0.8,0,1.5-0.4,1.9c-0.4,0.5-1,1.2-1.2,2.3c-0.1,0.6-0.1,1.4,0,2c0.7,0.2,1.4,0.4,2.2,0.7
	c0.6-0.2,1.5-0.5,2.4-0.2c1,0.3,1.8,1,2.4,2.1l0.1,0c0.3,0.1,0.7,0.3,1,0.4c5.2,2.3,9.8,5.3,13.7,8.8c1.9,1.4,3.1,3.1,3.2,4.9
	c0.1,1.4-0.4,2.7-1.5,3.6c-1.8,1.6-4.2,1.9-5.5,1.9c-5.7,0.1-10.1-0.8-14.4-1.7c-3.9-0.8-7.6-1.6-12.1-1.6c-6-0.1-8.7,1.2-9.6,1.6
	c-4.4,2-8.3,6.1-7.7,7.9c0.3,1.1,1.2,3.5,8.6,3.6c4.3,0,7.8,2.3,7.9,5.1c0.1,1.9-1.5,3.7-4,4.7L69,108C63.3,109.4,57.4,110,51.6,110
	L51.6,110z M60.6,65c-0.6,0-1.1,0-1.6,0c-3.1,0.1-30.9,1.1-39.9,14.1c-4.3,6.2-2.6,12.5-2.5,12.7c1.4,4.9,5.1,8.2,6.3,9.1
	c5.9,4.6,13.7,5.7,19.4,6.5c8.5,1.2,17.6,0.7,26.4-1.3c1.6-0.7,2.7-1.8,2.6-2.8c-0.1-1.5-2.5-3.2-5.9-3.2c-7.9-0.1-9.7-2.7-10.5-4.9
	c-1.2-3.6,4.4-8.3,8.8-10.3c1-0.5,4.1-1.8,10.5-1.8c4.7,0.1,8.7,0.9,12.5,1.7c4.2,0.9,8.5,1.8,14,1.7c0.8,0,2.9-0.2,4.2-1.4
	c0.6-0.6,0.9-1.2,0.8-2c-0.1-1.2-0.9-2.4-2.4-3.4l-0.1-0.1c-3.7-3.4-8.2-6.2-13.2-8.5c-0.3-0.2-0.7-0.3-1-0.4l-0.7-0.3l-0.2-0.3
	c-0.4-0.7-0.9-1.2-1.4-1.4c-0.4-0.1-0.9,0-1.4,0.3L84.8,69l-0.4-0.1c-1-0.3-1.9-0.6-3-0.9L81,67.8l-0.2-0.5c-0.4-1-0.5-2.4-0.2-3.6
	c0.1-0.4,0.2-0.8,0.4-1.2c-0.6,0.4-1.2,0.9-1.7,1.5c-0.5,0.6-0.9,1.3-1.3,2.1l-0.3,0.8l-0.8-0.2C70.4,65.4,64.7,65,60.6,65L60.6,65z
	"/>
</svg>
