<?xml version="1.0" encoding="utf-8"?>
<!-- Generator: Adobe Illustrator 27.2.0, SVG Export Plug-In . SVG Version: 6.00 Build 0)  -->
<svg version="1.1" id="Warstwa_2_00000140703562626139703930000012399762319823947672_"
	 xmlns="http://www.w3.org/2000/svg" xmlns:xlink="http://www.w3.org/1999/xlink" x="0px" y="0px" viewBox="0 0 110 110"
	 style="enable-background:new 0 0 110 110;" xml:space="preserve">
<style type="text/css">
	.st0{opacity:0.22;fill:#2986FF;enable-background:new    ;}
	.st1{fill:url(#SVGID_1_);}
	.st2{fill:url(#SVGID_00000111149471416716349620000012367765018085553818_);}
	.st3{fill:url(#SVGID_00000176013748634290319370000011085644343856285832_);}
	.st4{fill:url(#SVGID_00000155110921401267352020000015198430419343147399_);}
	.st5{fill:url(#SVGID_00000052069391227503713090000006034750153053615234_);}
	.st6{fill:url(#SVGID_00000029725961794935467550000015629250624393842856_);}
	.st7{fill:url(#SVGID_00000133526739493999422610000005608962908087452573_);}
	.st8{fill:url(#SVGID_00000158750057368442367800000016190331568651547786_);}
	.st9{fill:url(#SVGID_00000124847159999847689380000011988998170174442406_);}
	.st10{fill:url(#SVGID_00000120529781218334389810000000059233953522053777_);}
	.st11{fill:url(#SVGID_00000121990788637685605560000012739187183994525102_);}
	.st12{fill:url(#SVGID_00000145049209645933749140000005630297607912863399_);}
	.st13{fill:url(#SVGID_00000158735333582573210260000005835967435063267227_);}
	.st14{fill:url(#SVGID_00000088097985847647972550000006575937439419332781_);}
	.st15{fill:url(#SVGID_00000051348358833799252380000006454019088655330451_);}
	.st16{fill:url(#SVGID_00000134228903051156226530000017952701416901405103_);}
	.st17{fill:url(#SVGID_00000070076975027567537340000015031944400213680319_);}
	.st18{fill:url(#SVGID_00000159450847317456802000000007892022301649855160_);}
</style>
<circle class="st0" cx="55" cy="55.9" r="53.1"/>
<g>
	<linearGradient id="SVGID_1_" gradientUnits="userSpaceOnUse" x1="48.6" y1="-0.3913" x2="48.6" y2="109.5659">
		<stop  offset="5.412371e-02" style="stop-color:#1F2C5E"/>
		<stop  offset="0.5258" style="stop-color:#2986FF"/>
		<stop  offset="1" style="stop-color:#2BD1E2"/>
	</linearGradient>
	<path class="st1" d="M48.6,79.6c-1.5,0-2.9-0.3-4.2-1c-1.8-0.9-3-2.3-3.3-4c-0.2-1.4,0.3-2.9,1.4-4c2.4-2.4,6.9-3,10.3-1.3
		c1.8,0.9,3,2.3,3.3,4c0.2,1.4-0.3,2.9-1.4,4C53.2,78.8,50.9,79.6,48.6,79.6L48.6,79.6z M48.6,70.4c-1.8,0-3.6,0.6-4.7,1.7
		c-0.7,0.7-1,1.5-0.9,2.3c0.2,1,1,1.9,2.2,2.5c2.6,1.3,6.2,0.8,8-0.9l0,0c0.7-0.7,1-1.5,0.9-2.3c-0.2-1-1-1.9-2.2-2.5
		C50.9,70.7,49.8,70.4,48.6,70.4z"/>
	
		<linearGradient id="SVGID_00000121973075184120189120000006919540963053939128_" gradientUnits="userSpaceOnUse" x1="48.5999" y1="-0.3913" x2="48.5999" y2="109.5659">
		<stop  offset="5.412371e-02" style="stop-color:#1F2C5E"/>
		<stop  offset="0.5258" style="stop-color:#2986FF"/>
		<stop  offset="1" style="stop-color:#2BD1E2"/>
	</linearGradient>
	<path style="fill:url(#SVGID_00000121973075184120189120000006919540963053939128_);" d="M48.6,80.1c-1.7,0-3.1-0.3-4.4-1.1
		c-2-1-3.2-2.5-3.6-4.4c-0.2-1.6,0.3-3.2,1.5-4.4c2.6-2.6,7.3-3.2,10.9-1.4c2,1,3.2,2.5,3.6,4.4c0.2,1.6-0.3,3.2-1.5,4.4
		C53.5,79.2,51.1,80.1,48.6,80.1z M48.6,68.8c-2.2,0-4.3,0.7-5.7,2.1c-1,1-1.4,2.3-1.3,3.6c0.3,1.5,1.3,2.8,3,3.6
		c1.2,0.6,2.5,0.9,4,0.9c2.2,0,4.4-0.8,5.7-2.2c1-1,1.4-2.3,1.3-3.6c-0.3-1.5-1.3-2.8-3-3.6C51.3,69.1,49.9,68.8,48.6,68.8z
		 M48.5,78.1c-1.2,0-2.5-0.3-3.5-0.8c-1.3-0.7-2.2-1.7-2.5-2.8c-0.1-1,0.2-1.9,1-2.8c1.2-1.2,3-1.8,5.1-1.8c1.2,0,2.4,0.3,3.5,0.9
		c1.3,0.7,2.2,1.7,2.5,2.8c0.1,1-0.2,1.9-1,2.8C52.3,77.5,50.4,78.1,48.5,78.1z M48.6,70.9c-1.7,0-3.4,0.6-4.3,1.6
		c-0.6,0.6-0.8,1.2-0.8,1.9c0.2,0.8,0.9,1.6,1.9,2.1c2.3,1.2,5.7,0.8,7.4-0.8c0.6-0.6,0.8-1.2,0.7-1.9c-0.2-0.8-0.9-1.6-1.9-2.1
		C50.7,71.2,49.6,70.9,48.6,70.9z"/>
</g>
<g>
	
		<linearGradient id="SVGID_00000050629947777043285370000009566127284483136131_" gradientUnits="userSpaceOnUse" x1="65.8" y1="-0.3913" x2="65.8" y2="109.5659">
		<stop  offset="5.412371e-02" style="stop-color:#1F2C5E"/>
		<stop  offset="0.5258" style="stop-color:#2986FF"/>
		<stop  offset="1" style="stop-color:#2BD1E2"/>
	</linearGradient>
	<path style="fill:url(#SVGID_00000050629947777043285370000009566127284483136131_);" d="M65.8,74.3c-1.1,0-2.2-0.2-3.2-0.7
		c-1.4-0.6-2.3-1.6-2.5-2.8c-0.2-1,0.2-2,1.1-2.8c1.8-1.7,5.3-2,7.8-0.9c1.4,0.6,2.3,1.6,2.5,2.8c0.2,1-0.2,2-1.1,2.8
		C69.3,73.8,67.5,74.3,65.8,74.3L65.8,74.3z M65.8,67.9c-1.4,0-2.7,0.4-3.6,1.1c-0.5,0.5-0.8,1-0.7,1.6c0.1,0.7,0.7,1.3,1.7,1.7
		c1.9,0.9,4.7,0.6,6.1-0.6l0,0c0.5-0.5,0.8-1,0.7-1.6c-0.1-0.7-0.7-1.3-1.7-1.7C67.6,68.1,66.7,67.9,65.8,67.9z"/>
	
		<linearGradient id="SVGID_00000171683945794415462530000004410729031962604185_" gradientUnits="userSpaceOnUse" x1="65.8" y1="-0.3913" x2="65.8" y2="109.5659">
		<stop  offset="5.412371e-02" style="stop-color:#1F2C5E"/>
		<stop  offset="0.5258" style="stop-color:#2986FF"/>
		<stop  offset="1" style="stop-color:#2BD1E2"/>
	</linearGradient>
	<path style="fill:url(#SVGID_00000171683945794415462530000004410729031962604185_);" d="M65.8,74.8c-1.3,0-2.4-0.3-3.4-0.8
		c-1.5-0.7-2.5-1.8-2.8-3.2c-0.2-1.1,0.2-2.3,1.3-3.3c1.9-1.8,5.5-2.2,8.3-1c1.6,0.7,2.6,1.8,2.8,3.2c0.2,1.1-0.2,2.3-1.3,3.3
		C69.7,74.1,67.8,74.8,65.8,74.8z M65.8,67c-1.6,0-3.2,0.5-4.2,1.4c-0.8,0.7-1.1,1.5-1,2.3c0.2,1,1,1.9,2.2,2.4
		c0.9,0.4,1.9,0.7,3,0.7c1.7,0,3.3-0.5,4.2-1.5c0.8-0.7,1.1-1.5,1-2.3c-0.2-1-1-1.9-2.2-2.4C67.9,67.1,66.8,67,65.8,67z M65.7,73.3
		c-1,0-1.9-0.2-2.7-0.6c-1.1-0.5-1.9-1.2-2-2.1c-0.2-0.9,0.4-1.6,0.8-2c1-0.8,2.5-1.2,4-1.2c0.9,0,1.9,0.2,2.7,0.5
		c1.2,0.5,1.9,1.2,2,2.1c0.2,0.9-0.4,1.6-0.8,2C68.7,72.9,67.2,73.3,65.7,73.3z M65.8,68.4c-1.3,0-2.5,0.4-3.3,1
		c-0.4,0.4-0.6,0.8-0.5,1.1c0.1,0.5,0.6,1,1.4,1.3c1.7,0.8,4.3,0.6,5.6-0.5c0.4-0.4,0.6-0.8,0.5-1.1c-0.1-0.5-0.6-1-1.4-1.3
		C67.4,68.6,66.6,68.4,65.8,68.4z"/>
</g>
<g>
	
		<linearGradient id="SVGID_00000117677728388663688460000001826314037312357283_" gradientUnits="userSpaceOnUse" x1="29.8" y1="-0.3913" x2="29.8" y2="109.5659">
		<stop  offset="5.412371e-02" style="stop-color:#1F2C5E"/>
		<stop  offset="0.5258" style="stop-color:#2986FF"/>
		<stop  offset="1" style="stop-color:#2BD1E2"/>
	</linearGradient>
	<path style="fill:url(#SVGID_00000117677728388663688460000001826314037312357283_);" d="M29.8,94.9c-1,0-1.9-0.2-2.8-0.6
		c-1.2-0.6-2-1.6-2.2-2.7c-0.2-1,0.2-2,1-2.8c1.6-1.6,4.6-2,6.8-0.9c1.2,0.6,2,1.6,2.2,2.7c0.2,1-0.2,2-1,2.8l0,0
		C32.8,94.4,31.3,94.9,29.8,94.9L29.8,94.9z M29.8,89.2c-1,0-2,0.3-2.6,0.9c-0.2,0.2-0.5,0.6-0.4,1.1s0.5,0.9,1.1,1.3
		c1.5,0.7,3.5,0.5,4.5-0.5l0,0c0.2-0.2,0.5-0.6,0.4-1.1s-0.5-0.9-1.1-1.3C31.1,89.3,30.4,89.2,29.8,89.2z"/>
	
		<linearGradient id="SVGID_00000010991851154758059680000016476549434079302581_" gradientUnits="userSpaceOnUse" x1="29.8" y1="-0.3913" x2="29.8" y2="109.5659">
		<stop  offset="5.412371e-02" style="stop-color:#1F2C5E"/>
		<stop  offset="0.5258" style="stop-color:#2986FF"/>
		<stop  offset="1" style="stop-color:#2BD1E2"/>
	</linearGradient>
	<path style="fill:url(#SVGID_00000010991851154758059680000016476549434079302581_);" d="M29.8,95.4c-1,0-2-0.2-3-0.6
		c-1.4-0.7-2.3-1.8-2.5-3.1c-0.2-1.1,0.2-2.3,1.1-3.2c1.8-1.8,5-2.2,7.4-1c1.3,0.7,2.2,1.8,2.5,3.1c0.2,1.1-0.2,2.3-1.1,3.2
		C33.1,94.8,31.5,95.4,29.8,95.4z M29.9,87.8c-1.4,0-2.8,0.5-3.7,1.4c-0.7,0.7-1,1.5-0.9,2.3c0.2,1,0.9,1.8,1.9,2.4
		c0.8,0.4,1.7,0.5,2.6,0.5c1.5,0,2.8-0.5,3.6-1.4c0.7-0.7,1-1.6,0.9-2.3c-0.2-1-0.9-1.8-1.9-2.4C31.6,88,30.7,87.8,29.9,87.8z
		 M29.8,93.4c-0.7,0-1.5-0.1-2.1-0.5c-0.6-0.4-1.2-0.9-1.4-1.7c-0.1-0.5,0.1-1.1,0.5-1.6c0.7-0.7,1.7-1,3-1c0.6,0,1.4,0.1,2.1,0.5
		c0.6,0.4,1.2,0.9,1.4,1.7c0.1,0.5-0.1,1.1-0.5,1.6C32.1,93,31,93.4,29.8,93.4z M29.8,89.7c-0.9,0-1.8,0.3-2.2,0.8
		c-0.1,0.1-0.3,0.4-0.3,0.6c0.1,0.3,0.3,0.6,0.9,1c1.3,0.6,3,0.4,3.9-0.4c0.1-0.1,0.3-0.4,0.3-0.6c-0.1-0.3-0.3-0.6-0.9-1
		C30.9,89.8,30.2,89.7,29.8,89.7z"/>
</g>
<g>
	
		<linearGradient id="SVGID_00000160911971042745291780000007618381680177263792_" gradientUnits="userSpaceOnUse" x1="33.5" y1="-0.3913" x2="33.5" y2="109.5659">
		<stop  offset="5.412371e-02" style="stop-color:#1F2C5E"/>
		<stop  offset="0.5258" style="stop-color:#2986FF"/>
		<stop  offset="1" style="stop-color:#2BD1E2"/>
	</linearGradient>
	<path style="fill:url(#SVGID_00000160911971042745291780000007618381680177263792_);" d="M33.5,84.5c-1.2,0-2.5-0.3-3.5-0.8
		c-1.5-0.8-2.5-2-2.8-3.4c-0.2-1.2,0.2-2.5,1.2-3.5c2-2,5.8-2.5,8.6-1.1c1.5,0.8,2.5,2,2.8,3.4c0.2,1.2-0.2,2.5-1.2,3.5
		C37.3,83.8,35.4,84.4,33.5,84.5L33.5,84.5z M33.5,76.9c-1.4,0-2.8,0.4-3.7,1.3c-0.5,0.5-0.8,1.1-0.7,1.7c0.1,0.7,0.7,1.4,1.7,1.9
		c2,1,4.9,0.7,6.3-0.7l0,0c0.5-0.5,0.8-1.1,0.7-1.7c-0.1-0.7-0.7-1.4-1.7-1.9C35.4,77.1,34.4,76.9,33.5,76.9L33.5,76.9z"/>
	
		<linearGradient id="SVGID_00000082329099070231124610000013075603816507091377_" gradientUnits="userSpaceOnUse" x1="33.5" y1="-0.3913" x2="33.5" y2="109.5659">
		<stop  offset="5.412371e-02" style="stop-color:#1F2C5E"/>
		<stop  offset="0.5258" style="stop-color:#2986FF"/>
		<stop  offset="1" style="stop-color:#2BD1E2"/>
	</linearGradient>
	<path style="fill:url(#SVGID_00000082329099070231124610000013075603816507091377_);" d="M33.5,85L33.5,85c-1.3,0-2.7-0.3-3.7-0.9
		c-1.7-0.9-2.7-2.2-3.1-3.7c-0.2-1.4,0.2-2.9,1.3-4c2.2-2.2,6.2-2.7,9.2-1.2c1.7,0.9,2.7,2.2,3.1,3.7c0.2,1.4-0.2,2.9-1.3,4
		C37.6,84.2,35.7,84.9,33.5,85L33.5,85z M33.5,75.4c-1.8,0-3.6,0.6-4.8,1.7c-0.9,0.9-1.2,2-1.1,3.1c0.3,1.2,1.2,2.3,2.5,3
		c0.9,0.5,2.1,0.7,3.3,0.7c2-0.1,3.7-0.7,4.8-1.8c0.8-0.8,1.2-2,1-3.1c-0.3-1.2-1.2-2.3-2.5-3C35.8,75.6,34.6,75.4,33.5,75.4z
		 M33.4,82.9c-1,0-2-0.2-2.9-0.6c-1.1-0.6-1.8-1.4-2-2.3c-0.1-0.7,0.2-1.5,0.8-2.1c0.9-0.9,2.4-1.4,4.1-1.4c1.1,0,2.1,0.2,2.8,0.7
		c1.1,0.5,1.8,1.4,1.9,2.3c0.1,0.7-0.2,1.5-0.8,2.1C36.5,82.4,35,82.9,33.4,82.9z M33.5,77.4c-1.4,0-2.6,0.4-3.3,1.2
		c-0.2,0.2-0.6,0.7-0.6,1.3c0.1,0.6,0.6,1.1,1.4,1.5c1.8,0.9,4.5,0.6,5.7-0.6c0.2-0.2,0.6-0.7,0.6-1.3c-0.1-0.6-0.6-1.1-1.4-1.5
		C35.3,77.6,34.4,77.4,33.5,77.4z"/>
</g>
<g>
	<g>
		
			<linearGradient id="SVGID_00000014606173045627552990000015329553815840118946_" gradientUnits="userSpaceOnUse" x1="58.9819" y1="-0.3913" x2="58.9819" y2="109.5659">
			<stop  offset="5.412371e-02" style="stop-color:#1F2C5E"/>
			<stop  offset="0.5258" style="stop-color:#2986FF"/>
			<stop  offset="1" style="stop-color:#2BD1E2"/>
		</linearGradient>
		<path style="fill:url(#SVGID_00000014606173045627552990000015329553815840118946_);" d="M59.7,27.3c-0.4,0.1-0.7,0-1.1,0
			c-0.8-0.1-1.5-0.6-2.1-1.2c-0.5-0.6-0.7-1.5-0.6-2.3c0.1-0.8,0.6-1.5,1.2-2.1c0.6-0.5,1.5-0.7,2.3-0.6s1.5,0.6,2.1,1.2
			c1,1.4,0.7,3.3-0.7,4.4C60.6,27,60.2,27.2,59.7,27.3L59.7,27.3z M58.9,23.1c-0.2,0-0.3,0.1-0.5,0.2c-0.3,0.2-0.4,0.5-0.5,0.7
			c0,0.3,0,0.6,0.2,0.9s0.5,0.4,0.7,0.5c0.3,0,0.6,0,0.9-0.2c0.5-0.4,0.6-1.1,0.2-1.6c-0.2-0.3-0.5-0.4-0.7-0.5
			C59.2,23,59,23.1,58.9,23.1L58.9,23.1z"/>
		
			<linearGradient id="SVGID_00000127735548389835234100000008456215348674078389_" gradientUnits="userSpaceOnUse" x1="58.9788" y1="-0.3913" x2="58.9788" y2="109.5659">
			<stop  offset="5.412371e-02" style="stop-color:#1F2C5E"/>
			<stop  offset="0.5258" style="stop-color:#2986FF"/>
			<stop  offset="1" style="stop-color:#2BD1E2"/>
		</linearGradient>
		<path style="fill:url(#SVGID_00000127735548389835234100000008456215348674078389_);" d="M59.3,27.8c-0.1,0-0.3,0-0.4,0
			c-0.1,0-0.2,0-0.3,0c-0.9-0.1-1.7-0.5-2.5-1.3c-0.6-0.7-0.9-1.7-0.7-2.7c0.1-0.8,0.5-1.6,1.3-2.4c0.7-0.6,1.7-0.9,2.7-0.7
			c0.8,0.1,1.6,0.5,2.4,1.3c1.2,1.7,0.9,3.8-0.7,5.1c-0.3,0.4-0.7,0.6-1.4,0.7C59.6,27.8,59.5,27.8,59.3,27.8z M58.7,26.8
			c0.1,0,0.2,0,0.3,0c0.2,0,0.4,0,0.5,0l0,0c0.4-0.1,0.7-0.2,0.8-0.4l0.1-0.1c1.2-0.9,1.4-2.5,0.6-3.7c-0.6-0.6-1.2-0.9-1.8-1
			c-0.7-0.1-1.5,0.1-1.9,0.5c-0.6,0.6-1,1.2-1,1.8c-0.1,0.7,0.1,1.5,0.5,1.9C57.5,26.4,58.1,26.7,58.7,26.8
			C58.7,26.8,58.7,26.8,58.7,26.8z M58.8,25.9h-0.1l-0.1-0.1c-0.3-0.1-0.6-0.3-0.9-0.7c-0.3-0.4-0.3-0.8-0.3-1.2v-0.1l0.1-0.1
			c0.1-0.3,0.3-0.6,0.7-0.9l0.2-0.1c0.1-0.1,0.3-0.2,0.6-0.2c0.2,0,0.4-0.1,0.6,0.1l0,0c0.3,0.1,0.6,0.3,0.8,0.6
			c0.5,0.7,0.4,1.7-0.3,2.3C59.6,25.9,59.1,25.9,58.8,25.9z M58.4,24.1c0,0.2,0,0.4,0.1,0.5c0.1,0.1,0.2,0.2,0.4,0.3l0,0
			c0.2,0,0.4,0,0.5-0.1c0.3-0.2,0.3-0.6,0.1-0.9c-0.1-0.2-0.3-0.2-0.4-0.3l0,0c-0.1,0-0.1,0-0.2,0l0-0.1l0,0.1c0,0-0.1,0-0.1,0.1
			c-0.1,0-0.1,0.1-0.2,0.1C58.5,23.8,58.5,23.9,58.4,24.1L58.4,24.1z M58.9,23.5C58.9,23.5,58.9,23.5,58.9,23.5L58.9,23.5L58.9,23.5
			z"/>
	</g>
	<g>
		<g>
			
				<linearGradient id="SVGID_00000043441121602597471090000007081768877605350301_" gradientUnits="userSpaceOnUse" x1="34.8884" y1="-0.3913" x2="34.8884" y2="109.5659">
				<stop  offset="5.412371e-02" style="stop-color:#1F2C5E"/>
				<stop  offset="0.5258" style="stop-color:#2986FF"/>
				<stop  offset="1" style="stop-color:#2BD1E2"/>
			</linearGradient>
			<path style="fill:url(#SVGID_00000043441121602597471090000007081768877605350301_);" d="M12.8,79.5c-1.3,0.3-2.1,0-2.7-0.6
				c-0.8-1.1,0.1-2.8,0.4-3.3l0,0c10.3-18.1,26.8-33.8,27-33.9c4.6-4.4,9.5-8.9,14.3-13.6l1.6-1.5v2.2c0,1.5,0.5,4.5,2.7,6.7
				c0.6,0.7,1.5,1.2,2.4,1.7l1.5,0.7l-1.2,1c-5.1,4.1-10.3,8.3-15.3,12.6c-10.2,8.7-20.2,18.1-29.6,27.7l-0.2,0.2l-0.3,0.1
				C13.4,79.4,13.1,79.4,12.8,79.5L12.8,79.5z M11.8,77.7c0.2,0,0.5,0,1-0.2c9.4-9.6,19.3-18.9,29.5-27.6c4.6-4,9.4-7.8,14.1-11.7
				c-0.6-0.4-1.1-0.8-1.6-1.2c-1.8-2-2.7-4.2-3-6c-4.4,4.2-8.7,8.3-12.9,12.2c-0.2,0.1-16.5,15.6-26.6,33.4
				C12,77.1,11.9,77.4,11.8,77.7L11.8,77.7z"/>
			
				<linearGradient id="SVGID_00000000201635150055858480000005104496946750837896_" gradientUnits="userSpaceOnUse" x1="35.1101" y1="-0.3913" x2="35.1101" y2="109.5659">
				<stop  offset="5.412371e-02" style="stop-color:#1F2C5E"/>
				<stop  offset="0.5258" style="stop-color:#2986FF"/>
				<stop  offset="1" style="stop-color:#2BD1E2"/>
			</linearGradient>
			<path style="fill:url(#SVGID_00000000201635150055858480000005104496946750837896_);" d="M12.9,80.2V80c-1.3,0.3-2.4,0.1-3.2-0.7
				c-1-1.4,0-3.3,0.3-3.9c9.8-17.2,25.5-32.7,27.1-34l0,0c1.8-1.7,3.6-3.4,5.4-5.1c2.9-2.7,5.9-5.6,8.9-8.5l2.4-2.3v3.4
				c0,0.6,0.1,3.9,2.6,6.3c0.6,0.7,1.4,1.1,2.3,1.6l2.2,1l-1.8,1.5c-5.3,4.2-10.4,8.4-15.3,12.6c-10,8.5-19.9,17.8-29.6,27.7
				L14,79.8L12.9,80.2z M52.9,27.8l-0.8,0.7c-3,2.9-6,5.7-8.9,8.5c-1.8,1.7-3.6,3.4-5.4,5.1l-0.1,0.1c-0.1,0.1-16.5,15.6-26.8,33.7
				c-0.2,0.3-1.1,1.9-0.4,2.8c0.3,0.3,0.9,0.7,2.2,0.4c0.2-0.1,0.5-0.1,0.8-0.1l0.1-0.1c9.7-9.9,19.6-19.2,29.6-27.7
				c4.9-4.2,10.1-8.4,15.3-12.6l0.6-0.5l-0.8-0.4c-1-0.5-1.9-1.1-2.6-1.8c-2.7-2.7-2.8-6.3-2.8-7V27.8z M11.8,78.2h-0.7l0.2-0.7
				l0.5,0.2l-0.5-0.2c0.1-0.3,0.2-0.7,0.5-1.2C21.5,59.4,37,44.1,38.6,42.8l0,0c4.1-3.8,8.2-7.8,12.9-12.2l0.7-0.7l0.2,0.9
				c0.2,1.2,0.8,3.5,2.9,5.7c0.4,0.3,0.9,0.7,1.5,1.1l0.6,0.4l-0.5,0.4c-1.6,1.3-3.1,2.6-4.7,3.9c-3.1,2.5-6.3,5.2-9.4,7.8
				c-10,8.5-19.9,17.8-29.5,27.6L13,78C12.4,78.2,12,78.2,11.8,78.2z M51.5,32c-4.4,4.2-8.4,8-12.3,11.6l-0.1,0.1
				C39.1,43.7,22.8,59,12.7,76.8c0,0,0,0,0,0c9.5-9.7,19.4-18.9,29.2-27.3c3.1-2.7,6.3-5.3,9.4-7.8c1.4-1.1,2.8-2.3,4.2-3.5
				c-0.4-0.3-0.7-0.6-1.1-0.8C52.7,35.4,51.9,33.4,51.5,32z"/>
		</g>
		<g>
			
				<linearGradient id="SVGID_00000070119040083102234200000008975288234887646650_" gradientUnits="userSpaceOnUse" x1="69.4369" y1="-0.3913" x2="69.4369" y2="109.5659">
				<stop  offset="5.412371e-02" style="stop-color:#1F2C5E"/>
				<stop  offset="0.5258" style="stop-color:#2986FF"/>
				<stop  offset="1" style="stop-color:#2BD1E2"/>
			</linearGradient>
			<path style="fill:url(#SVGID_00000070119040083102234200000008975288234887646650_);" d="M65.1,39.8c-3.7,0.7-7.7-0.3-10.2-2.9
				l0,0c-2-1.9-3.1-4.7-3.3-8c-0.3-4.9,2-10.6,6-15c3.9-4.3,8.9-6.7,14-6.9c5.8-0.2,10.4,2.6,13.3,5l2.4,2l-3.1-0.2
				c-5.1-0.4-8.4,0.4-9.6,2.3c-0.9,1.4-0.5,3,0,5.2c0.6,2.4,1.4,5.4,0.3,9.1c-0.3,0.8-2.4,7.5-8.8,9.3
				C65.7,39.7,65.4,39.8,65.1,39.8L65.1,39.8z M56.2,35.5c2.6,2.5,6.5,3,9.2,2.2c5.3-1.5,7.2-7.3,7.4-8c0.9-3.1,0.3-5.8-0.3-8.1
				c-0.6-2.4-1.1-4.7,0.3-6.8s4.1-3.1,8.1-3.2c-2.4-1.6-5.6-2.8-9.4-2.7c-4.6,0.1-9,2.4-12.6,6.2c-3.6,4-5.7,9.2-5.5,13.5
				C53.6,29.8,53.8,33,56.2,35.5L56.2,35.5L56.2,35.5z"/>
			
				<linearGradient id="SVGID_00000176038630920071495530000008565793836796000146_" gradientUnits="userSpaceOnUse" x1="69.9362" y1="-0.3913" x2="69.9362" y2="109.5659">
				<stop  offset="5.412371e-02" style="stop-color:#1F2C5E"/>
				<stop  offset="0.5258" style="stop-color:#2986FF"/>
				<stop  offset="1" style="stop-color:#2BD1E2"/>
			</linearGradient>
			<path style="fill:url(#SVGID_00000176038630920071495530000008565793836796000146_);" d="M62.8,40.5c-3.2,0-6.2-1.2-8.2-3.3
				c-2-1.9-3.2-4.8-3.4-8.3c-0.3-5,2-10.9,6.1-15.4c3.9-4.3,9-6.9,14.4-7.1c4.7-0.2,9.4,1.6,13.6,5.1l3.6,3l-4.6-0.3
				c-4.9-0.4-8,0.3-9.1,2.1c-0.8,1.2-0.4,2.6,0,4.6l0.1,0.3c0.6,2.4,1.4,5.5,0.3,9.2l-0.1,0.2c-1.8,4.9-5,8.3-9.1,9.5l-0.1,0
				c-0.2,0-0.3,0-0.5,0c-0.2,0-0.3,0-0.5,0C64.3,40.4,63.5,40.5,62.8,40.5z M72.2,7.5c-0.2,0-0.4,0-0.6,0c-5,0.2-9.9,2.6-13.6,6.7
				c-3.9,4.3-6.2,9.9-5.9,14.6c0.2,3.2,1.3,5.9,3.1,7.7c2.3,2.4,6.1,3.5,9.8,2.8l0.1,0c0.1,0,0.2,0,0.4,0c0.2,0,0.4-0.1,0.6-0.1
				c3.7-1.1,6.7-4.2,8.3-8.8l0.1-0.2c1-3.4,0.3-6.3-0.3-8.6l-0.1-0.4c-0.5-2.2-0.9-3.9,0.1-5.4c1.3-2.1,4.7-2.9,10.1-2.5l1.6,0.1
				l-1.2-1C81.9,10.1,77.5,7.5,72.2,7.5z M62.9,38.5c-2.3,0-5-0.8-7-2.7l0,0c-2.2-2.3-2.7-5.3-2.9-6.7c0-0.2,0-0.3-0.1-0.4
				c-0.2-4.5,1.9-9.8,5.6-13.9c3.8-4,8.4-6.3,13-6.4c4.4-0.1,7.7,1.5,9.7,2.8l1.3,0.9l-1.6,0c-3.9,0.1-6.4,1.1-7.7,3
				c-1.2,1.9-0.9,3.8-0.2,6.4c0.7,2.5,1.2,5.2,0.3,8.4c-0.1,0.3-2,6.7-7.7,8.3C64.8,38.4,63.8,38.5,62.9,38.5z M56.6,35.1
				c2.5,2.4,6.3,2.8,8.7,2.1c5.2-1.5,7-7.4,7.1-7.7c0.8-2.9,0.3-5.5-0.3-7.8c-0.6-2.3-1.2-4.8,0.4-7.2c1.3-1.9,3.5-3,6.9-3.3
				c-1.9-1-4.5-1.9-7.7-1.8c-4.3,0.1-8.6,2.2-12.2,6c-3.5,3.9-5.6,8.9-5.4,13.1c0,0.1,0,0.2,0.1,0.4C54.2,30.4,54.5,33,56.6,35.1z"
				/>
		</g>
	</g>
</g>
<g>
	
		<linearGradient id="SVGID_00000005248517399738638220000010415359355749574838_" gradientUnits="userSpaceOnUse" x1="84.779" y1="-0.3913" x2="84.779" y2="109.5659">
		<stop  offset="5.412371e-02" style="stop-color:#1F2C5E"/>
		<stop  offset="0.5258" style="stop-color:#2986FF"/>
		<stop  offset="1" style="stop-color:#2BD1E2"/>
	</linearGradient>
	<path style="fill:url(#SVGID_00000005248517399738638220000010415359355749574838_);" d="M85,77.6c-1,0-3.7-0.2-5.8-2.4
		c-2.5-2.6-2.1-6-2-7.5c0.3-2.9,1.5-4.8,2.5-6c1.7-1.9,4.1-3.3,5.4-3.3l0,0c0.5,0,0.8,0.3,1,0.5c0.6,0.8,0,1.5-0.4,1.9
		c-0.4,0.5-1,1.2-1.2,2.3c-0.3,1.3,0,2.8,0.6,3.2c0.2,0.1,0.5,0,1.1-0.3c0.7-0.3,1.7-0.8,2.9-0.4c2.3,0.7,3.6,3.7,3.3,6.1l0,0
		c-0.4,3.4-3.8,5.7-7,6C85.3,77.6,85.2,77.6,85,77.6L85,77.6z M82.9,61.5c-0.6,0.4-1.2,0.9-1.7,1.5c-0.8,0.9-1.8,2.5-2,4.9
		c-0.1,1.4-0.4,4,1.4,5.9c1.9,1.9,4.5,1.8,4.6,1.8c2.3-0.2,4.9-1.8,5.1-4.2c0.2-1.7-0.7-3.6-1.9-3.9c-0.4-0.1-0.9,0-1.5,0.3
		c-0.7,0.3-1.7,0.8-2.8,0.2c-1.7-0.8-2.1-3.4-1.7-5.3C82.6,62.3,82.8,61.9,82.9,61.5L82.9,61.5z"/>
	
		<linearGradient id="SVGID_00000171718084395158763540000018101786172520755110_" gradientUnits="userSpaceOnUse" x1="84.7792" y1="-0.3913" x2="84.7792" y2="109.5659">
		<stop  offset="5.412371e-02" style="stop-color:#1F2C5E"/>
		<stop  offset="0.5258" style="stop-color:#2986FF"/>
		<stop  offset="1" style="stop-color:#2BD1E2"/>
	</linearGradient>
	<path style="fill:url(#SVGID_00000171718084395158763540000018101786172520755110_);" d="M85.2,78.2l-0.1-0.1c0,0-0.1,0-0.1,0
		c-1.1,0-4-0.2-6.2-2.6c-2.5-2.6-2.3-6-2.2-7.6l0-0.3c0.2-2.4,1.1-4.5,2.6-6.3c1.8-2,4.3-3.5,5.8-3.5c0.7,0,1.1,0.4,1.4,0.6
		c0.6,0.9,0.5,1.7-0.4,2.6c-0.4,0.5-0.9,1.1-1.1,2c-0.3,1.2,0,2.3,0.3,2.6c0.1,0,0.3-0.1,0.7-0.3l0.2-0.1c0.7-0.3,1.8-0.8,3.1-0.4
		c2.6,0.8,4,4.1,3.6,6.6c-0.4,3.8-4.2,6.1-7.4,6.4L85.2,78.2z M85.1,58.9c-1.1,0-3.3,1.3-5,3.1c-1.4,1.6-2.1,3.5-2.4,5.7l0,0.2
		c-0.1,1.6-0.3,4.6,1.9,6.9c1.9,2,4.4,2.2,5.4,2.2c0.2,0,0.3,0,0.5,0.1c2.8-0.3,6-2.4,6.4-5.5c0.3-2.1-0.9-4.9-3-5.6
		c-1-0.3-1.8,0-2.4,0.3l-0.1,0.1c-0.6,0.3-1.1,0.5-1.5,0.3c-0.9-0.6-1.2-2.4-0.9-3.8c0.2-1.1,0.8-1.9,1.2-2.4l0.1-0.1
		c0.6-0.6,0.6-0.9,0.4-1.2C85.5,59,85.4,58.9,85.1,58.9z M85.2,76.1c-0.7,0-3.1-0.1-4.9-1.9c-1.9-2-1.7-4.6-1.6-6.1l0-0.2
		c0.2-2.6,1.3-4.2,2.1-5.2c0.5-0.6,1.1-1.1,1.8-1.6l1.1-0.7l-0.3,1.3c-0.1,0.4-0.3,0.8-0.5,1.2c-0.4,1.8,0.1,4,1.4,4.7
		c0.8,0.5,1.6,0.1,2.3-0.2l0.1-0.1c0.7-0.3,1.3-0.5,1.8-0.3c1.4,0.4,2.5,2.5,2.3,4.4C90.6,74.1,87.8,75.9,85.2,76.1
		C85.2,76.1,85.2,76.1,85.2,76.1z M81.8,63c-0.1,0.1-0.2,0.2-0.2,0.3c-0.8,0.9-1.7,2.3-1.9,4.6l0,0.2c-0.1,1.4-0.3,3.7,1.3,5.3
		c1.6,1.6,3.8,1.7,4.2,1.6c2.1-0.2,4.4-1.6,4.6-3.7c0.2-1.5-0.6-3.1-1.5-3.4c-0.3-0.1-0.7,0-1.2,0.3L87,68.3
		c-0.7,0.3-1.9,0.8-3.1,0.1C82.1,67.6,81.5,65.1,81.8,63z"/>
</g>
<g>
	
		<linearGradient id="SVGID_00000034795192486894875930000014694390570084457917_" gradientUnits="userSpaceOnUse" x1="62.6293" y1="-0.3913" x2="62.6293" y2="109.5659">
		<stop  offset="5.412371e-02" style="stop-color:#1F2C5E"/>
		<stop  offset="0.5258" style="stop-color:#2986FF"/>
		<stop  offset="1" style="stop-color:#2BD1E2"/>
	</linearGradient>
	<path style="fill:url(#SVGID_00000034795192486894875930000014694390570084457917_);" d="M53.5,109c-3.3,0-6.5-0.2-9.7-0.7
		c-5.9-0.8-14-1.9-20.4-6.9c-1.6-1.2-5.5-4.8-7-10.1c-0.1-0.3-2-7.5,2.8-14.4c9.4-13.6,36.2-14.8,41.5-15c4.1-0.1,10.4,0.1,17.6,1.6
		c0.3-0.7,0.8-1.3,1.2-1.8c1.7-1.9,4.1-3.3,5.4-3.3l0,0c0.5,0,0.8,0.3,1,0.5c0.6,0.8,0,1.5-0.4,1.9c-0.4,0.5-1,1.2-1.2,2.3
		c-0.1,0.6-0.1,1.4,0,2c0.7,0.2,1.4,0.4,2.2,0.7c0.6-0.2,1.5-0.5,2.4-0.2c1,0.3,1.8,1,2.4,2.1h0.1c0.3,0.1,0.7,0.3,1,0.4
		c5.2,2.3,9.8,5.3,13.7,8.8c1.9,1.4,3.1,3.1,3.2,4.9c0.1,1.4-0.4,2.7-1.5,3.6c-1.8,1.6-4.2,1.9-5.5,1.9c-5.7,0.1-10.1-0.8-14.4-1.7
		C84,84.8,80.3,84,75.8,84c-6-0.1-8.7,1.2-9.6,1.6c-4.4,2-8.3,6.1-7.7,7.9c0.3,1.1,1.2,3.5,8.6,3.6c4.3,0,7.8,2.3,7.9,5.1
		c0.1,1.9-1.5,3.7-4,4.7l-0.1,0.1C65.2,108.4,59.3,109,53.5,109L53.5,109z M62.5,64c-0.6,0-1.1,0-1.6,0C57.8,64.1,30,65.1,21,78.1
		c-4.3,6.2-2.6,12.5-2.5,12.7c1.4,4.9,5.1,8.2,6.3,9.1c5.9,4.6,13.7,5.7,19.4,6.5c8.5,1.2,17.6,0.7,26.4-1.3
		c1.6-0.7,2.7-1.8,2.6-2.8c-0.1-1.5-2.5-3.2-5.9-3.2c-7.9-0.1-9.7-2.7-10.5-4.9c-1.2-3.6,4.4-8.3,8.8-10.3c1-0.5,4.1-1.8,10.5-1.8
		c4.7,0.1,8.7,0.9,12.5,1.7c4.2,0.9,8.5,1.8,14,1.7c0.8,0,2.9-0.2,4.2-1.4c0.6-0.6,0.9-1.2,0.8-2c-0.1-1.2-0.9-2.4-2.4-3.4l-0.1-0.1
		c-3.7-3.4-8.2-6.2-13.2-8.5c-0.3-0.2-0.7-0.3-1-0.4l-0.7-0.3L90,69.1c-0.4-0.7-0.9-1.2-1.4-1.4c-0.4-0.1-0.9,0-1.4,0.3h-0.5
		l-0.4-0.1c-1-0.3-1.9-0.6-3-0.9l-0.4-0.2l-0.2-0.5c-0.4-1-0.5-2.4-0.2-3.6c0.1-0.4,0.2-0.8,0.4-1.2c-0.6,0.4-1.2,0.9-1.7,1.5
		s-0.9,1.3-1.3,2.1l-0.3,0.8l-0.8-0.2C72.3,64.4,66.6,64,62.5,64L62.5,64z"/>
	
		<linearGradient id="SVGID_00000137822603213989757930000006203269204224450947_" gradientUnits="userSpaceOnUse" x1="62.6274" y1="-0.3913" x2="62.6274" y2="109.5659">
		<stop  offset="5.412371e-02" style="stop-color:#1F2C5E"/>
		<stop  offset="0.5258" style="stop-color:#2986FF"/>
		<stop  offset="1" style="stop-color:#2BD1E2"/>
	</linearGradient>
	<path style="fill:url(#SVGID_00000137822603213989757930000006203269204224450947_);" d="M53.5,109.5c-3.5,0-6.7-0.2-9.8-0.7
		c-6-0.8-14.1-1.9-20.6-7c-0.9-0.7-5.5-4.3-7.2-10.4c0,0-2.2-7.6,2.9-14.8C27.5,64,51,61.8,60.7,61.4c4-0.1,10.2,0.1,17.3,1.5
		c0.3-0.6,0.7-1,1-1.4l0.1-0.1c1.8-2,4.3-3.5,5.8-3.5c0.7,0,1.1,0.4,1.4,0.6c0.6,0.9,0.5,1.7-0.4,2.6c-0.4,0.5-0.9,1.1-1.1,2
		c-0.1,0.4-0.1,1,0,1.5c0.6,0.2,1.1,0.3,1.8,0.6c0.6-0.2,1.6-0.5,2.5-0.1c1,0.3,1.9,1,2.6,2.1c0.1,0.1,0.3,0.1,0.5,0.2
		c0.2,0.1,0.3,0.1,0.5,0.2c5.2,2.3,9.8,5.3,13.9,8.9c2.1,1.5,3.3,3.4,3.4,5.2c0.1,1.6-0.5,3-1.7,4c-2,1.8-4.7,2-5.8,2
		c-5.8,0.1-10.4-0.9-14.5-1.7L87.3,86c-3.7-0.8-7.3-1.5-11.5-1.5c-5.7-0.1-8.3,1.1-9.3,1.5l-0.1,0c-4.6,2.1-7.9,6-7.4,7.3
		c0.2,0.8,0.9,3.2,8.1,3.3c4.5,0,8.3,2.5,8.4,5.6c0.1,2.1-1.5,4-4.2,5.1l-0.1,0.1l-0.1,0C65.6,108.8,59.7,109.5,53.5,109.5z
		 M62.5,62.4c-0.6,0-1.2,0-1.8,0c-9.5,0.4-32.6,2.5-41.1,14.8c-4.7,6.8-2.8,13.9-2.7,14c1.7,5.8,6.3,9.5,6.8,9.9
		c6.3,4.9,14.3,6,20.2,6.8c3,0.5,6.1,0.7,9.6,0.7c6.1,0,11.8-0.7,17.1-2l0.2-0.1c2.3-0.9,3.8-2.6,3.7-4.2c-0.1-2.6-3.4-4.6-7.4-4.6
		c-7.2-0.1-8.6-2.3-9.1-4c-0.8-2.3,3.8-6.6,8-8.5l0.1,0c1-0.5,3.8-1.7,9.7-1.6c4.4,0,7.9,0.7,11.7,1.5l0.5,0.1
		c4,0.8,8.6,1.8,14.3,1.7c1,0,3.4-0.2,5.2-1.8c1-0.8,1.4-1.9,1.3-3.2c-0.1-1.6-1.1-3.2-3-4.5c-4-3.6-8.6-6.5-13.6-8.7
		c-0.1,0-0.3-0.1-0.5-0.2c-0.1-0.1-0.3-0.1-0.4-0.2H91l-0.1-0.3c-0.5-1-1.2-1.6-2.1-1.9c-0.8-0.3-1.5,0-2.1,0.2l-0.2,0.1l-0.2-0.1
		c-0.8-0.3-1.5-0.5-2.2-0.7l-0.3-0.1l-0.1-0.3c-0.1-0.7-0.1-1.5,0-2.2c0.2-1.2,0.8-1.9,1.2-2.5l0.1-0.1c0.6-0.6,0.6-0.9,0.4-1.2
		c-0.2-0.2-0.3-0.3-0.6-0.3c-1.1,0-3.4,1.3-5,3.1l-0.1,0.1c-0.4,0.5-0.8,1-1.1,1.6l-0.2,0.4L78.2,64C72,62.7,66.5,62.4,62.5,62.4z
		 M53.5,107.5c-3.2,0-6.4-0.2-9.4-0.6c-5.8-0.8-13.6-1.9-19.6-6.6c-0.5-0.4-4.9-3.8-6.5-9.4l0,0c0,0-2-6.5,2.6-13.1
		c8.8-12.7,35.1-14.1,40.3-14.3h1.6c3.6,0,9.3,0.3,16.4,1.7l0.4,0.1l0.1-0.4c0.5-1,0.9-1.7,1.4-2.2c0.5-0.6,1.1-1.1,1.8-1.6l1.6-1
		l-0.8,1.7c-0.2,0.4-0.3,0.7-0.4,1.1c-0.3,1.1-0.2,2.4,0.2,3.3l0.1,0.3l0.2,0.1c0.7,0.2,1.3,0.4,2,0.6l1.3,0.4h0.3
		c0.6-0.3,1.2-0.4,1.7-0.3c0.7,0.3,1.3,0.8,1.7,1.6l0.1,0.1l0.7,0.3c0.3,0.1,0.6,0.2,0.9,0.4c5.2,2.4,9.7,5.3,13.3,8.5l0.1,0.1
		c1.5,1,2.4,2.3,2.5,3.7c0.1,0.9-0.2,1.6-0.9,2.4c-1.6,1.5-4.1,1.5-4.6,1.5c-5.7,0.1-10.1-0.9-14.1-1.7c-4.1-0.9-7.9-1.6-12.4-1.7
		c-6.1,0-9.2,1.2-10.3,1.7c-4.2,1.9-9.6,6.4-8.5,9.7c0.8,2.2,2.6,4.5,10,4.6c3.7,0,6.3,1.9,6.4,3.7c0.1,1.2-1,2.5-2.9,3.3
		C65,106.9,59.2,107.5,53.5,107.5z M60.9,64.5c-5.1,0.2-31,1.6-39.5,13.9c-4.2,6-2.5,12.2-2.4,12.2c1.5,5.3,5.7,8.5,6.1,8.9
		c5.8,4.5,13.5,5.6,19.2,6.4c8.3,1.2,17.4,0.7,26.2-1.3c1.3-0.6,2.3-1.5,2.2-2.3c-0.1-1.2-2.2-2.8-5.4-2.8c-8.1-0.1-10.1-2.8-11-5.2
		c-1.3-4,4.6-8.9,9.1-10.9c1.4-0.7,4.6-1.8,10.7-1.8c4.6,0.1,8.4,0.8,12.6,1.7c3.9,0.8,8.3,1.8,13.9,1.7c0.3,0,2.5,0,3.9-1.3
		c0.5-0.5,0.7-1,0.6-1.6c-0.1-1.1-0.9-2.2-2.2-3l-0.2-0.2c-3.5-3.2-7.9-6-13.1-8.4c-0.3-0.2-0.5-0.2-0.8-0.3l-0.2-0.1l-0.9-0.4
		l-0.3-0.4c-0.4-0.6-0.8-1.1-1.2-1.2c-0.2,0-0.6,0-1,0.3l-0.1,0.1l-0.8,0l-0.4-0.1l-1-0.3c-0.6-0.2-1.3-0.4-2-0.6l-0.7-0.3l-0.3-0.7
		c-0.4-1-0.5-2.4-0.3-3.6c-0.1,0.1-0.2,0.3-0.4,0.4c-0.4,0.5-0.8,1.1-1.2,2l-0.4,1.2l-1.2-0.3c-7-1.4-12.6-1.7-16.2-1.7H60.9z"/>
</g>
</svg>
