<svg xmlns="http://www.w3.org/2000/svg" width="42.975" height="42.934" viewBox="0 0 42.975 42.934">
  <g id="Group_37" data-name="Group 37" transform="translate(-328.142 -2682.909)">
    <g id="Group_36" data-name="Group 36" transform="translate(328.142 2682.909)">
      <g id="pen">
        <path id="Path_966" data-name="Path 966" d="M38.376,2.6a2.049,2.049,0,0,0-2.9,0L33.69,4.388a6.15,6.15,0,0,0-7,1.2L4.955,27.326,16.548,38.919,38.284,17.182a6.15,6.15,0,0,0,1.2-7L41.274,8.4a2.049,2.049,0,0,0,0-2.9ZM29.629,20.041,16.548,33.122l-5.8-5.8L23.833,14.245Zm3.726-3.726,2.031-2.031a2.049,2.049,0,0,0,0-2.9l-2.9-2.9a2.049,2.049,0,0,0-2.9,0l-2.031,2.031Z" transform="translate(1.101 -2)" fill="#2986ff" fill-rule="evenodd"/>
        <path id="Path_967" data-name="Path 967" d="M2,31.112,6.348,15.172,17.94,26.765Z" transform="translate(-2 11.821)" fill="#2986ff"/>
      </g>
    </g>
  </g>
</svg>
