<?xml version="1.0" encoding="utf-8"?>
<!-- Generator: Adobe Illustrator 27.2.0, SVG Export Plug-In . SVG Version: 6.00 Build 0)  -->
<svg version="1.1" id="Warstwa_2_00000140703562626139703930000012399762319823947672_"
	 xmlns="http://www.w3.org/2000/svg" xmlns:xlink="http://www.w3.org/1999/xlink" x="0px" y="0px" viewBox="0 0 110 110"
	 style="enable-background:new 0 0 110 110;" xml:space="preserve">
<style type="text/css">
	.st0{opacity:0.22;fill:#2986FF;enable-background:new    ;}
	.st1{fill:#1F2C5E;stroke:#1F2C5E;stroke-miterlimit:10;}
</style>
<circle class="st0" cx="55" cy="55.9" r="53.1"/>
<path class="st1" d="M48.6,79.6c-1.5,0-2.9-0.3-4.2-1c-1.8-0.9-3-2.3-3.3-4c-0.2-1.4,0.3-2.9,1.4-4c2.4-2.4,6.9-3,10.3-1.3
	c1.8,0.9,3,2.3,3.3,4c0.2,1.4-0.3,2.9-1.4,4C53.2,78.8,50.9,79.6,48.6,79.6L48.6,79.6z M48.6,70.4c-1.8,0-3.6,0.6-4.7,1.7
	c-0.7,0.7-1,1.5-0.9,2.3c0.2,1,1,1.9,2.2,2.5c2.6,1.3,6.2,0.8,8-0.9l0,0c0.7-0.7,1-1.5,0.9-2.3c-0.2-1-1-1.9-2.2-2.5
	C50.9,70.7,49.8,70.4,48.6,70.4z"/>
<path class="st1" d="M65.8,74.3c-1.1,0-2.2-0.2-3.2-0.7c-1.4-0.6-2.3-1.6-2.5-2.8c-0.2-1,0.2-2,1.1-2.8c1.8-1.7,5.3-2,7.8-0.9
	c1.4,0.6,2.3,1.6,2.5,2.8c0.2,1-0.2,2-1.1,2.8C69.3,73.8,67.5,74.3,65.8,74.3L65.8,74.3z M65.8,67.9c-1.4,0-2.7,0.4-3.6,1.1
	c-0.5,0.5-0.8,1-0.7,1.6c0.1,0.7,0.7,1.3,1.7,1.7c1.9,0.9,4.7,0.6,6.1-0.6l0,0c0.5-0.5,0.8-1,0.7-1.6c-0.1-0.7-0.7-1.3-1.7-1.7
	C67.6,68.1,66.7,67.9,65.8,67.9z"/>
<path class="st1" d="M29.8,94.9c-1,0-1.9-0.2-2.8-0.6c-1.2-0.6-2-1.6-2.2-2.7c-0.2-1,0.2-2,1-2.8c1.6-1.6,4.6-2,6.8-0.9
	c1.2,0.6,2,1.6,2.2,2.7c0.2,1-0.2,2-1,2.8l0,0C32.8,94.4,31.3,94.9,29.8,94.9L29.8,94.9z M29.8,89.2c-1,0-2,0.3-2.6,0.9
	c-0.2,0.2-0.5,0.6-0.4,1.1s0.5,0.9,1.1,1.3c1.5,0.7,3.5,0.5,4.5-0.5l0,0c0.2-0.2,0.5-0.6,0.4-1.1c-0.1-0.5-0.5-0.9-1.1-1.3
	C31.1,89.3,30.4,89.2,29.8,89.2z"/>
<path class="st1" d="M33.5,84.5c-1.2,0-2.5-0.3-3.5-0.8c-1.5-0.8-2.5-2-2.8-3.4c-0.2-1.2,0.2-2.5,1.2-3.5c2-2,5.8-2.5,8.6-1.1
	c1.5,0.8,2.5,2,2.8,3.4c0.2,1.2-0.2,2.5-1.2,3.5C37.3,83.8,35.4,84.4,33.5,84.5L33.5,84.5z M33.5,76.9c-1.4,0-2.8,0.4-3.7,1.3
	c-0.5,0.5-0.8,1.1-0.7,1.7c0.1,0.7,0.7,1.4,1.7,1.9c2,1,4.9,0.7,6.3-0.7l0,0c0.5-0.5,0.8-1.1,0.7-1.7c-0.1-0.7-0.7-1.4-1.7-1.9
	C35.4,77.1,34.4,76.9,33.5,76.9L33.5,76.9z"/>
<g>
	<path class="st1" d="M68.4,23.5c-0.4,0-0.7-0.1-1.1-0.2c-0.8-0.3-1.4-0.9-1.8-1.6c-0.4-0.7-0.4-1.6-0.1-2.4
		c0.3-0.8,0.9-1.4,1.6-1.8s1.6-0.4,2.4-0.1s1.4,0.9,1.8,1.6c0.7,1.6,0,3.4-1.5,4.2C69.3,23.4,68.9,23.5,68.4,23.5L68.4,23.5z
		 M68.4,19.2c-0.2,0-0.3,0-0.5,0.1c-0.3,0.1-0.5,0.4-0.6,0.6c-0.1,0.3-0.1,0.6,0,0.9s0.4,0.5,0.6,0.6c0.3,0.1,0.6,0.1,0.9,0
		c0.6-0.3,0.8-1,0.5-1.5c-0.1-0.3-0.4-0.5-0.6-0.6C68.7,19.2,68.5,19.2,68.4,19.2L68.4,19.2z"/>
	<g>
		<path class="st1" d="M12.3,65.7c-1.3,0-2.1-0.4-2.5-1.1c-0.6-1.2,0.6-2.7,1-3.2l0,0c13.6-15.8,32.8-28,33-28.1
			c5.4-3.4,11-6.9,16.7-10.6l1.9-1.2L62,23.7c-0.3,1.5-0.4,4.5,1.4,7.1c0.5,0.8,1.2,1.5,2,2.1l1.3,1l-1.4,0.7
			c-5.8,3-11.7,6.2-17.4,9.4c-11.7,6.6-23.3,13.9-34.4,21.5l-0.2,0.2H13C12.9,65.7,12.6,65.7,12.3,65.7L12.3,65.7z M11.7,63.7
			c0.2,0,0.5,0.1,1,0C23.8,56.1,35.3,48.9,47,42.3c5.3-3,10.7-5.9,16.1-8.8c-0.5-0.5-0.9-1-1.3-1.5c-1.5-2.2-1.9-4.6-1.9-6.4
			c-5.1,3.3-10.1,6.5-15,9.5c-0.2,0.1-19.2,12.1-32.5,27.7C12,63.2,11.8,63.5,11.7,63.7L11.7,63.7z"/>
		<path class="st1" d="M71.3,36.8c-3.8,0-7.5-1.8-9.5-4.8l0,0c-1.6-2.3-2.1-5.2-1.7-8.5c0.7-4.9,4-10,8.8-13.6
			C73.6,6.4,78.9,5,84,5.8c5.7,0.9,9.7,4.6,12.1,7.5l2,2.4l-3-0.8c-4.9-1.4-8.3-1.2-9.9,0.4c-1.2,1.2-1.1,2.8-1,5.1
			c0.1,2.5,0.3,5.6-1.5,9c-0.4,0.7-3.8,6.9-10.4,7.4C71.9,36.8,71.6,36.9,71.3,36.8L71.3,36.8z M63.4,30.9c2.1,3,5.8,4.2,8.6,3.9
			c5.5-0.4,8.5-5.8,8.8-6.4c1.5-2.9,1.4-5.6,1.3-8c-0.1-2.5-0.2-4.8,1.6-6.6c1.8-1.8,4.6-2.3,8.6-1.6c-2.1-2-5-3.8-8.7-4.5
			c-4.5-0.8-9.3,0.6-13.6,3.7c-4.3,3.2-7.4,7.9-8,12.2C61.9,24.8,61.5,28,63.4,30.9L63.4,30.9L63.4,30.9z"/>
	</g>
</g>
<path class="st1" d="M85,77.6c-1,0-3.7-0.2-5.8-2.4c-2.5-2.6-2.1-6-2-7.5c0.3-2.9,1.5-4.8,2.5-6c1.7-1.9,4.1-3.3,5.4-3.3l0,0
	c0.5,0,0.8,0.3,1,0.5c0.6,0.8,0,1.5-0.4,1.9c-0.4,0.5-1,1.2-1.2,2.3c-0.3,1.3,0,2.8,0.6,3.2c0.2,0.1,0.5,0,1.1-0.3
	c0.7-0.3,1.7-0.8,2.9-0.4c2.3,0.7,3.6,3.7,3.3,6.1l0,0c-0.4,3.4-3.8,5.7-7,6C85.3,77.6,85.2,77.6,85,77.6L85,77.6z M82.9,61.5
	c-0.6,0.4-1.2,0.9-1.7,1.5c-0.8,0.9-1.8,2.5-2,4.9c-0.1,1.4-0.4,4,1.4,5.9c1.9,1.9,4.5,1.8,4.6,1.8c2.3-0.2,4.9-1.8,5.1-4.2
	c0.2-1.7-0.7-3.6-1.9-3.9c-0.4-0.1-0.9,0-1.5,0.3c-0.7,0.3-1.7,0.8-2.8,0.2c-1.7-0.8-2.1-3.4-1.7-5.3C82.6,62.3,82.8,61.9,82.9,61.5
	L82.9,61.5z"/>
<path class="st1" d="M53.5,109c-3.3,0-6.5-0.2-9.7-0.7c-5.9-0.8-14-1.9-20.4-6.9c-1.6-1.2-5.5-4.8-7-10.1c-0.1-0.3-2-7.5,2.8-14.4
	c9.4-13.6,36.2-14.8,41.5-15c4.1-0.1,10.4,0.1,17.6,1.6c0.3-0.7,0.8-1.3,1.2-1.8c1.7-1.9,4.1-3.3,5.4-3.3l0,0c0.5,0,0.8,0.3,1,0.5
	c0.6,0.8,0,1.5-0.4,1.9c-0.4,0.5-1,1.2-1.2,2.3c-0.1,0.6-0.1,1.4,0,2c0.7,0.2,1.4,0.4,2.2,0.7c0.6-0.2,1.5-0.5,2.4-0.2
	c1,0.3,1.8,1,2.4,2.1h0.1c0.3,0.1,0.7,0.3,1,0.4c5.2,2.3,9.8,5.3,13.7,8.8c1.9,1.4,3.1,3.1,3.2,4.9c0.1,1.4-0.4,2.7-1.5,3.6
	c-1.8,1.6-4.2,1.9-5.5,1.9c-5.7,0.1-10.1-0.8-14.4-1.7C84,84.8,80.3,84,75.8,84c-6-0.1-8.7,1.2-9.6,1.6c-4.4,2-8.3,6.1-7.7,7.9
	c0.3,1.1,1.2,3.5,8.6,3.6c4.3,0,7.8,2.3,7.9,5.1c0.1,1.9-1.5,3.7-4,4.7l-0.1,0.1C65.2,108.4,59.3,109,53.5,109L53.5,109z M62.5,64
	c-0.6,0-1.1,0-1.6,0C57.8,64.1,30,65.1,21,78.1c-4.3,6.2-2.6,12.5-2.5,12.7c1.4,4.9,5.1,8.2,6.3,9.1c5.9,4.6,13.7,5.7,19.4,6.5
	c8.5,1.2,17.6,0.7,26.4-1.3c1.6-0.7,2.7-1.8,2.6-2.8c-0.1-1.5-2.5-3.2-5.9-3.2c-7.9-0.1-9.7-2.7-10.5-4.9c-1.2-3.6,4.4-8.3,8.8-10.3
	c1-0.5,4.1-1.8,10.5-1.8c4.7,0.1,8.7,0.9,12.5,1.7c4.2,0.9,8.5,1.8,14,1.7c0.8,0,2.9-0.2,4.2-1.4c0.6-0.6,0.9-1.2,0.8-2
	c-0.1-1.2-0.9-2.4-2.4-3.4l-0.1-0.1c-3.7-3.4-8.2-6.2-13.2-8.5c-0.3-0.2-0.7-0.3-1-0.4l-0.7-0.3L90,69.1c-0.4-0.7-0.9-1.2-1.4-1.4
	c-0.4-0.1-0.9,0-1.4,0.3l-0.5,0l-0.4-0.1c-1-0.3-1.9-0.6-3-0.9l-0.4-0.2l-0.2-0.5c-0.4-1-0.5-2.4-0.2-3.6c0.1-0.4,0.2-0.8,0.4-1.2
	c-0.6,0.4-1.2,0.9-1.7,1.5c-0.5,0.6-0.9,1.3-1.3,2.1l-0.3,0.8l-0.8-0.2C72.3,64.4,66.6,64,62.5,64L62.5,64z"/>
</svg>
