<?xml version="1.0" encoding="UTF-8"?>
<svg id="Warstwa_2" data-name="Warstwa 2" xmlns="http://www.w3.org/2000/svg" viewBox="0 0 115.03 112.04">
  <defs>
    <style>
      .cls-1 {
        fill: #2986ff;
      }

      .cls-2 {
        fill: #e8f0fb;
        opacity: .45;
      }
    </style>
  </defs>
  <g id="Warstwa_1-2" data-name="Warstwa 1">
    <g>
      <circle class="cls-2" cx="61.9" cy="53.13" r="53.13"/>
      <path class="cls-1" d="m38.98,82.63c-1.46,0-2.93-.31-4.24-.96-1.82-.9-3.01-2.35-3.28-3.98-.24-1.45.28-2.89,1.44-4.04,2.41-2.39,6.93-2.96,10.29-1.29,1.82.9,3.01,2.35,3.28,3.98.24,1.45-.28,2.89-1.44,4.04-1.48,1.46-3.75,2.24-6.06,2.24Zm0-9.21c-1.81,0-3.59.58-4.67,1.65-.71.7-1.01,1.5-.88,2.3.16.98.96,1.89,2.19,2.5,2.56,1.27,6.22.85,8-.92h0c.71-.7,1.01-1.5.88-2.3-.16-.98-.96-1.89-2.19-2.5-1-.5-2.17-.73-3.33-.73Z"/>
      <path class="cls-1" d="m20.12,97.89c-.96,0-1.93-.2-2.78-.63-1.24-.61-2.05-1.61-2.23-2.74-.17-1.02.19-2.03,1-2.83,1.6-1.58,4.58-1.97,6.8-.87,1.24.61,2.05,1.61,2.23,2.74.17,1.02-.19,2.03-1,2.83h0c-.98.97-2.49,1.49-4.02,1.49Zm0-5.69c-1.01,0-2,.32-2.6.92-.24.24-.51.62-.43,1.09.08.48.5.94,1.15,1.27,1.45.72,3.51.49,4.5-.5h0c.24-.24.51-.62.43-1.09-.08-.48-.5-.94-1.15-1.27-.57-.28-1.24-.42-1.9-.42Z"/>
      <path class="cls-1" d="m23.87,87.45c-1.22,0-2.45-.26-3.54-.8-1.54-.76-2.55-2-2.77-3.38-.2-1.24.24-2.47,1.23-3.46,2.02-2,5.8-2.48,8.61-1.09,1.54.76,2.55,2,2.77,3.38.2,1.24-.24,2.47-1.23,3.46-1.24,1.23-3.14,1.88-5.08,1.88Zm0-7.52c-1.42,0-2.82.45-3.67,1.3-.53.53-.76,1.12-.67,1.72.12.74.74,1.44,1.69,1.91,2.02,1,4.92.68,6.32-.71h0c.53-.53.76-1.12.67-1.72-.12-.74-.74-1.44-1.69-1.91-.79-.39-1.72-.58-2.64-.58Z"/>
      <g>
        <path class="cls-1" d="m58.76,26.46c-.36,0-.73-.06-1.08-.19-.79-.29-1.42-.87-1.77-1.63s-.39-1.61-.1-2.4c.29-.79.87-1.42,1.63-1.77.76-.35,1.62-.39,2.4-.1.79.29,1.42.87,1.77,1.63.73,1.57.04,3.44-1.52,4.17-.42.2-.87.29-1.32.29Zm0-4.28c-.16,0-.33.04-.48.11-.28.13-.49.36-.59.64-.1.29-.09.6.04.87.13.28.36.49.64.59.29.1.6.09.87-.04.57-.27.82-.95.55-1.52-.13-.28-.36-.49-.64-.59-.13-.05-.26-.07-.39-.07Z"/>
        <g>
          <path class="cls-1" d="m2.68,68.73c-1.32,0-2.14-.37-2.51-1.12-.61-1.24.64-2.7,1.05-3.18h0c13.57-15.84,32.82-27.96,33.01-28.08,5.38-3.37,10.99-6.92,16.67-10.56l1.91-1.22-.38,2.24c-.26,1.52-.43,4.45,1.37,7.07.54.79,1.23,1.49,2.03,2.08l1.31.95-1.44.74c-5.83,3-11.66,6.16-17.35,9.4-11.7,6.64-23.26,13.87-34.36,21.48l-.21.15-.26.02c-.29.03-.57.04-.83.04Zm-.61-2.05c.19.04.51.07.99.04,11.08-7.58,22.62-14.79,34.29-21.42,5.28-3,10.69-5.94,16.1-8.75-.49-.48-.92-1-1.31-1.55-1.52-2.21-1.89-4.58-1.88-6.43-5.1,3.27-10.13,6.45-14.98,9.48-.19.12-19.18,12.08-32.55,27.68-.39.46-.58.76-.66.94Z"/>
          <path class="cls-1" d="m61.65,39.84c-3.8,0-7.46-1.84-9.51-4.84h0c-1.57-2.3-2.14-5.16-1.7-8.5.65-4.85,4.01-10.05,8.78-13.58,4.7-3.48,10.06-4.93,15.1-4.09,5.74.95,9.74,4.59,12.09,7.48l1.97,2.42-3-.82c-4.94-1.35-8.26-1.21-9.88.41-1.17,1.18-1.1,2.81-.99,5.07.12,2.5.27,5.62-1.53,9-.37.7-3.85,6.9-10.4,7.42-.31.02-.62.04-.93.04Zm-7.86-5.97c2.07,3.03,5.83,4.16,8.63,3.94,5.49-.44,8.47-5.76,8.79-6.37,1.54-2.89,1.41-5.59,1.29-7.96-.12-2.45-.23-4.77,1.57-6.57,1.75-1.77,4.59-2.31,8.62-1.64-2.13-1.98-5.03-3.85-8.71-4.46-4.5-.75-9.33.58-13.59,3.73-4.35,3.22-7.41,7.9-7.98,12.23-.14,1.06-.57,4.27,1.37,7.11h0Z"/>
        </g>
      </g>
      <path class="cls-1" d="m75.33,80.56c-1.04,0-3.71-.23-5.76-2.38-2.48-2.6-2.14-6.03-1.99-7.49.29-2.88,1.5-4.83,2.47-5.96,1.65-1.94,4.14-3.26,5.37-3.26.01,0,.02,0,.04,0,.53.01.83.26.99.46.59.75-.02,1.48-.38,1.92-.43.51-1.01,1.21-1.23,2.25-.27,1.29.04,2.85.63,3.16.19.1.47,0,1.05-.28.72-.33,1.7-.78,2.9-.44,2.26.66,3.55,3.72,3.29,6.05h0c-.38,3.42-3.84,5.71-6.97,5.96-.06,0-.2.01-.41.01Zm-2.07-16.06c-.56.39-1.16.9-1.69,1.52-.78.91-1.76,2.5-2,4.86-.14,1.39-.4,3.98,1.45,5.91,1.86,1.94,4.46,1.76,4.57,1.76,2.27-.18,4.88-1.83,5.14-4.18.18-1.65-.74-3.59-1.86-3.91-.45-.13-.86.04-1.51.34-.72.33-1.72.79-2.79.24-1.65-.84-2.1-3.38-1.68-5.35.09-.44.23-.83.38-1.19Z"/>
      <path class="cls-1" d="m43.86,112.04c-3.29,0-6.55-.22-9.73-.65-5.91-.81-14-1.92-20.37-6.88-1.61-1.25-5.5-4.75-6.97-10.1-.08-.3-1.97-7.47,2.84-14.4,9.42-13.56,36.24-14.84,41.52-14.96,4.09-.1,10.42.11,17.6,1.59.35-.67.77-1.29,1.25-1.85,1.65-1.94,4.14-3.26,5.37-3.26.01,0,.02,0,.04,0,.53.01.83.26.99.46.59.75-.02,1.48-.38,1.92-.43.51-1.01,1.21-1.23,2.25-.13.64-.13,1.38,0,1.99.74.22,1.45.44,2.15.68.61-.25,1.46-.51,2.43-.23.96.28,1.81,1.01,2.43,2.08l.07.03c.34.14.69.29,1.04.44,5.21,2.35,9.81,5.32,13.67,8.81,1.92,1.36,3.05,3.1,3.18,4.9.1,1.38-.42,2.67-1.46,3.63-1.76,1.63-4.23,1.91-5.54,1.94-5.68.1-10.11-.82-14.4-1.71-3.89-.8-7.57-1.56-12.09-1.62-5.98-.08-8.71,1.17-9.61,1.58-4.36,2-8.34,6.05-7.74,7.87.34,1.05,1.15,3.51,8.58,3.57,4.33.04,7.8,2.3,7.9,5.14.07,1.89-1.45,3.7-3.96,4.72l-.15.05c-5.73,1.33-11.63,2.01-17.42,2.01Zm8.97-45.01c-.58,0-1.12,0-1.63.02-3.13.07-30.88,1.07-39.93,14.1-4.28,6.17-2.62,12.46-2.55,12.73,1.35,4.91,5.14,8.17,6.28,9.05,5.94,4.63,13.72,5.7,19.4,6.48,8.52,1.17,17.63.72,26.35-1.3,1.62-.68,2.68-1.79,2.64-2.77-.05-1.5-2.5-3.18-5.92-3.21-7.87-.07-9.73-2.68-10.47-4.95-1.16-3.56,4.37-8.28,8.81-10.31,1-.46,4.06-1.84,10.47-1.76,4.71.06,8.66.88,12.47,1.66,4.19.87,8.54,1.77,13.96,1.67.83-.01,2.9-.18,4.22-1.4.59-.55.88-1.25.82-2.02-.08-1.19-.95-2.44-2.38-3.44l-.1-.08c-3.71-3.37-8.15-6.24-13.19-8.52-.33-.15-.65-.28-.98-.42l-.74-.31-.17-.33c-.37-.74-.87-1.24-1.38-1.39-.43-.13-.86.04-1.4.29l-.36.17-.38-.13c-.96-.33-1.93-.63-2.96-.93l-.48-.14-.18-.47c-.38-1.03-.47-2.39-.22-3.56.09-.44.23-.83.38-1.19-.56.39-1.16.9-1.69,1.52-.53.62-.95,1.3-1.29,2.09l-.33.76-.8-.17c-6.41-1.39-12.17-1.73-16.28-1.73Z"/>
    </g>
  </g>
</svg>