<?xml version="1.0" encoding="utf-8"?>
<!-- Generator: Adobe Illustrator 27.2.0, SVG Export Plug-In . SVG Version: 6.00 Build 0)  -->
<svg version="1.1" id="Warstwa_2_00000143599056916416796550000005522250416443465375_"
	 xmlns="http://www.w3.org/2000/svg" xmlns:xlink="http://www.w3.org/1999/xlink" x="0px" y="0px" viewBox="0 0 110 110"
	 style="enable-background:new 0 0 110 110;" xml:space="preserve">
<style type="text/css">
	.st0{opacity:0.22;fill:#2986FF;enable-background:new    ;}
	.st1{fill:url(#SVGID_1_);}
	.st2{fill:url(#SVGID_00000036250046412390421700000005389095391218080691_);}
	.st3{fill:url(#SVGID_00000044867166044001039770000006067725373160237956_);}
	.st4{fill:url(#SVGID_00000176744818922230417970000015226947023442323115_);}
	.st5{fill:url(#SVGID_00000170978715251409553090000008779723222268056219_);}
	.st6{fill:url(#SVGID_00000166645217505566613700000007121131060187857843_);}
	.st7{fill:url(#SVGID_00000059280366727335822100000012664477499307964561_);}
	.st8{fill:url(#SVGID_00000125593939606776906020000016889683079423532944_);}
	.st9{fill:url(#SVGID_00000080179106246769083450000017232579613076831160_);}
	.st10{fill:url(#SVGID_00000005248453992481387380000018318230623374259631_);}
	.st11{fill:url(#SVGID_00000145040971580187401250000006904835037002834579_);}
	.st12{fill:url(#SVGID_00000061463740262420221570000005629655411816999320_);}
	.st13{fill:url(#SVGID_00000092446593537390723370000001694597889863112361_);}
</style>
<circle class="st0" cx="57" cy="55.5" r="52.9"/>
<linearGradient id="SVGID_1_" gradientUnits="userSpaceOnUse" x1="82.7029" y1="10.9113" x2="82.7029" y2="98.0807">
	<stop  offset="5.412371e-02" style="stop-color:#1F2C5E"/>
	<stop  offset="0.5258" style="stop-color:#2986FF"/>
	<stop  offset="1" style="stop-color:#2BD1E2"/>
</linearGradient>
<path class="st1" d="M82.7,48.8c-2,0-3.9-0.4-5.8-1.3c-3.2-1.5-5.7-4.3-6.9-7.6c-1.2-3.4-1-7,0.5-10.2c1.5-3.2,4.3-5.7,7.6-6.9
	c3.4-1.2,7-1,10.2,0.5c3.2,1.5,5.7,4.3,6.9,7.6c1.2,3.4,1,7-0.5,10.2c-1.5,3.2-4.3,5.7-7.6,6.9C85.7,48.5,84.2,48.8,82.7,48.8z
	 M82.7,25c-1.2,0-2.3,0.2-3.5,0.6c-2.6,0.9-4.7,2.8-5.9,5.3s-1.3,5.3-0.4,8c0.9,2.6,2.8,4.7,5.3,5.9c2.5,1.2,5.3,1.3,8,0.4
	c2.6-0.9,4.7-2.8,5.9-5.3s1.3-5.3,0.4-8l0,0c-0.9-2.6-2.8-4.7-5.3-5.9C85.8,25.3,84.2,25,82.7,25z"/>
<linearGradient id="SVGID_00000150065160085898932370000001532271444113904798_" gradientUnits="userSpaceOnUse" x1="17.0963" y1="10.9113" x2="17.0963" y2="98.0807">
	<stop  offset="5.412371e-02" style="stop-color:#1F2C5E"/>
	<stop  offset="0.5258" style="stop-color:#2986FF"/>
	<stop  offset="1" style="stop-color:#2BD1E2"/>
</linearGradient>
<path style="fill:url(#SVGID_00000150065160085898932370000001532271444113904798_);" d="M17.1,70.6c-0.7,0-1.4-0.2-2-0.5
	c-1.1-0.5-2-1.5-2.4-2.7c-0.9-2.5,0.4-5.2,2.9-6.1c2.5-0.9,5.2,0.4,6.1,2.9v0c0.4,1.2,0.4,2.5-0.2,3.6s-1.5,2-2.7,2.4
	C18.2,70.5,17.6,70.6,17.1,70.6z M17.1,64.1c-0.2,0-0.4,0-0.6,0.1c-0.9,0.3-1.4,1.3-1.1,2.2c0.2,0.4,0.5,0.8,0.9,1
	c0.4,0.2,0.9,0.2,1.3,0.1c0.4-0.2,0.8-0.5,1-0.9c0.2-0.4,0.2-0.9,0.1-1.3C18.5,64.5,17.8,64.1,17.1,64.1z"/>
<linearGradient id="SVGID_00000019645815473812391650000006394912911195377851_" gradientUnits="userSpaceOnUse" x1="41.8923" y1="10.9113" x2="41.8923" y2="98.0807">
	<stop  offset="5.412371e-02" style="stop-color:#1F2C5E"/>
	<stop  offset="0.5258" style="stop-color:#2986FF"/>
	<stop  offset="1" style="stop-color:#2BD1E2"/>
</linearGradient>
<path style="fill:url(#SVGID_00000019645815473812391650000006394912911195377851_);" d="M18.6,57.7l-2.7-1.2
	c4.5-10.1,14.8-16.1,24.5-14.4c7.9,1.4,12.5,7.3,14.4,10.3c0.8-2.9,2.1-5.6,3.8-8.1c2-3,4.6-5.6,7.6-7.6l1.7,2.5
	c-2.7,1.8-5,4.1-6.8,6.8c-1.8,2.6-3,5.4-3.7,8.4l-0.3,1.1l-3.8,0.3l-0.5-0.9c-0.8-1.4-5-8.4-12.9-9.8C31.5,43.6,22.6,48.9,18.6,57.7
	z"/>
<linearGradient id="SVGID_00000118382233041780009320000013506444911517880217_" gradientUnits="userSpaceOnUse" x1="36.0608" y1="10.9113" x2="36.0608" y2="98.0807">
	<stop  offset="5.412371e-02" style="stop-color:#1F2C5E"/>
	<stop  offset="0.5258" style="stop-color:#2986FF"/>
	<stop  offset="1" style="stop-color:#2BD1E2"/>
</linearGradient>
<path style="fill:url(#SVGID_00000118382233041780009320000013506444911517880217_);" d="M48.3,62.9c0-0.3-1.2-7.8-7.3-10.5
	c-6-2.7-13.7,0.3-17.7,6.8l-2.6-1.6c4.7-7.8,14.1-11.3,21.5-8c7.4,3.3,8.9,11.8,9,12.8L48.3,62.9z"/>
<linearGradient id="SVGID_00000151531097569485629850000013638622806891369405_" gradientUnits="userSpaceOnUse" x1="68.0022" y1="10.9113" x2="68.0022" y2="98.0807">
	<stop  offset="5.412371e-02" style="stop-color:#1F2C5E"/>
	<stop  offset="0.5258" style="stop-color:#2986FF"/>
	<stop  offset="1" style="stop-color:#2BD1E2"/>
</linearGradient>
<path style="fill:url(#SVGID_00000151531097569485629850000013638622806891369405_);" d="M61,63.8l-2.7-1.3c1.8-3.6,4.4-6.8,7.7-9.1
	c4.2-3.1,8.4-4.3,11.2-4.7l0.5,3c-2.5,0.4-6.2,1.4-9.9,4.2C64.2,58.4,62.1,61.5,61,63.8z"/>
<linearGradient id="SVGID_00000123411280018400096750000003787122754039491517_" gradientUnits="userSpaceOnUse" x1="102.5715" y1="10.9113" x2="102.5715" y2="98.0807">
	<stop  offset="5.412371e-02" style="stop-color:#1F2C5E"/>
	<stop  offset="0.5258" style="stop-color:#2986FF"/>
	<stop  offset="1" style="stop-color:#2BD1E2"/>
</linearGradient>
<path style="fill:url(#SVGID_00000123411280018400096750000003787122754039491517_);" d="M102.6,61.9c-1,0-2.1-0.4-2.8-1.2l-3.6-3.6
	c-0.4-0.4-1.2-1.3-1.2-2.8s0.8-2.5,1.2-2.8l0.4-0.4h12.1l0.4,0.4c0.4,0.4,1.2,1.3,1.2,2.8s-0.8,2.5-1.2,2.8l-3.6,3.6
	C104.6,61.5,103.6,61.9,102.6,61.9z M98,53.9c0,0.1,0,0.2,0,0.3c0,0.4,0.3,0.7,0.3,0.7l3.6,3.6c0.4,0.4,1,0.4,1.4,0l3.6-3.6
	c0,0,0.3-0.3,0.3-0.7c0-0.1,0-0.2,0-0.3H98z"/>
<linearGradient id="SVGID_00000064353616904394485200000004394563552604786840_" gradientUnits="userSpaceOnUse" x1="51.1768" y1="10.9113" x2="51.1768" y2="98.0807">
	<stop  offset="5.412371e-02" style="stop-color:#1F2C5E"/>
	<stop  offset="0.5258" style="stop-color:#2986FF"/>
	<stop  offset="1" style="stop-color:#2BD1E2"/>
</linearGradient>
<rect x="-0.2" y="73.3" style="fill:url(#SVGID_00000064353616904394485200000004394563552604786840_);" width="102.8" height="3"/>
<linearGradient id="SVGID_00000037694484864379117890000004165301601090077570_" gradientUnits="userSpaceOnUse" x1="51.1768" y1="10.9113" x2="51.1768" y2="98.0807">
	<stop  offset="5.412371e-02" style="stop-color:#1F2C5E"/>
	<stop  offset="0.5258" style="stop-color:#2986FF"/>
	<stop  offset="1" style="stop-color:#2BD1E2"/>
</linearGradient>
<rect x="-0.2" y="85" style="fill:url(#SVGID_00000037694484864379117890000004165301601090077570_);" width="102.8" height="3"/>
<linearGradient id="SVGID_00000070079371732467978970000005915791621177979779_" gradientUnits="userSpaceOnUse" x1="102.571" y1="10.9113" x2="102.571" y2="98.0807">
	<stop  offset="5.412371e-02" style="stop-color:#1F2C5E"/>
	<stop  offset="0.5258" style="stop-color:#2986FF"/>
	<stop  offset="1" style="stop-color:#2BD1E2"/>
</linearGradient>
<rect x="101.1" y="59.9" style="fill:url(#SVGID_00000070079371732467978970000005915791621177979779_);" width="3" height="28.2"/>
<linearGradient id="SVGID_00000034793404491818556860000002170054583898547096_" gradientUnits="userSpaceOnUse" x1="76.7283" y1="10.9113" x2="76.7283" y2="98.0807">
	<stop  offset="5.412371e-02" style="stop-color:#1F2C5E"/>
	<stop  offset="0.5258" style="stop-color:#2986FF"/>
	<stop  offset="1" style="stop-color:#2BD1E2"/>
</linearGradient>
<rect x="75.2" y="74.1" style="fill:url(#SVGID_00000034793404491818556860000002170054583898547096_);" width="3" height="12.4"/>
<linearGradient id="SVGID_00000030474777751903664090000009129673347807443611_" gradientUnits="userSpaceOnUse" x1="48.0652" y1="10.9113" x2="48.0652" y2="98.0807">
	<stop  offset="5.412371e-02" style="stop-color:#1F2C5E"/>
	<stop  offset="0.5258" style="stop-color:#2986FF"/>
	<stop  offset="1" style="stop-color:#2BD1E2"/>
</linearGradient>
<rect x="46.6" y="74.1" style="fill:url(#SVGID_00000030474777751903664090000009129673347807443611_);" width="3" height="12.4"/>
<linearGradient id="SVGID_00000020384880499659982300000005967454100363158422_" gradientUnits="userSpaceOnUse" x1="19.4021" y1="10.9113" x2="19.4021" y2="98.0807">
	<stop  offset="5.412371e-02" style="stop-color:#1F2C5E"/>
	<stop  offset="0.5258" style="stop-color:#2986FF"/>
	<stop  offset="1" style="stop-color:#2BD1E2"/>
</linearGradient>
<rect x="17.9" y="74.1" style="fill:url(#SVGID_00000020384880499659982300000005967454100363158422_);" width="3" height="12.4"/>
<linearGradient id="SVGID_00000013884782197600447590000013459392822365038466_" gradientUnits="userSpaceOnUse" x1="84.9702" y1="10.9113" x2="84.9702" y2="98.0807">
	<stop  offset="5.412371e-02" style="stop-color:#1F2C5E"/>
	<stop  offset="0.5258" style="stop-color:#2986FF"/>
	<stop  offset="1" style="stop-color:#2BD1E2"/>
</linearGradient>
<path style="fill:url(#SVGID_00000013884782197600447590000013459392822365038466_);" d="M81.4,43.3c-0.7,0-1.4-0.1-2-0.2l0.6-2.9
	c2.6,0.6,5.2-0.5,6.6-2.6c1.8-2.8,0.2-6.1,0.2-6.1l2.7-1.3c0.1,0.2,2.3,4.8-0.4,9.1C87.5,41.7,84.6,43.3,81.4,43.3z"/>
</svg>
