<svg xmlns="http://www.w3.org/2000/svg" width="51.272" height="41.949" viewBox="0 0 51.272 41.949">
  <path id="clapper-board" d="M45.677,3l-.009.011a6.992,6.992,0,0,1,6.6,6.981V37.958a6.991,6.991,0,0,1-6.992,6.992H7.992A6.992,6.992,0,0,1,1,37.958V9.992A6.992,6.992,0,0,1,7.992,3ZM23.085,7.661H37.068l-7.894,9.322H15.191ZM10.529,16.983l7.895-9.322H7.992A2.331,2.331,0,0,0,5.661,9.992v6.992ZM5.661,21.644V37.958a2.331,2.331,0,0,0,2.331,2.331H45.28a2.33,2.33,0,0,0,2.331-2.331V21.644Zm41.949-4.661V9.992A2.33,2.33,0,0,0,45.28,7.661H41.729l-7.894,9.322Z" transform="translate(-1 -3)" fill="#2986ff" fill-rule="evenodd"/>
</svg>
