<?xml version="1.0" encoding="utf-8"?>
<!-- Generator: Adobe Illustrator 27.2.0, SVG Export Plug-In . SVG Version: 6.00 Build 0)  -->
<svg version="1.1" id="Warstwa_2_00000143599056916416796550000005522250416443465375_"
	 xmlns="http://www.w3.org/2000/svg" xmlns:xlink="http://www.w3.org/1999/xlink" x="0px" y="0px" viewBox="0 0 110 110"
	 style="enable-background:new 0 0 110 110;" xml:space="preserve">
<style type="text/css">
	.st0{opacity:0.22;fill:#2986FF;enable-background:new    ;}
	.st1{fill:#1F2C5E;stroke:#1F2C5E;stroke-miterlimit:10;}
</style>
<circle class="st0" cx="57" cy="55.5" r="52.9"/>
<path class="st1" d="M65.5,42.5c-4.5,0-8.6-2.8-10.1-7.1c-1.9-5.6,0.9-11.8,6.6-13.7c5.6-1.9,11.8,0.9,13.7,6.6l0,0
	c1.9,5.6-0.9,11.8-6.6,13.7C67.9,42.3,66.7,42.5,65.5,42.5L65.5,42.5z M65.4,22.8c-1,0-1.9,0.2-3,0.5c-4.6,1.7-7,6.8-5.5,11.3
	c1.6,4.5,6.8,7,11.3,5.5c4.5-1.6,7-6.8,5.5-11.3C72.5,25,69.1,22.8,65.4,22.8z"/>
<path class="st1" d="M11.2,57.7c-1.5,0-2.9-0.9-3.4-2.4c-0.6-1.9,0.4-4,2.2-4.6c0.9-0.3,1.9-0.3,2.8,0.2c0.9,0.5,1.5,1.1,1.9,2l0,0
	c0.6,1.9-0.4,4-2.2,4.6C12,57.6,11.6,57.7,11.2,57.7z M11.2,52.3c-0.2,0-0.4,0-0.6,0.1c-0.9,0.3-1.4,1.3-1.1,2.2
	c0.4,0.9,1.3,1.4,2.2,1.1c0.9-0.3,1.4-1.3,1.1-2.2l0,0c-0.2-0.5-0.5-0.8-0.9-1C11.7,52.4,11.5,52.3,11.2,52.3z"/>
<path class="st1" d="M43.3,52.8L42,49.6c-0.2-0.4-3.6-8.7-12-10.3c-7.2-1.2-14.7,3.2-17.8,10.7l-1.8-0.7
	c3.4-8.3,11.8-13.2,19.9-11.7c6.5,1.1,10.3,5.9,12.1,9c0.6-2.6,1.9-5.1,3.3-7.3c1.7-2.4,3.7-4.5,6.2-6.2l1,1.5
	c-2.2,1.6-4.2,3.4-5.8,5.8c-1.9,2.7-3.1,5.9-3.5,9.2L43.3,52.8L43.3,52.8z"/>
<path class="st1" d="M40.7,55h-1.9c0-7.1-5.3-13.1-11.9-13.5c-5.3-0.3-10.4,3.3-12.3,8.7l-1.8-0.6c2.2-6.1,8.1-10.2,14.2-9.9
	C34.7,40,40.8,46.9,40.7,55L40.7,55z"/>
<path class="st1" d="M47.2,55l-1.7-0.8c1.5-3,3.6-5.5,6.2-7.4c3.4-2.5,6.9-3.4,9.1-3.8l0.3,1.9c-2,0.4-5.2,1.2-8.3,3.5
	C49.9,50.4,48.1,53.1,47.2,55L47.2,55z"/>
<path class="st1" d="M91,61.4c-0.8,0-1.7-0.3-2.3-0.9l-3.3-3.3c-0.3-0.3-0.9-1.1-0.9-2.3c0-1.2,0.6-2,0.9-2.3l0.3-0.3h10.9l0.3,0.3
	c0.3,0.3,0.9,1.1,0.9,2.3c0,1.2-0.6,2-0.9,2.3l0,0l-3.3,3.3C92.6,61.1,91.8,61.4,91,61.4L91,61.4z M86.4,54
	c-0.1,0.2-0.2,0.5-0.2,0.7c0,0.6,0.3,0.9,0.4,1l3.3,3.3c0.6,0.6,1.5,0.6,1.9,0l3.3-3.3c0.1-0.1,0.4-0.5,0.4-1c0-0.3-0.1-0.6-0.2-0.7
	H86.4L86.4,54z"/>
<rect x="11.2" y="73" class="st1" width="79.8" height="1.9"/>
<rect x="11.2" y="80.6" class="st1" width="79.8" height="1.9"/>
<rect x="90" y="60" class="st1" width="1.9" height="26.2"/>
<rect x="66" y="73.2" class="st1" width="1.9" height="8.8"/>
<rect x="39.5" y="73.2" class="st1" width="1.9" height="8.8"/>
<rect x="12.9" y="73.2" class="st1" width="1.9" height="8.8"/>
<path class="st1" d="M64.3,37.8c-0.6,0-1.1-0.1-1.6-0.2l0.4-1.9c2.2,0.5,4.5-0.5,5.8-2.3c1.6-2.5,0.2-5.3,0.2-5.4l1.7-0.8
	c0.1,0.2,1.9,3.8-0.3,7.1C69.2,36.6,66.8,37.8,64.3,37.8L64.3,37.8z"/>
<path class="st1" d="M40.6,98c-0.9,0-1.8-0.4-2.3-1l-3.5-3.5c-1.3-1.3-1.3-3.4,0-4.7l3.5-3.5c1.3-1.3,3.4-1.3,4.7,0l3.5,3.5
	c1.3,1.3,1.3,3.4,0,4.7L43,97C42.3,97.7,41.4,98,40.6,98z M40.6,86.1c-0.4,0-0.7,0.2-1,0.5L36,90.1c-0.6,0.6-0.6,1.5,0,2l3.5,3.5
	c0.6,0.6,1.6,0.6,2,0l3.5-3.5c0.6-0.6,0.6-1.5,0-2l-3.5-3.5C41.3,86.3,41,86.1,40.6,86.1L40.6,86.1z"/>
</svg>
