<?xml version="1.0" encoding="utf-8"?>
<!-- Generator: Adobe Illustrator 27.2.0, SVG Export Plug-In . SVG Version: 6.00 Build 0)  -->
<svg version="1.1" id="Warstwa_2_00000143599056916416796550000005522250416443465375_"
	 xmlns="http://www.w3.org/2000/svg" xmlns:xlink="http://www.w3.org/1999/xlink" x="0px" y="0px" viewBox="0 0 131.1 106.2"
	 style="enable-background:new 0 0 131.1 106.2;" xml:space="preserve">
<style type="text/css">
	.st0{opacity:0.45;fill:#E8F0FB;enable-background:new    ;}
	.st1{fill:#2986FF;stroke:#2986FF;stroke-miterlimit:10;}
</style>
<circle class="st0" cx="77.9" cy="53.1" r="53.1"/>
<path class="st1" d="M84,38.7c-4.8,0-9.3-3-10.9-7.7c-2.1-6,1-12.7,7.1-14.8c6-2.1,12.7,1,14.8,7.1l0,0c2.1,6-1,12.7-7.1,14.8
	C86.6,38.5,85.3,38.7,84,38.7L84,38.7z M83.9,17.5c-1.1,0-2.1,0.2-3.2,0.5c-5,1.8-7.6,7.3-5.9,12.2s7.3,7.6,12.2,5.9
	s7.6-7.3,5.9-12.2C91.6,19.9,87.9,17.5,83.9,17.5z"/>
<path class="st1" d="M25.5,55.1c-1.6,0-3.1-1-3.7-2.6c-0.7-2,0.4-4.3,2.4-5c1-0.3,2-0.3,3,0.2s1.6,1.2,2,2.2l0,0
	c0.7,2-0.4,4.3-2.4,5C26.4,55,26,55.1,25.5,55.1z M25.5,49.3c-0.2,0-0.4,0-0.6,0.1c-1,0.3-1.5,1.4-1.2,2.4c0.4,1,1.4,1.5,2.4,1.2
	c1-0.3,1.5-1.4,1.2-2.4l0,0c-0.2-0.5-0.5-0.9-1-1.1C26.1,49.4,25.8,49.3,25.5,49.3z"/>
<path class="st1" d="M60.1,49.9l-1.4-3.5C58.5,46,54.8,37,45.8,35.3C38,34,29.9,38.8,26.6,46.8L24.7,46c3.7-8.9,12.7-14.2,21.4-12.6
	c7,1.2,11.1,6.4,13,9.7c0.7-2.8,2-5.5,3.6-7.9c1.8-2.6,4-4.9,6.7-6.7l1.1,1.6c-2.4,1.7-4.5,3.7-6.2,6.2c-2,2.9-3.3,6.4-3.8,9.9
	L60.1,49.9L60.1,49.9z"/>
<path class="st1" d="M57.3,52.2h-2c0-7.7-5.7-14.1-12.8-14.5c-5.7-0.3-11.2,3.6-13.3,9.4l-1.9-0.7c2.4-6.6,8.7-11,15.3-10.7
	C50.8,36.1,57.4,43.5,57.3,52.2L57.3,52.2z"/>
<path class="st1" d="M64.3,52.2l-1.8-0.9c1.6-3.2,3.9-5.9,6.7-8c3.7-2.7,7.4-3.7,9.8-4.1l0.3,2c-2.2,0.4-5.6,1.3-9,3.8
	C67.2,47.3,65.3,50.2,64.3,52.2L64.3,52.2z"/>
<path class="st1" d="M111.5,59.1c-0.9,0-1.8-0.3-2.5-1l-3.6-3.6c-0.3-0.3-1-1.2-1-2.5s0.7-2.2,1-2.5l0.3-0.3h11.7l0.3,0.3
	c0.3,0.3,1,1.2,1,2.5s-0.7,2.2-1,2.5l0,0l-3.6,3.6C113.3,58.8,112.4,59.1,111.5,59.1L111.5,59.1z M106.6,51.2
	c-0.1,0.2-0.2,0.5-0.2,0.8c0,0.6,0.3,1,0.4,1.1l3.6,3.6c0.6,0.6,1.6,0.6,2.1,0l3.6-3.6c0.1-0.1,0.4-0.5,0.4-1.1
	c0-0.3-0.1-0.6-0.2-0.8H106.6L106.6,51.2z"/>
<rect x="8.7" y="71.6" class="st1" width="102.8" height="2"/>
<rect x="8.7" y="79.8" class="st1" width="102.8" height="2"/>
<rect x="110.5" y="57.6" class="st1" width="2" height="28.2"/>
<rect x="84.6" y="71.9" class="st1" width="2" height="9.5"/>
<rect x="56" y="71.9" class="st1" width="2" height="9.5"/>
<rect x="27.3" y="71.9" class="st1" width="2" height="9.5"/>
<path class="st1" d="M82.8,33.7c-0.6,0-1.2-0.1-1.7-0.2l0.4-2c2.4,0.5,4.9-0.5,6.2-2.5c1.7-2.7,0.2-5.7,0.2-5.8l1.8-0.9
	c0.1,0.2,2,4.1-0.3,7.7C88,32.4,85.5,33.7,82.8,33.7L82.8,33.7z"/>
<path class="st1" d="M57.2,98.6c-1,0-1.9-0.4-2.5-1.1l-3.8-3.8c-1.4-1.4-1.4-3.7,0-5.1l3.8-3.8c1.4-1.4,3.7-1.4,5.1,0l3.8,3.8
	c1.4,1.4,1.4,3.7,0,5.1l-3.8,3.8C59,98.3,58.1,98.6,57.2,98.6z M57.2,85.8c-0.4,0-0.8,0.2-1.1,0.5l-3.8,3.8c-0.6,0.6-0.6,1.6,0,2.2
	l3.8,3.8c0.6,0.6,1.7,0.6,2.2,0l3.8-3.8c0.6-0.6,0.6-1.6,0-2.2l-3.8-3.8C58,86,57.6,85.8,57.2,85.8L57.2,85.8z"/>
</svg>
