<?xml version="1.0" encoding="UTF-8"?>
<svg id="Warstwa_2" data-name="Warstwa 2" xmlns="http://www.w3.org/2000/svg" viewBox="0 0 131.07 106.25">
  <defs>
    <style>
      .cls-1 {
        fill: #2986ff;
      }

      .cls-2 {
        fill: #e8f0fb;
        opacity: .45;
      }
    </style>
  </defs>
  <g id="Warstwa_1-2" data-name="Warstwa 1">
    <g>
      <circle class="cls-2" cx="77.95" cy="53.13" r="53.13"/>
      <path class="cls-1" d="m75.27,41.56c-4.78,0-9.27-2.98-10.95-7.74-2.13-6.03,1.04-12.67,7.08-14.81,6.03-2.13,12.67,1.04,14.81,7.08h0c2.13,6.03-1.04,12.67-7.08,14.81-1.27.45-2.57.66-3.85.66Zm-.02-21.21c-1.06,0-2.14.18-3.19.55-4.99,1.76-7.62,7.26-5.86,12.25s7.26,7.62,12.25,5.86c4.99-1.76,7.62-7.26,5.86-12.25-1.39-3.94-5.11-6.41-9.06-6.41Z"/>
      <path class="cls-1" d="m16.85,57.98c-1.61,0-3.11-1-3.68-2.6-.72-2.03.35-4.26,2.38-4.97.98-.35,2.04-.29,2.98.16.94.45,1.65,1.24,1.99,2.22h0c.72,2.03-.35,4.26-2.38,4.97-.43.15-.86.22-1.29.22Zm0-5.79c-.21,0-.43.04-.63.11-.99.35-1.5,1.43-1.16,2.42.35.99,1.43,1.5,2.42,1.16.99-.35,1.5-1.43,1.16-2.42h0c-.17-.48-.51-.86-.97-1.08-.26-.12-.54-.19-.82-.19Z"/>
      <path class="cls-1" d="m51.36,52.82l-1.39-3.52c-.15-.39-3.82-9.46-12.83-11.07-7.82-1.39-15.92,3.42-19.25,11.45l-1.85-.77c3.69-8.89,12.72-14.21,21.45-12.65,6.96,1.24,11.06,6.43,12.99,9.66.74-2.82,1.95-5.51,3.58-7.89,1.8-2.63,4.05-4.89,6.71-6.69l1.12,1.65c-2.45,1.66-4.53,3.74-6.18,6.16-2,2.94-3.33,6.36-3.83,9.92l-.53,3.75Z"/>
      <path class="cls-1" d="m48.64,55.06h-2c.04-7.65-5.71-14.14-12.81-14.48-5.71-.28-11.17,3.59-13.32,9.38l-1.88-.69c2.44-6.6,8.73-10.98,15.29-10.68,8.16.39,14.77,7.78,14.72,16.48Z"/>
      <path class="cls-1" d="m55.65,55.07l-1.79-.89c1.57-3.15,3.9-5.93,6.72-8.02,3.65-2.7,7.36-3.73,9.84-4.13l.31,1.98c-2.25.36-5.64,1.3-8.96,3.76-3.25,2.41-5.12,5.3-6.12,7.31Z"/>
      <path class="cls-1" d="m102.79,62.01c-.9,0-1.8-.34-2.48-1.03l-3.64-3.64c-.31-.31-1.03-1.18-1.03-2.48s.72-2.17,1.02-2.48l.29-.3h11.66l.29.3c.31.31,1.02,1.17,1.02,2.48s-.72,2.17-1.02,2.48h0s-3.64,3.64-3.64,3.64c-.68.69-1.58,1.03-2.48,1.03Zm-4.93-7.93c-.11.19-.22.45-.22.78,0,.58.34.97.44,1.07l3.63,3.63c.59.59,1.55.59,2.14,0l3.63-3.63c.11-.11.44-.49.44-1.07,0-.32-.11-.59-.22-.78h-9.86Z"/>
      <rect class="cls-1" y="74.44" width="102.79" height="2"/>
      <rect class="cls-1" y="82.72" width="102.79" height="2"/>
      <rect class="cls-1" x="101.79" y="60.51" width="2" height="28.17"/>
      <rect class="cls-1" x="75.95" y="74.74" width="2" height="9.48"/>
      <rect class="cls-1" x="47.28" y="74.74" width="2" height="9.48"/>
      <rect class="cls-1" x="18.62" y="74.74" width="2" height="9.48"/>
      <path class="cls-1" d="m74.13,36.62c-.58,0-1.16-.06-1.74-.19l.43-1.95c2.44.53,4.95-.46,6.24-2.47,1.72-2.69.24-5.73.23-5.77l1.79-.9c.08.17,2.01,4.1-.33,7.74-1.43,2.23-3.95,3.53-6.61,3.53Z"/>
      <path class="cls-1" d="m48.46,101.51c-.96,0-1.86-.37-2.54-1.05l-3.8-3.8c-1.4-1.4-1.4-3.68,0-5.08l3.8-3.8c1.36-1.36,3.73-1.36,5.08,0l3.8,3.8c1.4,1.4,1.4,3.68,0,5.08l-3.8,3.8c-.68.68-1.58,1.05-2.54,1.05Zm0-12.79c-.42,0-.83.17-1.13.47l-3.8,3.8c-.62.62-.62,1.63,0,2.25l3.8,3.8c.6.6,1.65.6,2.25,0l3.8-3.8c.62-.62.62-1.63,0-2.25l-3.8-3.8c-.3-.3-.7-.47-1.13-.47Z"/>
    </g>
  </g>
</svg>