<svg xmlns="http://www.w3.org/2000/svg" width="55.933" height="41.949" viewBox="0 0 55.933 41.949">
  <g id="Group_29" data-name="Group 29" transform="translate(-825.823 -1996.473)">
    <g id="Group_28" data-name="Group 28" transform="translate(825.823 1996.473)">
      <g id="image">
        <path id="Path_665" data-name="Path 665" d="M10.992,7a6.992,6.992,0,1,0,6.992,6.992A6.992,6.992,0,0,0,10.992,7ZM8.661,13.992a2.331,2.331,0,1,1,2.331,2.331A2.331,2.331,0,0,1,8.661,13.992Z" transform="translate(5.322 2.322)" fill="#2986ff" fill-rule="evenodd"/>
        <path id="Path_666" data-name="Path 666" d="M6.992,3A6.992,6.992,0,0,0,0,9.992V37.958a6.992,6.992,0,0,0,6.992,6.992H48.941a6.991,6.991,0,0,0,6.992-6.992V9.992A6.992,6.992,0,0,0,48.941,3ZM48.941,7.661H6.992A2.331,2.331,0,0,0,4.661,9.992V37.958a2.331,2.331,0,0,0,2.331,2.331H17.045L33.076,24.258a6.991,6.991,0,0,1,9.887,0l8.308,8.308V9.992A2.331,2.331,0,0,0,48.941,7.661Zm0,32.627h-25.3L36.372,27.553a2.33,2.33,0,0,1,3.3,0L51.055,38.941A2.331,2.331,0,0,1,48.941,40.288Z" transform="translate(0 -3)" fill="#2986ff" fill-rule="evenodd"/>
      </g>
    </g>
  </g>
</svg>
