<?xml version="1.0" encoding="utf-8"?>
<!-- Generator: Adobe Illustrator 27.2.0, SVG Export Plug-In . SVG Version: 6.00 Build 0)  -->
<svg version="1.1" id="Warstwa_2_00000001636483903044424850000007515512861739741865_"
	 xmlns="http://www.w3.org/2000/svg" xmlns:xlink="http://www.w3.org/1999/xlink" x="0px" y="0px" viewBox="0 0 109 114.6"
	 style="enable-background:new 0 0 109 114.6;" xml:space="preserve">
<style type="text/css">
	.st0{opacity:0.45;fill:#E8F0FB;enable-background:new    ;}
	.st1{fill:#2986FF;stroke:#2986FF;stroke-miterlimit:10;}
</style>
<circle class="st0" cx="53.1" cy="61.5" r="53.1"/>
<path class="st1" d="M90.6,110h-68c-4.8,0-8.8-3.9-8.8-8.8v-50c0-4.8,3.9-8.8,8.8-8.8h68c4.8,0,8.8,3.9,8.8,8.8v50
	C99.3,106.1,95.4,110,90.6,110L90.6,110z M22.6,44.4c-3.7,0-6.8,3-6.8,6.8v50c0,3.7,3,6.8,6.8,6.8h68c3.7,0,6.8-3,6.8-6.8v-50
	c0-3.7-3-6.8-6.8-6.8H22.6z"/>
<path class="st1" d="M89.7,44.4H23.5l33.1-33.1L89.7,44.4L89.7,44.4z M28.3,42.4h56.5L56.6,14.1L28.3,42.4L28.3,42.4z"/>
<g>
	<path class="st1" d="M88.2,101.6H24.9V51.4h63.3V101.6z M26.9,99.6h59.3V53.4H26.9V99.6z"/>
	<path class="st1" d="M88.2,101.6h-58L62,69.7c0.2-0.2,2.3-2.6,5.5-2.3c2.4,0.2,4,1.8,4.4,2.4l16.3,16.1L88.2,101.6L88.2,101.6z
		 M35,99.6h51.2V86.7L70.4,71.1c-0.3-0.3-1.3-1.5-3.1-1.7c-2.2-0.2-3.7,1.4-3.9,1.6L35,99.6L35,99.6z"/>
	<path class="st1" d="M43.5,72.4c-3.8,0-7-3.1-7-7c0-3.9,3.1-7,7-7s7,3.1,7,7C50.5,69.3,47.4,72.4,43.5,72.4z M43.5,60.4
		c-2.8,0-5,2.2-5,5c0,2.8,2.2,5,5,5s5-2.2,5-5C48.5,62.7,46.3,60.4,43.5,60.4z"/>
</g>
<path class="st1" d="M56.8,13.2c-2.4,0-4.3-1.9-4.3-4.3s1.9-4.3,4.3-4.3c2.4,0,4.3,1.9,4.3,4.3S59.2,13.2,56.8,13.2z M56.8,6.6
	c-1.3,0-2.3,1.1-2.3,2.3s1.1,2.3,2.3,2.3s2.3-1.1,2.3-2.3S58,6.6,56.8,6.6z"/>
<rect x="59.2" y="20" transform="matrix(0.7085 -0.7057 0.7057 0.7085 -0.568 49.9947)" class="st1" width="2" height="11.4"/>
<rect x="67.4" y="30.4" transform="matrix(0.7005 -0.7136 0.7136 0.7005 -3.9076 59.0323)" class="st1" width="2" height="7.5"/>
<rect x="6.9" y="64.4" class="st1" width="2" height="8.5"/>
<rect x="6.9" y="76.2" class="st1" width="2" height="20.6"/>
</svg>
