<?xml version="1.0" encoding="utf-8"?>
<!-- Generator: Adobe Illustrator 27.2.0, SVG Export Plug-In . SVG Version: 6.00 Build 0)  -->
<svg version="1.1" id="Warstwa_2_00000001636483903044424850000007515512861739741865_"
	 xmlns="http://www.w3.org/2000/svg" xmlns:xlink="http://www.w3.org/1999/xlink" x="0px" y="0px" viewBox="0 0 110 110"
	 style="enable-background:new 0 0 110 110;" xml:space="preserve">
<style type="text/css">
	.st0{opacity:0.22;fill:#2986FF;enable-background:new    ;}
	.st1{fill:#1F2C5E;stroke:#1F2C5E;stroke-miterlimit:10;}
	.st2{fill:#1F2C5E;stroke:#1F2C5E;stroke-width:1;stroke-miterlimit:9.9999;}
	.st3{fill:#1F2C5E;stroke:#1F2C5E;stroke-width:1;stroke-miterlimit:9.9996;}
</style>
<circle class="st0" cx="55.4" cy="56.9" r="53"/>
<path class="st1" d="M92.8,108.4H24.9c-4.8,0-8.8-3.9-8.8-8.8V49.7c0-4.8,3.9-8.8,8.8-8.8h67.9c4.8,0,8.8,3.9,8.8,8.8v49.9
	C101.5,104.5,97.6,108.4,92.8,108.4L92.8,108.4z M24.9,42.9c-3.7,0-6.8,3-6.8,6.8v49.9c0,3.7,3,6.8,6.8,6.8h67.9
	c3.7,0,6.8-3,6.8-6.8V49.7c0-3.7-3-6.8-6.8-6.8C92.8,42.9,24.9,42.9,24.9,42.9z"/>
<path class="st1" d="M91.9,42.9H25.8L58.8,9.9L91.9,42.9L91.9,42.9z M30.6,40.9H87L58.8,12.6L30.6,40.9L30.6,40.9z"/>
<g>
	<path class="st1" d="M90.4,100H27.2V49.9h63.2V100z M29.2,98.1h59.2V51.9H29.2V98.1z"/>
	<path class="st1" d="M90.4,100H32.5l31.8-31.9c0.2-0.2,2.3-2.6,5.5-2.3c2.4,0.2,4,1.8,4.4,2.4l16.3,16.1V100L90.4,100z M37.3,98.1
		h51.1V85.2L72.6,69.6c-0.3-0.3-1.3-1.5-3.1-1.7c-2.2-0.2-3.7,1.4-3.9,1.6L37.3,98.1L37.3,98.1z"/>
	<path class="st1" d="M45.7,70.9c-3.8,0-7-3.1-7-7s3.1-7,7-7s7,3.1,7,7S49.6,70.9,45.7,70.9z M45.7,58.9c-2.8,0-5,2.2-5,5
		c0,2.8,2.2,5,5,5s5-2.2,5-5C50.7,61.2,48.5,58.9,45.7,58.9z"/>
</g>
<path class="st1" d="M59,11.7c-2.4,0-4.3-1.9-4.3-4.3s1.9-4.3,4.3-4.3c2.4,0,4.3,1.9,4.3,4.3S61.4,11.7,59,11.7z M59,5.2
	c-1.3,0-2.3,1.1-2.3,2.3s1.1,2.3,2.3,2.3c1.2,0,2.3-1.1,2.3-2.3S60.2,5.2,59,5.2z"/>
<rect x="61.4" y="18.6" transform="matrix(0.7085 -0.7057 0.7057 0.7085 1.0861 51.1391)" class="st2" width="2" height="11.4"/>
<rect x="69.6" y="28.9" transform="matrix(0.7005 -0.7136 0.7136 0.7005 -2.1729 60.1609)" class="st3" width="2" height="7.5"/>
<rect x="9.2" y="62.9" class="st1" width="2" height="8.5"/>
<rect x="9.2" y="74.7" class="st1" width="2" height="20.6"/>
</svg>
