<?xml version="1.0" encoding="UTF-8"?>
<svg id="Warstwa_2" data-name="Warstwa 2" xmlns="http://www.w3.org/2000/svg" viewBox="0 0 108.98 114.61">
  <defs>
    <style>
      .cls-1 {
        fill: #2986ff;
      }

      .cls-2 {
        fill: #e8f0fb;
        opacity: .45;
      }
    </style>
  </defs>
  <g id="Warstwa_1-2" data-name="Warstwa 1">
    <g>
      <circle class="cls-2" cx="53.13" cy="61.48" r="53.13"/>
      <path class="cls-1" d="m100.19,105.49H32.19c-4.84,0-8.78-3.94-8.78-8.78v-50.05c0-4.84,3.94-8.78,8.78-8.78h68.01c4.84,0,8.78,3.94,8.78,8.78v50.05c0,4.84-3.94,8.78-8.78,8.78ZM32.19,39.87c-3.74,0-6.78,3.04-6.78,6.78v50.05c0,3.74,3.04,6.78,6.78,6.78h68.01c3.74,0,6.78-3.04,6.78-6.78v-50.05c0-3.74-3.04-6.78-6.78-6.78H32.19Z"/>
      <path class="cls-1" d="m99.29,39.85H33.08L66.19,6.74l33.1,33.1Zm-61.38-2h56.55l-28.28-28.28-28.28,28.28Z"/>
      <g>
        <path class="cls-1" d="m97.86,97.03h-63.33v-50.16h63.33v50.16Zm-61.33-2h59.33v-46.16h-59.33v46.16Z"/>
        <path class="cls-1" d="m97.86,97.03h-58.05l31.77-31.9c.18-.21,2.28-2.56,5.53-2.26,2.45.23,3.97,1.82,4.43,2.38l16.31,16.09v15.69Zm-53.23-2h51.23v-12.86l-15.83-15.62c-.29-.35-1.35-1.53-3.1-1.69-2.24-.19-3.72,1.44-3.88,1.63l-28.43,28.54Z"/>
        <path class="cls-1" d="m53.13,67.83c-3.85,0-6.98-3.13-6.98-6.98s3.13-6.98,6.98-6.98,6.98,3.13,6.98,6.98-3.13,6.98-6.98,6.98Zm0-11.96c-2.75,0-4.98,2.23-4.98,4.98s2.23,4.98,4.98,4.98,4.98-2.23,4.98-4.98-2.23-4.98-4.98-4.98Z"/>
      </g>
      <path class="cls-1" d="m66.39,8.67c-2.39,0-4.33-1.94-4.33-4.33s1.94-4.33,4.33-4.33,4.33,1.94,4.33,4.33-1.94,4.33-4.33,4.33Zm0-6.67c-1.29,0-2.33,1.05-2.33,2.33s1.05,2.33,2.33,2.33,2.33-1.05,2.33-2.33-1.05-2.33-2.33-2.33Z"/>
      <rect class="cls-1" x="68.86" y="15.43" width="2" height="11.41" transform="translate(5.45 55.46) rotate(-44.89)"/>
      <rect class="cls-1" x="77.01" y="25.89" width="2" height="7.45" transform="translate(2.23 64.54) rotate(-45.53)"/>
      <rect class="cls-1" x="16.54" y="59.87" width="2" height="8.48"/>
      <rect class="cls-1" x="16.54" y="71.61" width="2" height="20.61"/>
    </g>
  </g>
</svg>