<?xml version="1.0" encoding="utf-8"?>
<!-- Generator: Adobe Illustrator 27.2.0, SVG Export Plug-In . SVG Version: 6.00 Build 0)  -->
<svg version="1.1" id="Group_20" xmlns="http://www.w3.org/2000/svg" xmlns:xlink="http://www.w3.org/1999/xlink" x="0px" y="0px"
	 viewBox="0 0 110 110" style="enable-background:new 0 0 110 110;" xml:space="preserve">
<style type="text/css">
	.st0{opacity:0.22;fill:#2986FF;enable-background:new    ;}
	.st1{fill:#1F2C5E;stroke:#1F2C5E;stroke-width:0.75;stroke-miterlimit:10;}
</style>
<circle class="st0" cx="56.1" cy="53.4" r="53.4"/>
<g>
	<path class="st1" d="M81.5,32.6H30.6V15c0-3.8,3.1-6.6,6.6-6.6h37.4c3.8,0,6.6,3.1,6.6,6.6v17.6H81.5z M32.5,30.7h47.1V15
		c0-2.5-2.2-4.7-4.7-4.7H37.2c-2.5,0-4.7,2.2-4.7,4.7C32.5,15,32.5,30.7,32.5,30.7z"/>
</g>
<g>
	<path class="st1" d="M88.7,30.7H23.4c-5.7,0-10,4.4-10,10.1v29.8c0,5.7,4.4,10,10,10h0.9v14.4c0,11,3.5,11,7.5,11h48.4
		c4.1,0,7.5,0,7.5-11V80.6h0.9c5.7,0,10-4.7,10-10V40.7C98.8,35.1,94.4,30.7,88.7,30.7z M81.5,80.6v10.7c0,3.1-2.5,5.7-5.7,5.7H36.3
		c-3.1,0-5.7-2.5-5.7-5.7V80.6V69.3h50.9C81.5,69.3,81.5,80.6,81.5,80.6z M85.9,95.1c0,9.1-2.5,9.1-5.7,9.1H31.9
		c-3.1,0-5.7-0.3-5.7-9.1V80.6h1.9v10.7c0,4.4,3.5,7.9,7.9,7.9h40.2c4.4,0,7.9-3.5,7.9-7.9V80.6h1.9C85.9,80.6,85.9,95.1,85.9,95.1z
		 M96.6,70.6c0,4.4-3.5,7.9-7.9,7.9h-5V67.1h-55v11.3h-5.3c-4.4,0-7.9-3.5-7.9-7.9V40.7c0-4.4,3.5-7.9,7.9-7.9h65.3
		c4.4,0,7.9,3.5,7.9,7.9C96.6,40.7,96.6,70.6,96.6,70.6z"/>
	<path class="st1" d="M82.8,42.6c-2.8,0-5,2.2-5,5s2.2,5,5,5s5-2.2,5-5C87.8,44.8,85.6,42.6,82.8,42.6z M82.8,51.1
		c-1.9,0-3.1-1.3-3.1-3.1s1.6-3.1,3.1-3.1c1.9,0,3.1,1.3,3.1,3.1S84.4,51.1,82.8,51.1z"/>
	<rect x="37.6" y="70.9" class="st1" width="38.9" height="1.9"/>
	<rect x="40.7" y="76.5" class="st1" width="35.8" height="1.9"/>
	<rect x="37.6" y="83.4" class="st1" width="38.9" height="1.9"/>
</g>
</svg>
