<?xml version="1.0" encoding="utf-8"?>
<!-- Generator: Adobe Illustrator 27.2.0, SVG Export Plug-In . SVG Version: 6.00 Build 0)  -->
<svg version="1.1" id="Group_20" xmlns="http://www.w3.org/2000/svg" xmlns:xlink="http://www.w3.org/1999/xlink" x="0px" y="0px"
	 viewBox="0 0 40 40" style="enable-background:new 0 0 40 40;" xml:space="preserve">
<style type="text/css">
	.st0{opacity:0.45;fill:#E8F0FB;enable-background:new    ;}
	.st1{fill:#2986FF;}
</style>
<circle class="st0" cx="19.8" cy="20.2" r="17"/>
<g>
	<path class="st1" d="M27.9,15H11.7V9.4c0-1.2,1-2.1,2.1-2.1h11.9c1.2,0,2.1,1,2.1,2.1V15H27.9z M12.3,14.4h15v-5
		c0-0.8-0.7-1.5-1.5-1.5h-12c-0.8,0-1.5,0.7-1.5,1.5V14.4z"/>
</g>
<g>
	<path class="st1" d="M30.2,14.4H9.4c-1.8,0-3.2,1.4-3.2,3.2v9.5c0,1.8,1.4,3.2,3.2,3.2h0.3v4.6c0,1.3,1.1,2.4,2.4,2.4h15.4
		c1.3,0,2.4-1.1,2.4-2.4v-4.6h0.3c1.8,0,3.2-1.5,3.2-3.2v-9.5C33.4,15.8,32,14.4,30.2,14.4z M27.9,30.3v3.4c0,1-0.8,1.8-1.8,1.8
		H13.5c-1,0-1.8-0.8-1.8-1.8v-3.4v-3.6h16.2V30.3z M29.3,34.9c0,1-0.8,1.8-1.8,1.8H12.1c-1,0-1.8-0.8-1.8-1.8v-4.6h0.6v3.4
		c0,1.4,1.1,2.5,2.5,2.5h12.8c1.4,0,2.5-1.1,2.5-2.5v-3.4h0.6V34.9z M32.7,27.1c0,1.4-1.1,2.5-2.5,2.5h-1.6V26H11.1v3.6H9.4
		c-1.4,0-2.5-1.1-2.5-2.5v-9.5c0-1.4,1.1-2.5,2.5-2.5h20.8c1.4,0,2.5,1.1,2.5,2.5V27.1z"/>
	<path class="st1" d="M28.3,18.2c-0.9,0-1.6,0.7-1.6,1.6c0,0.9,0.7,1.6,1.6,1.6c0.9,0,1.6-0.7,1.6-1.6
		C29.9,18.9,29.2,18.2,28.3,18.2z M28.3,20.9c-0.6,0-1-0.4-1-1c0-0.6,0.5-1,1-1c0.6,0,1,0.4,1,1C29.3,20.5,28.8,20.9,28.3,20.9z"/>
	<rect x="13.9" y="27.2" class="st1" width="12.4" height="0.6"/>
	<rect x="14.9" y="29" class="st1" width="11.4" height="0.6"/>
	<rect x="13.9" y="31.2" class="st1" width="12.4" height="0.6"/>
</g>
</svg>
