<?xml version="1.0" encoding="utf-8"?>
<!-- Generator: Adobe Illustrator 27.2.0, SVG Export Plug-In . SVG Version: 6.00 Build 0)  -->
<svg version="1.1" id="Group_20" xmlns="http://www.w3.org/2000/svg" xmlns:xlink="http://www.w3.org/1999/xlink" x="0px" y="0px"
	 viewBox="0 0 110 110" style="enable-background:new 0 0 110 110;" xml:space="preserve">
<style type="text/css">
	.st0{opacity:0.22;fill:#2986FF;enable-background:new    ;}
	.st1{fill:url(#SVGID_1_);}
	.st2{fill:url(#SVGID_00000000936799256504587610000011492507880715177879_);}
	.st3{fill:url(#SVGID_00000029728951483382703440000000087096198785097902_);}
	.st4{fill:url(#SVGID_00000130605697933005350780000017015666443607451021_);}
	.st5{fill:url(#SVGID_00000014608558732771081040000003569195782208034721_);}
	.st6{fill:url(#SVGID_00000039838851033117231970000010713837750821932161_);}
	.st7{fill:url(#SVGID_00000084529833854727451990000010008190127915575168_);}
	.st8{fill:url(#SVGID_00000020385598872655152660000006995883846904290441_);}
	.st9{fill:url(#SVGID_00000071559574827118281780000001322723389596266920_);}
	.st10{fill:url(#SVGID_00000004507363201443766790000000082082138080149434_);}
	.st11{fill:url(#SVGID_00000178901368671338833860000001428716183765838002_);}
	.st12{fill:url(#SVGID_00000139260562287477153380000003706300856332547995_);}
</style>
<circle class="st0" cx="56.1" cy="53.4" r="53.4"/>
<g>
	<g>
		<linearGradient id="SVGID_1_" gradientUnits="userSpaceOnUse" x1="56.05" y1="3.1304" x2="56.05" y2="107.3416">
			<stop  offset="5.412371e-02" style="stop-color:#1F2C5E"/>
			<stop  offset="0.5258" style="stop-color:#2986FF"/>
			<stop  offset="1" style="stop-color:#2BD1E2"/>
		</linearGradient>
		<path class="st1" d="M81.5,32.6H30.6V15c0-3.8,3.1-6.6,6.6-6.6h37.4c3.8,0,6.6,3.1,6.6,6.6v17.6H81.5z M32.5,30.7h47.1V15
			c0-2.5-2.2-4.7-4.7-4.7H37.2c-2.5,0-4.7,2.2-4.7,4.7V30.7z"/>
		
			<linearGradient id="SVGID_00000133508946085387505540000002819414738926618241_" gradientUnits="userSpaceOnUse" x1="55.9001" y1="3.1304" x2="55.9001" y2="107.3416">
			<stop  offset="5.412371e-02" style="stop-color:#1F2C5E"/>
			<stop  offset="0.5258" style="stop-color:#2986FF"/>
			<stop  offset="1" style="stop-color:#2BD1E2"/>
		</linearGradient>
		<path style="fill:url(#SVGID_00000133508946085387505540000002819414738926618241_);" d="M81.5,33H30.2V15c0-3.8,3.1-7,7-7h37.4
			c3.8,0,7,3.1,7,7v17.6h-0.1V33z M31,32.2h49.9V15c0-3.4-2.8-6.2-6.2-6.2H37.2c-3.4,0-6.2,2.8-6.2,6.2V32.2z M80,31.1H32.1V15
			c0-2.7,2.4-5.1,5.1-5.1h37.7c2.7,0,5.1,2.4,5.1,5.1V31.1z M32.9,30.3h46.3V15c0-2.3-2-4.3-4.3-4.3H37.2c-2.3,0-4.3,2-4.3,4.3V30.3
			z"/>
	</g>
</g>
<g>
	<g>
		
			<linearGradient id="SVGID_00000029040844419335224200000001204307643747988139_" gradientUnits="userSpaceOnUse" x1="56.0033" y1="3.1304" x2="56.0033" y2="107.3416">
			<stop  offset="5.412371e-02" style="stop-color:#1F2C5E"/>
			<stop  offset="0.5258" style="stop-color:#2986FF"/>
			<stop  offset="1" style="stop-color:#2BD1E2"/>
		</linearGradient>
		<path style="fill:url(#SVGID_00000029040844419335224200000001204307643747988139_);" d="M88.7,30.7H23.4c-5.7,0-10,4.4-10,10.1
			v29.8c0,5.7,4.4,10,10,10h0.9V95c0,11,3.5,11,7.5,11h48.4c4.1,0,7.5,0,7.5-11V80.6h0.9c5.7,0,10-4.7,10-10V40.7
			C98.8,35.1,94.4,30.7,88.7,30.7z M81.5,80.6v10.7c0,3.1-2.5,5.7-5.7,5.7H36.3c-3.1,0-5.7-2.5-5.7-5.7V80.6V69.3h50.9V80.6z
			 M85.9,95.1c0,9.1-2.5,9.1-5.7,9.1H31.9c-3.1,0-5.7-0.3-5.7-9.1V80.6h1.9v10.7c0,4.4,3.5,7.9,7.9,7.9h40.2c4.4,0,7.9-3.5,7.9-7.9
			V80.6H86C85.9,80.6,85.9,95.1,85.9,95.1z M96.6,70.6c0,4.4-3.5,7.9-7.9,7.9h-5V67.1h-55v11.3h-5.3c-4.4,0-7.9-3.5-7.9-7.9V40.7
			c0-4.4,3.5-7.9,7.9-7.9h65.3c4.4,0,7.9,3.5,7.9,7.9V70.6z"/>
		
			<linearGradient id="SVGID_00000005236977141868740350000001281704997170460051_" gradientUnits="userSpaceOnUse" x1="56.0032" y1="3.1304" x2="56.0032" y2="107.3416">
			<stop  offset="5.412371e-02" style="stop-color:#1F2C5E"/>
			<stop  offset="0.5258" style="stop-color:#2986FF"/>
			<stop  offset="1" style="stop-color:#2BD1E2"/>
		</linearGradient>
		<path style="fill:url(#SVGID_00000005236977141868740350000001281704997170460051_);" d="M80.2,106.4H31.8c-4,0-7.9,0-7.9-11.4V81
			h-0.5C17.6,81,13,76.4,13,70.6V40.8c0-6,4.5-10.5,10.4-10.5h65.3c2.9,0,5.6,1.1,7.5,3.1c1.9,1.9,2.8,4.5,2.7,7.3v29.9
			C99,76.3,94.3,81,88.6,81h-0.5v14C88.1,106.4,84.4,106.4,80.2,106.4z M23.4,31.1c-5.5,0-9.6,4.2-9.6,9.7v29.8
			c0,5.5,4.1,9.6,9.6,9.6h1.3V95c0,10.6,3.1,10.6,7.1,10.6h48.4c4,0,7.1,0,7.1-10.6V80.2h1.3c5.3,0,9.6-4.3,9.6-9.6V40.7
			c0.1-2.6-0.8-5-2.5-6.7c-1.8-1.9-4.3-2.9-7-2.9H23.4z M80.2,104.6H31.9c-3.4,0-6.1-0.7-6.1-9.5V80.2h2.6v11.1
			c0,4.2,3.3,7.5,7.5,7.5h40.2c4.2,0,7.5-3.3,7.5-7.5V80.2H86v0.4l0.4,0.1c-0.1,0.5-0.1,8.9-0.1,14.4
			C86.3,104.6,83.5,104.6,80.2,104.6z M26.6,81v14.1c0,8.7,2.6,8.7,5.3,8.7h48.3c3.1,0,5.3,0,5.3-8.7c0-9.4,0-12.8,0.1-14.1h-1.2
			v10.3c0,4.6-3.6,8.3-8.3,8.3H36c-4.6,0-8.3-3.6-8.3-8.3V81H26.6z M75.8,97.4H36.3c-3.3,0-6.1-2.7-6.1-6.1V68.9h51.6v22.4
			C81.9,94.6,79.1,97.4,75.8,97.4z M31,69.7v21.6c0,2.9,2.4,5.3,5.3,5.3h39.5c2.9,0,5.3-2.4,5.3-5.3V69.7H31z M88.7,78.9h-5.4V67.5
			H29.1v11.3h-5.7c-4.6,0-8.3-3.6-8.3-8.3V40.7c0-4.6,3.6-8.3,8.3-8.3h65.3c4.6,0,8.3,3.6,8.3,8.3v29.9C97,75.2,93.3,78.9,88.7,78.9
			z M84.1,78.1h4.6c4.2,0,7.5-3.3,7.5-7.5V40.7c0-4.2-3.3-7.5-7.5-7.5H23.4c-4.2,0-7.5,3.3-7.5,7.5v29.8c0,4.2,3.3,7.5,7.5,7.5h4.9
			V66.7h55.8V78.1z"/>
	</g>
	<g>
		
			<linearGradient id="SVGID_00000162351874733350168950000004613490802846417085_" gradientUnits="userSpaceOnUse" x1="82.8" y1="3.1304" x2="82.8" y2="107.3416">
			<stop  offset="5.412371e-02" style="stop-color:#1F2C5E"/>
			<stop  offset="0.5258" style="stop-color:#2986FF"/>
			<stop  offset="1" style="stop-color:#2BD1E2"/>
		</linearGradient>
		<path style="fill:url(#SVGID_00000162351874733350168950000004613490802846417085_);" d="M82.8,42.6c-2.8,0-5,2.2-5,5s2.2,5,5,5
			s5-2.2,5-5S85.6,42.6,82.8,42.6z M82.8,51.1c-1.9,0-3.1-1.3-3.1-3.1s1.6-3.1,3.1-3.1c1.9,0,3.1,1.3,3.1,3.1S84.4,51.1,82.8,51.1z"
			/>
		
			<linearGradient id="SVGID_00000165936726523124958030000008731284180975187601_" gradientUnits="userSpaceOnUse" x1="82.7998" y1="3.1304" x2="82.7998" y2="107.3416">
			<stop  offset="5.412371e-02" style="stop-color:#1F2C5E"/>
			<stop  offset="0.5258" style="stop-color:#2986FF"/>
			<stop  offset="1" style="stop-color:#2BD1E2"/>
		</linearGradient>
		<path style="fill:url(#SVGID_00000165936726523124958030000008731284180975187601_);" d="M82.8,53c-3,0-5.4-2.4-5.4-5.4
			s2.4-5.4,5.4-5.4s5.4,2.4,5.4,5.4S85.8,53,82.8,53z M82.8,43c-2.6,0-4.6,2-4.6,4.6s2,4.6,4.6,4.6s4.6-2,4.6-4.6S85.4,43,82.8,43z
			 M82.8,51.5c-2,0-3.5-1.4-3.5-3.5c0-2,1.8-3.5,3.5-3.5c2,0,3.5,1.4,3.5,3.5C86.3,49.9,84.7,51.5,82.8,51.5z M82.8,45.3
			c-1.3,0-2.7,1.1-2.7,2.7c0,1.7,1.1,2.7,2.7,2.7c1.3,0,2.7-1,2.7-2.7C85.5,46.3,84.5,45.3,82.8,45.3z"/>
	</g>
	<g>
		
			<linearGradient id="SVGID_00000121998542830648526210000012963931920378019718_" gradientUnits="userSpaceOnUse" x1="57.05" y1="3.1304" x2="57.05" y2="107.3416">
			<stop  offset="5.412371e-02" style="stop-color:#1F2C5E"/>
			<stop  offset="0.5258" style="stop-color:#2986FF"/>
			<stop  offset="1" style="stop-color:#2BD1E2"/>
		</linearGradient>
		
			<rect x="37.6" y="70.9" style="fill:url(#SVGID_00000121998542830648526210000012963931920378019718_);" width="38.9" height="1.9"/>
		
			<linearGradient id="SVGID_00000018924416586105403380000008077394314006990983_" gradientUnits="userSpaceOnUse" x1="57.05" y1="3.1304" x2="57.05" y2="107.3416">
			<stop  offset="5.412371e-02" style="stop-color:#1F2C5E"/>
			<stop  offset="0.5258" style="stop-color:#2986FF"/>
			<stop  offset="1" style="stop-color:#2BD1E2"/>
		</linearGradient>
		<path style="fill:url(#SVGID_00000018924416586105403380000008077394314006990983_);" d="M76.9,73.2H37.2v-2.6h39.6V73.2z
			 M38,72.4h38.1v-1.1H38V72.4z"/>
	</g>
	<g>
		
			<linearGradient id="SVGID_00000106869323811769236070000016670595536960527792_" gradientUnits="userSpaceOnUse" x1="58.6" y1="3.1304" x2="58.6" y2="107.3416">
			<stop  offset="5.412371e-02" style="stop-color:#1F2C5E"/>
			<stop  offset="0.5258" style="stop-color:#2986FF"/>
			<stop  offset="1" style="stop-color:#2BD1E2"/>
		</linearGradient>
		
			<rect x="40.7" y="76.5" style="fill:url(#SVGID_00000106869323811769236070000016670595536960527792_);" width="35.8" height="1.9"/>
		
			<linearGradient id="SVGID_00000060723101749345987410000012129613131620566411_" gradientUnits="userSpaceOnUse" x1="58.6001" y1="3.1304" x2="58.6001" y2="107.3416">
			<stop  offset="5.412371e-02" style="stop-color:#1F2C5E"/>
			<stop  offset="0.5258" style="stop-color:#2986FF"/>
			<stop  offset="1" style="stop-color:#2BD1E2"/>
		</linearGradient>
		<path style="fill:url(#SVGID_00000060723101749345987410000012129613131620566411_);" d="M76.9,78.8H40.3v-2.7h36.5V78.8z
			 M41.1,78h35v-1.2h-35V78z"/>
	</g>
	<g>
		
			<linearGradient id="SVGID_00000019664807350208184700000009056731816344378000_" gradientUnits="userSpaceOnUse" x1="57.05" y1="3.1304" x2="57.05" y2="107.3416">
			<stop  offset="5.412371e-02" style="stop-color:#1F2C5E"/>
			<stop  offset="0.5258" style="stop-color:#2986FF"/>
			<stop  offset="1" style="stop-color:#2BD1E2"/>
		</linearGradient>
		
			<rect x="37.6" y="83.4" style="fill:url(#SVGID_00000019664807350208184700000009056731816344378000_);" width="38.9" height="1.9"/>
		
			<linearGradient id="SVGID_00000107589729562006059060000012433049311251066547_" gradientUnits="userSpaceOnUse" x1="57.05" y1="3.1304" x2="57.05" y2="107.3416">
			<stop  offset="5.412371e-02" style="stop-color:#1F2C5E"/>
			<stop  offset="0.5258" style="stop-color:#2986FF"/>
			<stop  offset="1" style="stop-color:#2BD1E2"/>
		</linearGradient>
		<path style="fill:url(#SVGID_00000107589729562006059060000012433049311251066547_);" d="M76.9,85.7H37.2V83h39.6V85.7z M38,84.9
			h38.1v-1.1H38V84.9z"/>
	</g>
</g>
</svg>
