<svg id="Group_20" data-name="Group 20" xmlns="http://www.w3.org/2000/svg" width="52.388" height="52.474" viewBox="0 0 52.388 52.474">
  <path id="Path_306" data-name="Path 306" d="M18.25,2c3.309,0,6.045,2.9,6.5,6.663L47.013,30.933,26.6,51.348a7.874,7.874,0,0,1-11.136,0L4.326,40.213a7.874,7.874,0,0,1,0-11.136l7.362-7.362V9.765C11.688,5.479,14.626,2,18.25,2Zm1.312,7.762v4.076l-2.625,2.625v-6.7A1.448,1.448,0,0,1,18.25,8.213,1.448,1.448,0,0,1,19.562,9.765Zm0,15.523V21.265L8.038,32.789a2.625,2.625,0,0,0,0,3.712L19.174,47.637a2.625,2.625,0,0,0,3.712,0l16.7-16.7L24.811,16.156v9.133q0,.169-.006.337H19.531A1.832,1.832,0,0,0,19.562,25.289Z" transform="translate(-2.02 -2.004)" fill="#2986ff" fill-rule="evenodd"/>
  <path id="Path_307" data-name="Path 307" d="M18.286,20.321a7.874,7.874,0,1,0,11.136,0l-5.568-5.568Z" transform="translate(20.66 18.71)" fill="#2986ff"/>
</svg>
