<svg xmlns="http://www.w3.org/2000/svg" width="54.66" height="44.722" viewBox="0 0 54.66 44.722">
  <path id="screen" d="M25.845,37.784H8.454A7.454,7.454,0,0,1,1,30.33V10.454A7.454,7.454,0,0,1,8.454,3H48.206a7.454,7.454,0,0,1,7.454,7.454V30.33a7.453,7.453,0,0,1-7.454,7.454H30.815v4.969h7.454a2.485,2.485,0,1,1,0,4.969H18.392a2.485,2.485,0,1,1,0-4.969h7.454ZM8.454,7.969H48.206a2.485,2.485,0,0,1,2.485,2.485V30.33a2.484,2.484,0,0,1-2.485,2.485H8.454A2.485,2.485,0,0,1,5.969,30.33V10.454A2.485,2.485,0,0,1,8.454,7.969Z" transform="translate(-1 -3)" fill="#2986ff" fill-rule="evenodd"/>
</svg>
