<?xml version="1.0" encoding="utf-8"?>
<!-- Generator: Adobe Illustrator 27.2.0, SVG Export Plug-In . SVG Version: 6.00 Build 0)  -->
<svg version="1.1" id="Warstwa_1" xmlns="http://www.w3.org/2000/svg" xmlns:xlink="http://www.w3.org/1999/xlink" x="0px" y="0px"
	 viewBox="0 0 40 40" style="enable-background:new 0 0 40 40;" xml:space="preserve">
<style type="text/css">
	.st0{opacity:0.45;fill:#E8F0FB;}
	.st1{fill:#2986FF;}
</style>
<circle class="st0" cx="23" cy="20" r="17"/>
<path class="st1" d="M31.2,32.8H1.2V9.2h29.9V32.8z M1.9,32.2h28.7V9.8H1.9V32.2z"/>
<path class="st1" d="M36.9,32h-6.3V17.8h6.3V32z M31.2,31.4h5V18.5h-5V31.4z"/>
<path class="st1" d="M36.9,21.3h-6.3v-3.4h6.3V21.3z M31.2,20.6h5v-2.1h-5V20.6z"/>
<path class="st1" d="M29.2,29.5H10.3V16h18.9V29.5z M11,28.9h17.6V16.6H11V28.9z"/>
<path class="st1" d="M31.2,14.5H1.2V9.2h29.9V14.5z M1.9,13.9h28.7V9.8H1.9V13.9z"/>
<path class="st1" d="M19.9,13.3c-0.7,0-1.3-0.6-1.3-1.3c0-0.7,0.6-1.3,1.3-1.3c0.7,0,1.3,0.6,1.3,1.3C21.2,12.7,20.6,13.3,19.9,13.3
	z M19.9,11.3c-0.4,0-0.7,0.3-0.7,0.7c0,0.4,0.3,0.7,0.7,0.7c0.4,0,0.7-0.3,0.7-0.7C20.6,11.6,20.3,11.3,19.9,11.3z"/>
<path class="st1" d="M23.7,13.3c-0.7,0-1.3-0.6-1.3-1.3c0-0.7,0.6-1.3,1.3-1.3c0.7,0,1.3,0.6,1.3,1.3C25,12.7,24.4,13.3,23.7,13.3z
	 M23.7,11.3c-0.4,0-0.7,0.3-0.7,0.7c0,0.4,0.3,0.7,0.7,0.7c0.4,0,0.7-0.3,0.7-0.7C24.4,11.6,24.1,11.3,23.7,11.3z"/>
<path class="st1" d="M27.5,13.3c-0.7,0-1.3-0.6-1.3-1.3c0-0.7,0.6-1.3,1.3-1.3c0.7,0,1.3,0.6,1.3,1.3C28.9,12.7,28.3,13.3,27.5,13.3
	z M27.5,11.3c-0.4,0-0.7,0.3-0.7,0.7c0,0.4,0.3,0.7,0.7,0.7c0.4,0,0.7-0.3,0.7-0.7C28.2,11.6,27.9,11.3,27.5,11.3z"/>
<rect x="7.7" y="19.7" class="st1" width="2.9" height="0.6"/>
<rect x="8.8" y="23.4" class="st1" width="2.2" height="0.6"/>
<rect x="8.8" y="27.1" class="st1" width="2" height="0.6"/>
<g>
	<rect x="23.1" y="18.7" transform="matrix(0.82 -0.5724 0.5724 0.82 -6.3085 17.9793)" class="st1" width="4.6" height="0.6"/>
	<rect x="25.1" y="16.7" transform="matrix(0.5723 -0.8201 0.8201 0.5723 -4.72 28.9888)" class="st1" width="0.6" height="4.6"/>
</g>
<rect x="12.4" y="21.7" class="st1" width="12.2" height="0.6"/>
<rect x="12.4" y="26.2" class="st1" width="12.2" height="0.6"/>
<rect x="12.4" y="23.9" class="st1" width="8.2" height="0.6"/>
</svg>
